Junicode-Italic (Autosaved).glyphspackage
{
glyphname = quotedbl;
layers = (
{
layerId = master01;
shapes = (
{
closed = 1;
nodes = (
(399,932,o),
(420,935,o),
(424,944,cs),
(604,1373,ls),
(615,1400,o),
(619,1419,o),
(619,1426,cs),
(619,1463,o),
(594,1481,o),
(543,1481,cs),
(480,1481,o),
(433,1453,o),
(424,1395,cs),
(356,944,ls),
(355,935,o),
(369,932,o),
(387,932,cs)
);
},
{
closed = 1;
nodes = (
(729,932,o),
(750,935,o),
(754,944,cs),
(934,1373,ls),
(945,1400,o),
(949,1419,o),
(949,1426,cs),
(949,1463,o),
(924,1481,o),
(873,1481,cs),
(810,1481,o),
(763,1453,o),
(754,1395,cs),
(686,944,ls),
(685,935,o),
(699,932,o),
(717,932,cs)
);
}
);
width = 752;
},
{
layerId = "2438E31C-45B5-47A7-9B3D-1A0FEFB47671";
shapes = (
{
closed = 1;
nodes = (
(430,932,o),
(448,934,o),
(453,944,cs),
(661,1352,ls),
(674,1378,o),
(676,1397,o),
(676,1409,cs),
(676,1457,o),
(638,1481,o),
(563,1481,cs),
(483,1481,o),
(416,1450,o),
(408,1380,cs),
(358,944,ls),
(357,934,o),
(376,932,o),
(402,932,cs)
);
},
{
closed = 1;
nodes = (
(830,932,o),
(848,934,o),
(853,944,cs),
(1061,1352,ls),
(1074,1378,o),
(1076,1397,o),
(1076,1409,cs),
(1076,1457,o),
(1038,1481,o),
(963,1481,cs),
(883,1481,o),
(816,1450,o),
(808,1380,cs),
(758,944,ls),
(757,934,o),
(776,932,o),
(802,932,cs)
);
}
);
width = 838;
},
{
layerId = "7904EAEE-2B64-409E-B923-0048172372BE";
shapes = (
{
closed = 1;
nodes = (
(389,932,o),
(411,935,o),
(414,944,cs),
(588,1388,ls),
(597,1411,o),
(600,1422,o),
(600,1432,cs),
(600,1465,o),
(579,1481,o),
(536,1481,cs),
(479,1481,o),
(438,1454,o),
(429,1400,cs),
(355,944,ls),
(354,935,o),
(367,932,o),
(382,932,cs)
);
},
{
closed = 1;
nodes = (
(719,932,o),
(741,935,o),
(744,944,cs),
(918,1388,ls),
(927,1411,o),
(930,1422,o),
(930,1432,cs),
(930,1465,o),
(909,1481,o),
(866,1481,cs),
(809,1481,o),
(768,1454,o),
(759,1400,cs),
(685,944,ls),
(684,935,o),
(697,932,o),
(712,932,cs)
);
}
);
width = 747;
},
{
layerId = "E06D8587-1A71-4EC2-BD94-397D882F5FC1";
shapes = (
{
closed = 1;
nodes = (
(319,932,o),
(336,935,o),
(339,944,cs),
(483,1373,ls),
(492,1400,o),
(495,1419,o),
(495,1426,cs),
(495,1463,o),
(475,1481,o),
(434,1481,cs),
(384,1481,o),
(346,1453,o),
(339,1395,cs),
(285,944,ls),
(284,935,o),
(295,932,o),
(310,932,cs)
);
},
{
closed = 1;
nodes = (
(583,932,o),
(600,935,o),
(603,944,cs),
(747,1373,ls),
(756,1400,o),
(759,1419,o),
(759,1426,cs),
(759,1463,o),
(739,1481,o),
(698,1481,cs),
(648,1481,o),
(610,1453,o),
(603,1395,cs),
(549,944,ls),
(548,935,o),
(559,932,o),
(574,932,cs)
);
}
);
width = 602;
},
{
layerId = "8F7CDE40-C368-4484-AA71-76B7ABD5539F";
shapes = (
{
closed = 1;
nodes = (
(479,932,o),
(504,935,o),
(509,944,cs),
(725,1373,ls),
(738,1400,o),
(743,1419,o),
(743,1426,cs),
(743,1463,o),
(713,1481,o),
(652,1481,cs),
(576,1481,o),
(520,1453,o),
(509,1395,cs),
(427,944,ls),
(426,935,o),
(443,932,o),
(464,932,cs)
);
},
{
closed = 1;
nodes = (
(875,932,o),
(900,935,o),
(905,944,cs),
(1121,1373,ls),
(1134,1400,o),
(1139,1419,o),
(1139,1426,cs),
(1139,1463,o),
(1109,1481,o),
(1048,1481,cs),
(972,1481,o),
(916,1453,o),
(905,1395,cs),
(823,944,ls),
(822,935,o),
(839,932,o),
(860,932,cs)
);
}
);
width = 902;
},
{
layerId = "997BDFA1-EC67-4686-8CFE-E56BDBE179FE";
shapes = (
{
closed = 1;
nodes = (
(399,932,o),
(420,935,o),
(424,944,cs),
(604,1373,ls),
(615,1400,o),
(619,1419,o),
(619,1426,cs),
(619,1463,o),
(594,1481,o),
(543,1481,cs),
(480,1481,o),
(433,1453,o),
(424,1395,cs),
(356,944,ls),
(355,935,o),
(369,932,o),
(387,932,cs)
);
},
{
closed = 1;
nodes = (
(729,932,o),
(750,935,o),
(754,944,cs),
(934,1373,ls),
(945,1400,o),
(949,1419,o),
(949,1426,cs),
(949,1463,o),
(924,1481,o),
(873,1481,cs),
(810,1481,o),
(763,1453,o),
(754,1395,cs),
(686,944,ls),
(685,935,o),
(699,932,o),
(717,932,cs)
);
}
);
width = 752;
}
);
metricLeft = quotesingle;
metricRight = quotesingle;
unicode = 34;
}
{
glyphname = numbersign;
layers = (
{
layerId = master01;
shapes = (
{
closed = 1;
nodes = (
(338,6,l),
(500,401,l),
(733,401,l),
(575,6,l),
(664,6,l),
(825,401,l),
(1020,401,l),
(1063,500,l),
(862,500,l),
(1001,836,l),
(1206,836,l),
(1247,936,l),
(1042,936,l),
(1188,1290,l),
(1090,1290,l),
(948,936,l),
(717,936,l),
(862,1290,l),
(766,1290,l),
(623,936,l),
(406,936,l),
(358,836,l),
(582,836,l),
(446,500,l),
(229,500,l),
(186,401,l),
(410,401,l),
(252,6,l)
);
},
{
closed = 1;
nodes = (
(676,836,l),
(907,836,l),
(770,500,l),
(537,500,l)
);
}
);
width = 1024;
},
{
layerId = "2438E31C-45B5-47A7-9B3D-1A0FEFB47671";
shapes = (
{
closed = 1;
nodes = (
(236,10,l),
(399,381,l),
(580,381,l),
(416,10,l),
(551,10,l),
(715,381,l),
(930,381,l),
(952,514,l),
(774,514,l),
(901,803,l),
(1114,803,l),
(1137,934,l),
(958,934,l),
(1098,1249,l),
(963,1249,l),
(823,934,l),
(643,934,l),
(782,1249,l),
(647,1249,l),
(510,934,l),
(281,934,l),
(256,803,l),
(451,803,l),
(324,514,l),
(94,514,l),
(72,381,l),
(264,381,l),
(100,10,l)
);
},
{
closed = 1;
nodes = (
(586,803,l),
(766,803,l),
(639,514,l),
(459,514,l)
);
}
);
width = 1013;
},
{
layerId = "7904EAEE-2B64-409E-B923-0048172372BE";
shapes = (
{
closed = 1;
nodes = (
(372,5,l),
(534,408,l),
(784,408,l),
(628,5,l),
(702,5,l),
(862,408,l),
(1050,408,l),
(1100,495,l),
(891,495,l),
(1034,847,l),
(1237,847,l),
(1284,937,l),
(1070,937,l),
(1218,1304,l),
(1132,1304,l),
(990,937,l),
(742,937,l),
(889,1304,l),
(806,1304,l),
(661,937,l),
(448,937,l),
(392,847,l),
(626,847,l),
(487,495,l),
(274,495,l),
(224,408,l),
(459,408,l),
(303,5,l)
);
},
{
closed = 1;
nodes = (
(706,847,l),
(954,847,l),
(814,495,l),
(563,495,l)
);
}
);
width = 1028;
},
{
layerId = "E06D8587-1A71-4EC2-BD94-397D882F5FC1";
shapes = (
{
closed = 1;
nodes = (
(274,7,l),
(404,394,l),
(573,394,l),
(445,7,l),
(531,7,l),
(661,394,l),
(824,394,l),
(851,505,l),
(699,505,l),
(806,825,l),
(972,825,l),
(999,935,l),
(844,935,l),
(958,1276,l),
(868,1276,l),
(754,935,l),
(587,935,l),
(701,1276,l),
(611,1276,l),
(498,935,l),
(321,935,l),
(290,825,l),
(460,825,l),
(354,505,l),
(176,505,l),
(149,394,l),
(317,394,l),
(189,7,l)
);
},
{
closed = 1;
nodes = (
(549,825,l),
(717,825,l),
(610,505,l),
(442,505,l)
);
}
);
width = 820;
},
{
layerId = "8F7CDE40-C368-4484-AA71-76B7ABD5539F";
shapes = (
{
closed = 1;
nodes = (
(402,5,l),
(596,408,l),
(893,408,l),
(705,5,l),
(797,5,l),
(989,408,l),
(1216,408,l),
(1275,495,l),
(1025,495,l),
(1196,847,l),
(1440,847,l),
(1495,937,l),
(1240,937,l),
(1418,1304,l),
(1312,1304,l),
(1142,937,l),
(847,937,l),
(1023,1304,l),
(921,1304,l),
(748,937,l),
(491,937,l),
(426,847,l),
(704,847,l),
(538,495,l),
(282,495,l),
(223,408,l),
(503,408,l),
(315,5,l)
);
},
{
closed = 1;
nodes = (
(803,847,l),
(1097,847,l),
(930,495,l),
(632,495,l)
);
}
);
width = 1228;
},
{
layerId = "997BDFA1-EC67-4686-8CFE-E56BDBE179FE";
shapes = (
{
closed = 1;
nodes = (
(338,6,l),
(500,401,l),
(733,401,l),
(575,6,l),
(664,6,l),
(825,401,l),
(1020,401,l),
(1063,500,l),
(862,500,l),
(1001,836,l),
(1206,836,l),
(1247,936,l),
(1042,936,l),
(1188,1290,l),
(1090,1290,l),
(948,936,l),
(717,936,l),
(862,1290,l),
(766,1290,l),
(623,936,l),
(406,936,l),
(358,836,l),
(582,836,l),
(446,500,l),
(229,500,l),
(186,401,l),
(410,401,l),
(252,6,l)
);
},
{
closed = 1;
nodes = (
(676,836,l),
(907,836,l),
(770,500,l),
(537,500,l)
);
}
);
width = 1024;
}
);
unicode = 35;
}
{
glyphname = parenleft;
kernRight = parenleft;
layers = (
{
layerId = master01;
shapes = (
{
closed = 1;
nodes = (
(394,-355,o),
(415,-336,o),
(415,-315,cs),
(415,-304,o),
(413,-294,o),
(408,-287,cs),
(313,-150,o),
(270,-10,o),
(270,188,cs),
(270,627,o),
(498,1150,o),
(911,1464,cs),
(928,1477,o),
(938,1488,o),
(938,1497,cs),
(938,1517,o),
(928,1530,o),
(904,1530,cs),
(890,1530,o),
(877,1525,o),
(864,1516,cs),
(497,1262,o),
(134,740,o),
(134,226,cs),
(134,2,o),
(202,-171,o),
(338,-338,cs),
(346,-348,o),
(356,-355,o),
(369,-355,cs)
);
}
);
width = 676;
},
{
layerId = "2438E31C-45B5-47A7-9B3D-1A0FEFB47671";
shapes = (
{
closed = 1;
nodes = (
(386,-355,o),
(425,-327,o),
(425,-295,cs),
(425,-284,o),
(422,-274,o),
(418,-267,cs),
(344,-136,o),
(310,-3,o),
(310,188,cs),
(310,633,o),
(527,1143,o),
(921,1449,cs),
(938,1462,o),
(948,1473,o),
(948,1482,cs),
(948,1502,o),
(918,1541,o),
(897,1541,cs),
(883,1541,o),
(870,1536,o),
(857,1527,cs),
(470,1266,o),
(84,750,o),
(84,231,cs),
(84,-8,o),
(159,-171,o),
(308,-338,cs),
(317,-348,o),
(326,-355,o),
(339,-355,cs)
);
}
);
width = 692;
},
{
layerId = "7904EAEE-2B64-409E-B923-0048172372BE";
shapes = (
{
closed = 1;
nodes = (
(397,-355,o),
(412,-339,o),
(412,-322,cs),
(412,-311,o),
(410,-301,o),
(405,-294,cs),
(303,-155,o),
(257,-12,o),
(257,188,cs),
(257,625,o),
(488,1152,o),
(908,1469,cs),
(925,1482,o),
(935,1493,o),
(935,1502,cs),
(935,1522,o),
(931,1526,o),
(906,1526,cs),
(892,1526,o),
(879,1521,o),
(866,1512,cs),
(506,1261,o),
(151,737,o),
(151,224,cs),
(151,5,o),
(216,-171,o),
(348,-338,cs),
(356,-348,o),
(366,-355,o),
(379,-355,cs)
);
}
);
width = 671;
},
{
layerId = "E06D8587-1A71-4EC2-BD94-397D882F5FC1";
shapes = (
{
closed = 1;
nodes = (
(315,-355,o),
(332,-336,o),
(332,-315,cs),
(332,-304,o),
(330,-294,o),
(326,-287,cs),
(250,-150,o),
(216,-10,o),
(216,188,cs),
(216,627,o),
(398,1150,o),
(729,1464,cs),
(742,1477,o),
(750,1488,o),
(750,1497,cs),
(750,1517,o),
(742,1530,o),
(723,1530,cs),
(712,1530,o),
(702,1525,o),
(691,1516,cs),
(398,1262,o),
(107,740,o),
(107,226,cs),
(107,2,o),
(162,-171,o),
(270,-338,cs),
(277,-348,o),
(285,-355,o),
(295,-355,cs)
);
}
);
width = 541;
},
{
layerId = "8F7CDE40-C368-4484-AA71-76B7ABD5539F";
shapes = (
{
closed = 1;
nodes = (
(473,-355,o),
(498,-336,o),
(498,-315,cs),
(498,-304,o),
(496,-294,o),
(490,-287,cs),
(376,-150,o),
(324,-10,o),
(324,188,cs),
(324,627,o),
(598,1150,o),
(1093,1464,cs),
(1114,1477,o),
(1126,1488,o),
(1126,1497,cs),
(1126,1517,o),
(1114,1530,o),
(1085,1530,cs),
(1068,1530,o),
(1052,1525,o),
(1037,1516,cs),
(596,1262,o),
(161,740,o),
(161,226,cs),
(161,2,o),
(242,-171,o),
(406,-338,cs),
(415,-348,o),
(427,-355,o),
(443,-355,cs)
);
}
);
width = 811;
},
{
layerId = "997BDFA1-EC67-4686-8CFE-E56BDBE179FE";
shapes = (
{
closed = 1;
nodes = (
(394,-355,o),
(415,-336,o),
(415,-315,cs),
(415,-304,o),
(413,-294,o),
(408,-287,cs),
(313,-150,o),
(270,-10,o),
(270,188,cs),
(270,627,o),
(498,1150,o),
(911,1464,cs),
(928,1477,o),
(938,1488,o),
(938,1497,cs),
(938,1517,o),
(928,1530,o),
(904,1530,cs),
(890,1530,o),
(877,1525,o),
(864,1516,cs),
(497,1262,o),
(134,740,o),
(134,226,cs),
(134,2,o),
(202,-171,o),
(338,-338,cs),
(346,-348,o),
(356,-355,o),
(369,-355,cs)
);
}
);
width = 676;
}
);
unicode = 40;
}
{
glyphname = asterisk;
layers = (
{
layerId = master01;
shapes = (
{
closed = 1;
nodes = (
(365,694,l),
(426,982,l),
(642,841,l),
(691,903,l),
(476,1044,l),
(754,1187,l),
(731,1249,l),
(452,1105,l),
(512,1384,l),
(440,1384,l),
(381,1107,l),
(166,1248,l),
(117,1186,l),
(333,1044,l),
(60,904,l),
(83,842,l),
(354,981,l),
(293,694,l)
);
}
);
width = 807;
},
{
layerId = "2438E31C-45B5-47A7-9B3D-1A0FEFB47671";
shapes = (
{
closed = 1;
nodes = (
(387,641,l),
(446,915,l),
(657,776,l),
(733,872,l),
(522,1012,l),
(793,1151,l),
(758,1247,l),
(487,1108,l),
(547,1384,l),
(436,1384,l),
(377,1108,l),
(170,1243,l),
(94,1147,l),
(301,1012,l),
(35,874,l),
(70,778,l),
(336,915,l),
(276,641,l)
);
}
);
width = 827;
},
{
layerId = "7904EAEE-2B64-409E-B923-0048172372BE";
shapes = (
{
closed = 1;
nodes = (
(358,712,l),
(419,1004,l),
(637,863,l),
(677,913,l),
(461,1055,l),
(741,1199,l),
(722,1250,l),
(440,1104,l),
(500,1384,l),
(441,1384,l),
(382,1107,l),
(165,1250,l),
(125,1199,l),
(344,1055,l),
(68,914,l),
(87,863,l),
(360,1003,l),
(299,712,l)
);
}
);
width = 800;
},
{
layerId = "E06D8587-1A71-4EC2-BD94-397D882F5FC1";
shapes = (
{
closed = 1;
nodes = (
(305,694,l),
(366,982,l),
(582,841,l),
(631,903,l),
(416,1044,l),
(694,1187,l),
(671,1249,l),
(392,1105,l),
(452,1384,l),
(380,1384,l),
(321,1107,l),
(106,1248,l),
(57,1186,l),
(273,1044,l),
(0,904,l),
(23,842,l),
(294,981,l),
(233,694,l)
);
}
);
width = 667;
},
{
layerId = "8F7CDE40-C368-4484-AA71-76B7ABD5539F";
shapes = (
{
closed = 1;
nodes = (
(430,694,l),
(491,982,l),
(707,841,l),
(756,903,l),
(541,1044,l),
(819,1187,l),
(796,1249,l),
(517,1105,l),
(577,1384,l),
(505,1384,l),
(446,1107,l),
(231,1248,l),
(182,1186,l),
(398,1044,l),
(125,904,l),
(148,842,l),
(419,981,l),
(358,694,l)
);
}
);
width = 947;
},
{
layerId = "997BDFA1-EC67-4686-8CFE-E56BDBE179FE";
shapes = (
{
closed = 1;
nodes = (
(365,694,l),
(426,982,l),
(642,841,l),
(691,903,l),
(476,1044,l),
(754,1187,l),
(731,1249,l),
(452,1105,l),
(512,1384,l),
(440,1384,l),
(381,1107,l),
(166,1248,l),
(117,1186,l),
(333,1044,l),
(60,904,l),
(83,842,l),
(354,981,l),
(293,694,l)
);
}
);
width = 807;
}
);
unicode = 42;
}
{
glyphname = plus;
layers = (
{
layerId = master01;
shapes = (
{
closed = 1;
nodes = (
(573,0,l),
(573,371,l),
(907,371,l),
(907,471,l),
(573,471,l),
(573,807,l),
(453,807,l),
(453,471,l),
(119,471,l),
(119,371,l),
(453,371,l),
(453,0,l)
);
}
);
width = 1024;
},
{
layerId = "2438E31C-45B5-47A7-9B3D-1A0FEFB47671";
shapes = (
{
closed = 1;
nodes = (
(625,0,l),
(625,362,l),
(944,362,l),
(944,510,l),
(625,510,l),
(625,836,l),
(444,836,l),
(444,510,l),
(123,510,l),
(123,362,l),
(444,362,l),
(444,0,l)
);
}
);
width = 1062;
},
{
layerId = "7904EAEE-2B64-409E-B923-0048172372BE";
shapes = (
{
closed = 1;
nodes = (
(556,0,l),
(556,374,l),
(895,374,l),
(895,458,l),
(556,458,l),
(556,797,l),
(456,797,l),
(456,458,l),
(118,458,l),
(118,374,l),
(456,374,l),
(456,0,l)
);
}
);
width = 1011;
},
{
layerId = "E06D8587-1A71-4EC2-BD94-397D882F5FC1";
shapes = (
{
closed = 1;
nodes = (
(474,0,l),
(474,368,l),
(737,368,l),
(737,484,l),
(474,484,l),
(474,817,l),
(358,817,l),
(358,484,l),
(95,484,l),
(95,368,l),
(358,368,l),
(358,0,l)
);
}
);
width = 830;
},
{
layerId = "8F7CDE40-C368-4484-AA71-76B7ABD5539F";
shapes = (
{
closed = 1;
nodes = (
(672,0,l),
(672,374,l),
(1077,374,l),
(1077,458,l),
(672,458,l),
(672,797,l),
(548,797,l),
(548,458,l),
(143,458,l),
(143,374,l),
(548,374,l),
(548,0,l)
);
}
);
width = 1218;
},
{
layerId = "997BDFA1-EC67-4686-8CFE-E56BDBE179FE";
shapes = (
{
closed = 1;
nodes = (
(573,0,l),
(573,371,l),
(907,371,l),
(907,471,l),
(573,471,l),
(573,807,l),
(453,807,l),
(453,471,l),
(119,471,l),
(119,371,l),
(453,371,l),
(453,0,l)
);
}
);
width = 1024;
}
);
unicode = 43;
}
{
glyphname = period;
kernLeft = comma;
layers = (
{
layerId = master01;
shapes = (
{
closed = 1;
nodes = (
(266,-25,o),
(315,18,o),
(315,86,cs),
(315,153,o),
(276,211,o),
(196,211,cs),
(121,211,o),
(72,156,o),
(72,92,cs),
(72,32,o),
(117,-25,o),
(191,-25,cs)
);
}
);
width = 520;
},
{
layerId = "2438E31C-45B5-47A7-9B3D-1A0FEFB47671";
shapes = (
{
closed = 1;
nodes = (
(337,-27,o),
(406,31,o),
(406,119,cs),
(406,209,o),
(338,279,o),
(256,279,cs),
(155,279,o),
(92,215,o),
(92,133,cs),
(92,27,o),
(163,-27,o),
(256,-27,cs)
);
}
);
width = 555;
},
{
layerId = "7904EAEE-2B64-409E-B923-0048172372BE";
shapes = (
{
closed = 1;
nodes = (
(242,-24,o),
(285,14,o),
(285,75,cs),
(285,134,o),
(255,188,o),
(176,188,cs),
(110,188,o),
(65,136,o),
(65,78,cs),
(65,34,o),
(102,-24,o),
(169,-24,cs)
);
}
);
width = 508;
},
{
layerId = "E06D8587-1A71-4EC2-BD94-397D882F5FC1";
shapes = (
{
closed = 1;
nodes = (
(239,-25,o),
(288,18,o),
(288,86,cs),
(288,153,o),
(249,211,o),
(169,211,cs),
(94,211,o),
(45,156,o),
(45,92,cs),
(45,32,o),
(90,-25,o),
(164,-25,cs)
);
}
);
width = 440;
},
{
layerId = "8F7CDE40-C368-4484-AA71-76B7ABD5539F";
shapes = (
{
closed = 1;
nodes = (
(293,-25,o),
(342,18,o),
(342,86,cs),
(342,153,o),
(303,211,o),
(223,211,cs),
(148,211,o),
(99,156,o),
(99,92,cs),
(99,32,o),
(144,-25,o),
(218,-25,cs)
);
}
);
width = 600;
},
{
layerId = "997BDFA1-EC67-4686-8CFE-E56BDBE179FE";
shapes = (
{
closed = 1;
nodes = (
(266,-25,o),
(315,18,o),
(315,86,cs),
(315,153,o),
(276,211,o),
(196,211,cs),
(121,211,o),
(72,156,o),
(72,92,cs),
(72,32,o),
(117,-25,o),
(191,-25,cs)
);
}
);
width = 520;
}
);
unicode = 46;
}
{
glyphname = two;
layers = (
{
layerId = master01;
shapes = (
{
closed = 1;
nodes = (
(54,-4,o),
(168,0,o),
(270,0,cs),
(389,0,o),
(551,-3,o),
(645,-8,c),
(670,-8,o),
(690,3,o),
(706,25,cs),
(865,246,l),
(865,261,o),
(857,267,o),
(841,267,cs),
(824,267,o),
(815,265,o),
(812,260,cs),
(766,182,o),
(662,137,o),
(510,137,cs),
(213,137,ls),
(195,137,o),
(186,141,o),
(186,149,cs),
(186,156,o),
(194,167,o),
(209,180,cs),
(579,501,o),
(812,704,o),
(891,807,cs),
(970,909,o),
(1009,1007,o),
(1009,1102,cs),
(1009,1240,o),
(921,1333,o),
(779,1333,cs),
(595,1333,o),
(423,1199,o),
(313,1054,cs),
(312,1053,o),
(311,1051,o),
(311,1048,cs),
(311,1041,o),
(334,1019,o),
(347,1019,cs),
(353,1019,o),
(359,1021,o),
(362,1024,cs),
(461,1145,o),
(560,1206,o),
(657,1206,cs),
(754,1206,o),
(818,1154,o),
(818,1048,cs),
(818,883,o),
(610,655,o),
(425,473,cs),
(296,346,o),
(140,199,o),
(-53,49,cs),
(-62,42,o),
(-67,33,o),
(-67,22,cs),
(-67,2,o),
(-56,-8,o),
(-33,-8,c)
);
}
);
width = 956;
},
{
layerId = "2438E31C-45B5-47A7-9B3D-1A0FEFB47671";
shapes = (
{
closed = 1;
nodes = (
(83,-4,o),
(213,0,o),
(311,0,cs),
(432,0,o),
(584,-3,o),
(635,-8,c),
(676,-8,o),
(707,5,o),
(725,31,cs),
(889,266,l),
(889,289,o),
(853,302,o),
(831,302,cs),
(820,302,o),
(812,298,o),
(807,291,cs),
(745,201,o),
(673,193,o),
(545,193,cs),
(336,193,ls),
(308,193,o),
(294,201,o),
(294,213,cs),
(294,222,o),
(302,233,o),
(319,247,cs),
(554,430,o),
(799,631,o),
(918,789,cs),
(982,875,o),
(1040,957,o),
(1040,1087,cs),
(1040,1241,o),
(933,1333,o),
(772,1333,cs),
(590,1333,o),
(427,1203,o),
(309,1055,cs),
(305,1051,o),
(303,1046,o),
(303,1042,cs),
(303,1025,o),
(334,1010,o),
(345,1010,cs),
(353,1010,o),
(359,1013,o),
(365,1020,cs),
(458,1129,o),
(553,1184,o),
(651,1184,cs),
(738,1184,o),
(778,1128,o),
(778,1049,cs),
(778,878,o),
(509,587,o),
(404,480,cs),
(233,305,o),
(137,226,o),
(-43,80,cs),
(-65,62,o),
(-76,44,o),
(-76,27,cs),
(-76,4,o),
(-60,-8,o),
(-33,-8,c)
);
}
);
width = 954;
},
{
layerId = "7904EAEE-2B64-409E-B923-0048172372BE";
shapes = (
{
closed = 1;
nodes = (
(44,-4,o),
(153,0,o),
(256,0,cs),
(375,0,o),
(540,-3,o),
(648,-8,c),
(668,-8,o),
(684,2,o),
(700,23,cs),
(857,239,l),
(857,252,o),
(850,255,o),
(838,255,cs),
(825,255,o),
(816,254,o),
(814,250,cs),
(773,176,o),
(658,118,o),
(498,118,cs),
(172,118,ls),
(157,118,o),
(150,121,o),
(150,128,cs),
(150,134,o),
(158,145,o),
(172,158,cs),
(587,525,o),
(816,728,o),
(882,813,cs),
(966,920,o),
(999,1024,o),
(999,1107,cs),
(999,1240,o),
(917,1333,o),
(781,1333,cs),
(597,1333,o),
(422,1198,o),
(314,1054,cs),
(313,1052,o),
(313,1051,o),
(313,1050,cs),
(313,1046,o),
(334,1022,o),
(348,1022,cs),
(353,1022,o),
(359,1024,o),
(361,1025,cs),
(462,1150,o),
(562,1213,o),
(659,1213,cs),
(759,1213,o),
(831,1163,o),
(831,1048,cs),
(831,885,o),
(645,677,o),
(432,471,cs),
(317,360,o),
(140,190,o),
(-56,39,cs),
(-61,35,o),
(-64,29,o),
(-64,20,cs),
(-64,1,o),
(-55,-8,o),
(-33,-8,c)
);
}
);
width = 957;
},
{
layerId = "E06D8587-1A71-4EC2-BD94-397D882F5FC1";
shapes = (
{
closed = 1;
nodes = (
(56,-4,o),
(152,0,o),
(233,0,cs),
(329,0,o),
(455,-3,o),
(516,-8,c),
(541,-8,o),
(561,4,o),
(574,27,cs),
(703,253,l),
(703,270,o),
(689,279,o),
(673,279,cs),
(661,279,o),
(654,276,o),
(651,270,cs),
(609,188,o),
(536,156,o),
(423,156,cs),
(214,156,ls),
(197,156,o),
(188,161,o),
(188,170,cs),
(188,178,o),
(194,189,o),
(208,204,cs),
(458,477,o),
(651,682,o),
(725,802,cs),
(781,893,o),
(820,988,o),
(820,1097,cs),
(820,1240,o),
(744,1333,o),
(624,1333,cs),
(478,1333,o),
(342,1200,o),
(252,1055,cs),
(251,1053,o),
(249,1049,o),
(249,1046,cs),
(249,1036,o),
(270,1016,o),
(280,1016,cs),
(285,1016,o),
(290,1018,o),
(294,1023,cs),
(374,1143,o),
(450,1199,o),
(527,1199,cs),
(601,1199,o),
(644,1144,o),
(644,1048,cs),
(644,880,o),
(451,622,o),
(336,477,cs),
(219,330,o),
(114,208,o),
(-36,60,cs),
(-47,49,o),
(-54,37,o),
(-54,24,cs),
(-54,3,o),
(-43,-8,o),
(-23,-8,c)
);
}
);
width = 778;
},
{
layerId = "8F7CDE40-C368-4484-AA71-76B7ABD5539F";
shapes = (
{
closed = 1;
nodes = (
(52,-4,o),
(184,0,o),
(307,0,cs),
(449,0,o),
(647,-3,o),
(774,-8,c),
(799,-8,o),
(819,2,o),
(838,23,cs),
(1027,239,l),
(1027,252,o),
(1025,255,o),
(1009,255,cs),
(987,255,o),
(976,254,o),
(973,250,cs),
(923,176,o),
(788,118,o),
(597,118,cs),
(212,118,ls),
(193,118,o),
(184,121,o),
(184,128,cs),
(184,134,o),
(194,145,o),
(210,156,cs),
(700,525,o),
(973,726,o),
(1057,812,cs),
(1159,925,o),
(1198,1026,o),
(1198,1107,cs),
(1198,1240,o),
(1098,1333,o),
(934,1333,cs),
(712,1333,o),
(504,1198,o),
(374,1053,cs),
(373,1053,o),
(373,1053,o),
(373,1050,cs),
(373,1046,o),
(398,1022,o),
(414,1022,cs),
(421,1022,o),
(428,1024,o),
(430,1025,cs),
(548,1147,o),
(670,1213,o),
(787,1213,cs),
(907,1213,o),
(992,1164,o),
(992,1048,cs),
(992,886,o),
(769,688,o),
(514,469,cs),
(373,362,o),
(166,190,o),
(-70,38,cs),
(-77,35,o),
(-80,29,o),
(-80,20,cs),
(-80,1,o),
(-69,-8,o),
(-43,-8,c)
);
}
);
width = 1134;
},
{
layerId = "997BDFA1-EC67-4686-8CFE-E56BDBE179FE";
shapes = (
{
closed = 1;
nodes = (
(54,-4,o),
(168,0,o),
(270,0,cs),
(389,0,o),
(551,-3,o),
(645,-8,c),
(670,-8,o),
(690,3,o),
(706,25,cs),
(865,246,l),
(865,261,o),
(857,267,o),
(841,267,cs),
(824,267,o),
(815,265,o),
(812,260,cs),
(766,182,o),
(662,137,o),
(510,137,cs),
(213,137,ls),
(195,137,o),
(186,141,o),
(186,149,cs),
(186,156,o),
(194,167,o),
(209,180,cs),
(579,501,o),
(812,704,o),
(891,807,cs),
(970,909,o),
(1009,1007,o),
(1009,1102,cs),
(1009,1240,o),
(921,1333,o),
(779,1333,cs),
(595,1333,o),
(423,1199,o),
(313,1054,cs),
(312,1053,o),
(311,1051,o),
(311,1048,cs),
(311,1041,o),
(334,1019,o),
(347,1019,cs),
(353,1019,o),
(359,1021,o),
(362,1024,cs),
(461,1145,o),
(560,1206,o),
(657,1206,cs),
(754,1206,o),
(818,1154,o),
(818,1048,cs),
(818,883,o),
(610,655,o),
(425,473,cs),
(296,346,o),
(140,199,o),
(-53,49,cs),
(-62,42,o),
(-67,33,o),
(-67,22,cs),
(-67,2,o),
(-56,-8,o),
(-33,-8,c)
);
}
);
width = 956;
}
);
unicode = 50;
}
{
glyphname = four;
layers = (
{
layerId = master01;
shapes = (
{
closed = 1;
nodes = (
(393,-3,o),
(464,0,o),
(551,0,cs),
(638,0,o),
(709,-3,o),
(766,-8,c),
(783,-8,o),
(791,16,o),
(791,34,cs),
(791,44,o),
(788,49,o),
(781,49,cs),
(714,49,o),
(680,68,o),
(680,106,cs),
(680,113,o),
(681,120,o),
(683,127,cs),
(749,371,ls),
(752,384,o),
(761,391,o),
(774,391,cs),
(893,391,ls),
(905,391,o),
(924,427,o),
(924,454,cs),
(924,469,o),
(921,477,o),
(916,477,cs),
(798,477,ls),
(784,477,o),
(779,484,o),
(783,498,cs),
(902,942,ls),
(905,952,o),
(877,957,o),
(827,957,cs),
(777,957,o),
(751,952,o),
(748,942,cs),
(629,498,ls),
(625,484,o),
(616,477,o),
(603,477,cs),
(214,477,ls),
(199,477,o),
(191,480,o),
(191,487,cs),
(191,493,o),
(196,501,o),
(205,510,c),
(1093,1410,l),
(1093,1426,o),
(1080,1437,o),
(1054,1437,cs),
(1027,1437,o),
(1008,1434,o),
(1000,1425,cs),
(859,1267,o),
(664,1067,o),
(418,821,cs),
(116,520,ls),
(68,472,o),
(44,439,o),
(44,420,cs),
(44,401,o),
(64,391,o),
(103,391,cs),
(580,391,ls),
(593,391,o),
(598,384,o),
(595,371,cs),
(530,127,ls),
(516,75,o),
(456,49,o),
(351,49,cs),
(336,49,o),
(326,25,o),
(326,8,cs),
(326,-3,o),
(329,-8,o),
(336,-8,c)
);
}
);
width = 956;
},
{
layerId = "2438E31C-45B5-47A7-9B3D-1A0FEFB47671";
shapes = (
{
closed = 1;
nodes = (
(370,-3,o),
(448,0,o),
(551,0,cs),
(653,0,o),
(731,-3,o),
(786,-8,c),
(805,-8,o),
(817,37,o),
(817,54,cs),
(817,63,o),
(814,68,o),
(807,68,cs),
(747,68,o),
(721,79,o),
(721,117,cs),
(721,128,o),
(723,141,o),
(727,156,cs),
(781,353,ls),
(784,364,o),
(794,371,o),
(805,371,cs),
(909,371,ls),
(931,371,o),
(950,467,o),
(950,489,cs),
(950,499,o),
(948,504,o),
(944,504,cs),
(837,504,ls),
(827,504,o),
(823,511,o),
(825,520,cs),
(928,903,ls),
(932,918,o),
(896,926,o),
(820,926,cs),
(744,926,o),
(704,918,o),
(700,903,cs),
(599,522,ls),
(596,510,o),
(586,504,o),
(575,504,cs),
(238,504,ls),
(227,504,o),
(222,508,o),
(222,515,cs),
(222,523,o),
(228,533,o),
(240,545,cs),
(1079,1375,l),
(1079,1415,o),
(1032,1432,o),
(1010,1432,cs),
(993,1432,o),
(974,1428,o),
(961,1413,cs),
(842,1275,o),
(690,1115,o),
(504,934,cs),
(111,551,ls),
(52,494,o),
(23,448,o),
(23,414,cs),
(23,384,o),
(46,371,o),
(94,371,cs),
(543,371,ls),
(553,371,o),
(558,364,o),
(555,355,cs),
(500,156,ls),
(481,85,o),
(426,68,o),
(336,68,cs),
(317,68,o),
(305,23,o),
(305,7,cs),
(305,-3,o),
(308,-8,o),
(315,-8,c)
);
}
);
width = 954;
},
{
layerId = "7904EAEE-2B64-409E-B923-0048172372BE";
shapes = (
{
closed = 1;
nodes = (
(401,-3,o),
(469,0,o),
(551,0,cs),
(633,0,o),
(702,-3,o),
(759,-8,c),
(776,-8,o),
(782,9,o),
(782,27,cs),
(782,38,o),
(779,43,o),
(772,43,cs),
(703,43,o),
(666,64,o),
(666,102,cs),
(666,108,o),
(667,113,o),
(668,117,cs),
(738,377,ls),
(741,391,o),
(750,398,o),
(764,398,cs),
(888,398,ls),
(896,398,o),
(915,414,o),
(915,442,cs),
(915,459,o),
(912,468,o),
(907,468,cs),
(785,468,ls),
(770,468,o),
(764,475,o),
(769,491,cs),
(893,955,ls),
(895,963,o),
(871,967,o),
(829,967,cs),
(788,967,o),
(766,963,o),
(764,955,cs),
(639,490,ls),
(635,475,o),
(626,468,o),
(612,468,cs),
(206,468,ls),
(190,468,o),
(181,471,o),
(181,478,cs),
(181,483,o),
(185,490,o),
(193,498,cs),
(1098,1422,l),
(1098,1430,o),
(1096,1439,o),
(1069,1439,cs),
(1038,1439,o),
(1019,1436,o),
(1013,1429,cs),
(865,1264,o),
(655,1051,o),
(389,783,cs),
(118,510,ls),
(73,465,o),
(51,436,o),
(51,422,cs),
(51,407,o),
(70,398,o),
(106,398,cs),
(592,398,ls),
(606,398,o),
(611,391,o),
(608,376,cs),
(540,117,ls),
(528,72,o),
(466,43,o),
(356,43,cs),
(342,43,o),
(333,26,o),
(333,8,cs),
(333,-3,o),
(336,-8,o),
(343,-8,c)
);
}
);
width = 957;
},
{
layerId = "E06D8587-1A71-4EC2-BD94-397D882F5FC1";
shapes = (
{
closed = 1;
nodes = (
(313,-3,o),
(374,0,o),
(448,0,cs),
(522,0,o),
(581,-3,o),
(627,-8,c),
(640,-8,o),
(649,23,o),
(649,41,cs),
(649,49,o),
(646,55,o),
(641,55,cs),
(589,55,o),
(565,72,o),
(565,110,cs),
(565,118,o),
(566,128,o),
(568,137,cs),
(617,365,ls),
(619,376,o),
(626,384,o),
(636,384,cs),
(726,384,ls),
(740,384,o),
(755,442,o),
(755,466,cs),
(755,479,o),
(753,486,o),
(749,486,cs),
(658,486,ls),
(649,486,o),
(644,493,o),
(647,505,cs),
(738,929,ls),
(740,941,o),
(715,947,o),
(667,947,cs),
(618,947,o),
(592,941,o),
(589,929,cs),
(500,506,ls),
(497,493,o),
(490,486,o),
(480,486,cs),
(186,486,ls),
(176,486,o),
(170,489,o),
(170,496,cs),
(170,503,o),
(175,512,o),
(183,522,c),
(876,1398,l),
(876,1422,o),
(855,1435,o),
(835,1435,cs),
(818,1435,o),
(802,1432,o),
(794,1421,cs),
(690,1272,o),
(549,1081,o),
(368,860,cs),
(98,530,ls),
(56,479,o),
(35,441,o),
(35,418,cs),
(35,395,o),
(52,384,o),
(86,384,cs),
(459,384,ls),
(468,384,o),
(472,377,o),
(470,366,cs),
(421,137,ls),
(409,81,o),
(366,55,o),
(283,55,cs),
(270,55,o),
(261,25,o),
(261,8,cs),
(261,-3,o),
(263,-8,o),
(269,-8,c)
);
}
);
width = 767;
},
{
layerId = "8F7CDE40-C368-4484-AA71-76B7ABD5539F";
shapes = (
{
closed = 1;
nodes = (
(473,-3,o),
(554,0,o),
(654,0,cs),
(754,0,o),
(837,-3,o),
(905,-8,c),
(926,-8,o),
(933,9,o),
(933,27,cs),
(933,39,o),
(930,43,o),
(921,43,cs),
(839,43,o),
(795,64,o),
(795,102,cs),
(795,108,o),
(796,112,o),
(798,117,cs),
(881,377,ls),
(885,392,o),
(896,398,o),
(912,398,cs),
(1060,398,ls),
(1070,398,o),
(1093,412,o),
(1093,442,cs),
(1093,459,o),
(1089,468,o),
(1083,468,cs),
(938,468,ls),
(919,468,o),
(914,475,o),
(919,491,cs),
(1066,955,ls),
(1070,963,o),
(1039,967,o),
(987,967,cs),
(936,967,o),
(910,963,o),
(907,955,cs),
(758,490,ls),
(753,475,o),
(742,468,o),
(726,468,cs),
(242,468,ls),
(222,468,o),
(212,471,o),
(212,478,cs),
(212,483,o),
(217,490,o),
(227,498,c),
(1310,1422,l),
(1310,1430,o),
(1305,1439,o),
(1273,1439,cs),
(1236,1439,o),
(1214,1436,o),
(1206,1429,cs),
(1028,1262,o),
(779,1053,o),
(468,782,cs),
(134,510,ls),
(80,465,o),
(53,437,o),
(53,422,cs),
(53,407,o),
(76,398,o),
(120,398,cs),
(701,398,ls),
(718,398,o),
(724,391,o),
(720,376,cs),
(639,117,ls),
(623,69,o),
(546,43,o),
(419,43,cs),
(402,43,o),
(391,25,o),
(391,8,cs),
(391,-3,o),
(395,-8,o),
(403,-8,c)
);
}
);
width = 1145;
},
{
layerId = "997BDFA1-EC67-4686-8CFE-E56BDBE179FE";
shapes = (
{
closed = 1;
nodes = (
(393,-3,o),
(464,0,o),
(551,0,cs),
(638,0,o),
(709,-3,o),
(766,-8,c),
(783,-8,o),
(791,16,o),
(791,34,cs),
(791,44,o),
(788,49,o),
(781,49,cs),
(714,49,o),
(680,68,o),
(680,106,cs),
(680,113,o),
(681,120,o),
(683,127,cs),
(749,371,ls),
(752,384,o),
(761,391,o),
(774,391,cs),
(893,391,ls),
(905,391,o),
(924,427,o),
(924,454,cs),
(924,469,o),
(921,477,o),
(916,477,cs),
(798,477,ls),
(784,477,o),
(779,484,o),
(783,498,cs),
(902,942,ls),
(905,952,o),
(877,957,o),
(827,957,cs),
(777,957,o),
(751,952,o),
(748,942,cs),
(629,498,ls),
(625,484,o),
(616,477,o),
(603,477,cs),
(214,477,ls),
(199,477,o),
(191,480,o),
(191,487,cs),
(191,493,o),
(196,501,o),
(205,510,c),
(1093,1410,l),
(1093,1426,o),
(1080,1437,o),
(1054,1437,cs),
(1027,1437,o),
(1008,1434,o),
(1000,1425,cs),
(859,1267,o),
(664,1067,o),
(418,821,cs),
(116,520,ls),
(68,472,o),
(44,439,o),
(44,420,cs),
(44,401,o),
(64,391,o),
(103,391,cs),
(580,391,ls),
(593,391,o),
(598,384,o),
(595,371,cs),
(530,127,ls),
(516,75,o),
(456,49,o),
(351,49,cs),
(336,49,o),
(326,25,o),
(326,8,cs),
(326,-3,o),
(329,-8,o),
(336,-8,c)
);
}
);
width = 956;
}
);
unicode = 52;
}
{
glyphname = nine;
layers = (
{
layerId = master01;
shapes = (
{
closed = 1;
nodes = (
(629,191,o),
(1028,624,o),
(1028,1037,cs),
(1028,1215,o),
(933,1333,o),
(750,1333,cs),
(488,1333,o),
(240,1081,o),
(240,790,cs),
(240,661,o),
(339,551,o),
(480,551,cs),
(569.333,551,o),
(668,596,o),
(776,686,c),
(634,377,o),
(438,196,o),
(105,27,cs),
(99,23.667,o),
(96.333,13.667,o),
(97,-3,cs),
(98,-29,o),
(110,-35,o),
(122,-35,c)
);
},
{
closed = 1;
nodes = (
(468,662,o),
(413,749,o),
(413,871,cs),
(413,1037,o),
(533,1251,o),
(706,1251,cs),
(813.333,1251,o),
(867,1185,o),
(867,1053,cs),
(867,961,o),
(847.667,868,o),
(809,774,c),
(727.667,699.333,o),
(650,662,o),
(576,662,cs)
);
}
);
width = 956;
},
{
layerId = "2438E31C-45B5-47A7-9B3D-1A0FEFB47671";
shapes = (
{
closed = 1;
nodes = (
(582,154,o),
(1061,558,o),
(1061,1014,cs),
(1061,1203,o),
(962,1333,o),
(758,1333,cs),
(423,1333,o),
(201,1025,o),
(201,797,cs),
(201,644,o),
(308,535,o),
(477,535,cs),
(547,535,o),
(655,584,o),
(711,627,c),
(547,338,o),
(397,187,o),
(102,43,cs),
(94,39,o),
(90,29.167,o),
(90,13.5,cs),
(90,-23,o),
(105,-41,o),
(123,-41,c)
);
},
{
closed = 1;
nodes = (
(488,674,o),
(446,766,o),
(446,860,cs),
(446,1010,o),
(546,1227,o),
(700,1227,cs),
(789.333,1227,o),
(834,1172.33,o),
(834,1063,cs),
(834,968,o),
(800,817,o),
(756,733,c),
(702.667,693.667,o),
(644,674,o),
(580,674,cs)
);
}
);
width = 954;
},
{
layerId = "7904EAEE-2B64-409E-B923-0048172372BE";
shapes = (
{
closed = 1;
nodes = (
(672,183,o),
(1017,646,o),
(1017,1045,cs),
(1017,1219,o),
(923,1333,o),
(747,1333,cs),
(510,1333,o),
(253,1100,o),
(253,788,cs),
(253,667,o),
(349,556,o),
(481,556,cs),
(577,556,o),
(672,600,o),
(798,706,c),
(663,390,o),
(452,199,o),
(106,22,cs),
(101,19,o),
(98,9,o),
(99,-9,cs),
(101,-31,o),
(112,-33,o),
(122,-33,c)
);
},
{
closed = 1;
nodes = (
(461,658,o),
(402,743,o),
(402,875,cs),
(402,1046,o),
(529,1259,o),
(708,1259,cs),
(821,1259,o),
(878,1189,o),
(878,1050,cs),
(878,959,o),
(864,885,o),
(827,788,c),
(736,701,o),
(652,658,o),
(575,658,cs)
);
}
);
width = 957;
},
{
layerId = "E06D8587-1A71-4EC2-BD94-397D882F5FC1";
shapes = (
{
closed = 1;
nodes = (
(486,181,o),
(835,602,o),
(835,1029,cs),
(835,1211,o),
(758,1333,o),
(605,1333,cs),
(371,1333,o),
(181,1062,o),
(181,792,cs),
(181,656,o),
(263,546,o),
(385,546,cs),
(449,546,o),
(532,592,o),
(602,666,c),
(481,365,o),
(339,193,o),
(86,33,cs),
(80,29,o),
(78,22,o),
(78,3,cs),
(78,-27,o),
(89,-37,o),
(101,-37,c)
);
},
{
closed = 1;
nodes = (
(383,666,o),
(343,755,o),
(343,867,cs),
(343,1028,o),
(433,1243,o),
(565,1243,cs),
(645,1243,o),
(685,1181,o),
(685,1056,cs),
(685,961,o),
(664,851,o),
(632,760,c),
(576,697,o),
(519,666,o),
(465,666,cs)
);
}
);
width = 778;
},
{
layerId = "8F7CDE40-C368-4484-AA71-76B7ABD5539F";
shapes = (
{
closed = 1;
nodes = (
(772,201,o),
(1221,646,o),
(1221,1045,cs),
(1221,1219,o),
(1108,1333,o),
(895,1333,cs),
(605,1333,o),
(299,1100,o),
(299,788,cs),
(299,666,o),
(415,556,o),
(575,556,cs),
(690,556,o),
(804,600,o),
(950,706,c),
(787,389,o),
(537,199,o),
(124,21,cs),
(118,18,o),
(115,5,o),
(116,-9,cs),
(118,-31,o),
(131,-33,o),
(143,-33,c)
);
},
{
closed = 1;
nodes = (
(553,658,o),
(483,743,o),
(483,875,cs),
(483,1046,o),
(633,1259,o),
(847,1259,cs),
(982,1259,o),
(1049,1189,o),
(1049,1050,cs),
(1049,961,o),
(1031,885,o),
(986,788,c),
(879,702,o),
(781,658,o),
(687,658,cs)
);
}
);
width = 1134;
},
{
layerId = "997BDFA1-EC67-4686-8CFE-E56BDBE179FE";
shapes = (
{
closed = 1;
nodes = (
(629,191,o),
(1028,624,o),
(1028,1037,cs),
(1028,1215,o),
(933,1333,o),
(750,1333,cs),
(488,1333,o),
(240,1081,o),
(240,790,cs),
(240,661,o),
(339,551,o),
(480,551,cs),
(569.333,551,o),
(668,596,o),
(776,686,c),
(634,377,o),
(438,196,o),
(105,27,cs),
(99,23.667,o),
(96.333,13.667,o),
(97,-3,cs),
(98,-29,o),
(110,-35,o),
(122,-35,c)
);
},
{
closed = 1;
nodes = (
(468,662,o),
(413,749,o),
(413,871,cs),
(413,1037,o),
(533,1251,o),
(706,1251,cs),
(813.333,1251,o),
(867,1185,o),
(867,1053,cs),
(867,961,o),
(847.667,868,o),
(809,774,c),
(727.667,699.333,o),
(650,662,o),
(576,662,cs)
);
}
);
width = 956;
}
);
unicode = 57;
}
{
glyphname = greater;
layers = (
{
layerId = master01;
shapes = (
{
closed = 1;
nodes = (
(909,375,l),
(909,467,l),
(113,846,l),
(113,727,l),
(813,400,l),
(813,444,l),
(113,115,l),
(113,-2,l)
);
}
);
width = 1024;
},
{
layerId = "2438E31C-45B5-47A7-9B3D-1A0FEFB47671";
shapes = (
{
closed = 1;
nodes = (
(946,356,l),
(946,485,l),
(76,866,l),
(76,682,l),
(721,404,l),
(721,440,l),
(76,162,l),
(76,-23,l)
);
}
);
width = 1024;
},
{
layerId = "7904EAEE-2B64-409E-B923-0048172372BE";
shapes = (
{
closed = 1;
nodes = (
(897,381,l),
(897,461,l),
(125,839,l),
(125,742,l),
(844,399,l),
(844,445,l),
(125,99,l),
(125,5,l)
);
}
);
width = 1024;
},
{
layerId = "E06D8587-1A71-4EC2-BD94-397D882F5FC1";
shapes = (
{
closed = 1;
nodes = (
(752,369,l),
(752,473,l),
(90,853,l),
(90,712,l),
(633,401,l),
(632,443,l),
(90,131,l),
(90,-9,l)
);
}
);
width = 844;
},
{
layerId = "8F7CDE40-C368-4484-AA71-76B7ABD5539F";
shapes = (
{
closed = 1;
nodes = (
(1066,381,l),
(1066,461,l),
(136,839,l),
(136,742,l),
(993,399,l),
(994,445,l),
(136,99,l),
(136,5,l)
);
}
);
width = 1204;
},
{
layerId = "997BDFA1-EC67-4686-8CFE-E56BDBE179FE";
shapes = (
{
closed = 1;
nodes = (
(909,375,l),
(909,467,l),
(113,846,l),
(113,727,l),
(813,400,l),
(813,444,l),
(113,115,l),
(113,-2,l)
);
}
);
width = 1024;
}
);
unicode = 62;
}
{
glyphname = B;
kernLeft = B;
kernRight = B;
layers = (
{
anchors = (
{
name = bottom;
pos = (485,0);
},
{
name = top;
pos = (750,1363);
},
{
name = zzcurly;
pos = (684,1341);
}
);
guides = (
{
pos = (894,638);
showMeasurement = 1;
}
);
hints = (
{
horizontal = 1;
options = 4;
origin = (0,2);
target = (0,29);
type = TTStem;
},
{
horizontal = 1;
options = 4;
origin = (0,29);
target = (1,13);
type = TTShift;
},
{
horizontal = 1;
options = 4;
origin = (0,19);
target = (0,22);
type = TTStem;
},
{
horizontal = 1;
options = 4;
origin = (0,22);
target = (2,3);
type = TTShift;
},
{
horizontal = 1;
options = 4;
origin = (0,2);
other1 = (2,9);
target = (0,19);
type = TTInterpolate;
},
{
horizontal = 1;
options = 4;
origin = (2,9);
target = (1,7);
type = TTStem;
},
{
horizontal = 1;
options = 4;
origin = (2,9);
other1 = (0,11);
target = (1,7);
type = TTInterpolate;
}
);
layerId = master01;
shapes = (
{
closed = 1;
nodes = (
(74,-2,o),
(161,0,o),
(247,0,cs),
(334,0,o),
(422,-7,o),
(509,-7,cs),
(863,-7,o),
(1118,117,o),
(1118,393,cs),
(1118,562,o),
(1023,660,o),
(850,730,c),
(851,736,l),
(1077,762,o),
(1218,876,o),
(1218,1100,cs),
(1218,1269,o),
(1068,1363,o),
(865,1363,cs),
(371,1363,ls),
(353,1363,o),
(333,1287,o),
(351,1287,cs),
(530,1287,o),
(528,1247,o),
(508,1177,cs),
(223,186,ls),
(201,108,o),
(180,69,o),
(8,69,cs),
(-10,69,o),
(-30,-7,o),
(-12,-7,c)
);
},
{
closed = 1;
nodes = (
(419,57,o),
(372,94,o),
(372,167,cs),
(372,192,o),
(379,229,o),
(393,277,cs),
(514,700,l),
(624,700,ls),
(823,700,o),
(966,615,o),
(966,425,cs),
(966,177,o),
(771,57,o),
(513,57,cs)
);
},
{
closed = 1;
nodes = (
(671,1246,ls),
(683,1288,o),
(707,1310,o),
(739,1310,cs),
(934,1310,o),
(1078,1253,o),
(1078,1079,cs),
(1078,877,o),
(874,758,o),
(637,758,cs),
(531,758,l)
);
}
);
width = 1194;
},
{
anchors = (
{
name = bottom;
pos = (519,0);
},
{
name = top;
pos = (784,1363);
},
{
name = zzcurly;
pos = (724,1341);
}
);
layerId = "2438E31C-45B5-47A7-9B3D-1A0FEFB47671";
shapes = (
{
closed = 1;
nodes = (
(56,-3,o),
(148,0,o),
(240,0,cs),
(335,0,o),
(430,-6,o),
(525,-6,cs),
(905,-6,o),
(1167,161,o),
(1167,456,cs),
(1167,566,o),
(1104,656,o),
(984,730,c),
(989,749,l),
(1137,812,o),
(1265,936,o),
(1265,1103,cs),
(1265,1274,o),
(1111,1363,o),
(909,1363,cs),
(354,1363,ls),
(336,1363,o),
(309,1269,o),
(327,1269,cs),
(488,1269,o),
(489,1229,o),
(468,1160,cs),
(181,203,ls),
(158,126,o),
(135,86,o),
(-12,86,cs),
(-30,86,o),
(-54,-8,o),
(-36,-8,c)
);
},
{
closed = 1;
nodes = (
(445,74,o),
(412,104,o),
(412,164,cs),
(412,187,o),
(416,208,o),
(422,229,cs),
(561,687,l),
(585,687,ls),
(780,687,o),
(915,647,o),
(915,482,cs),
(915,217,o),
(774,74,o),
(512,74,cs)
);
},
{
closed = 1;
nodes = (
(722,1221,ls),
(735,1263,o),
(758,1285,o),
(790,1285,cs),
(941,1285,o),
(1032,1250,o),
(1032,1099,cs),
(1032,885,o),
(867,765,o),
(643,765,cs),
(584,765,l)
);
}
);
width = 1217;
},
{
anchors = (
{
name = bottom;
pos = (477,0);
},
{
name = top;
pos = (742,1363);
},
{
name = zzcurly;
pos = (648,1341);
}
);
layerId = "7904EAEE-2B64-409E-B923-0048172372BE";
shapes = (
{
closed = 1;
nodes = (
(83,-2,o),
(168,0,o),
(252,0,cs),
(337,0,o),
(422,-7,o),
(507,-7,cs),
(852,-7,o),
(1105,102,o),
(1105,383,cs),
(1105,558,o),
(1003,657,o),
(819,726,c),
(821,733,l),
(1065,749,o),
(1205,879,o),
(1205,1079,cs),
(1205,1287,o),
(1057,1363,o),
(853,1363,cs),
(380,1363,ls),
(362,1363,o),
(344,1293,o),
(362,1293,cs),
(547,1293,o),
(544,1253,o),
(524,1183,cs),
(240,180,ls),
(218,102,o),
(198,63,o),
(18,63,cs),
(0,63,o),
(-19,-7,o),
(-1,-7,c)
);
},
{
closed = 1;
nodes = (
(413,51,o),
(362,91,o),
(362,168,cs),
(362,194,o),
(370,236,o),
(386,293,cs),
(501,704,l),
(640,704,ls),
(840,704,o),
(986,604,o),
(986,406,cs),
(986,164,o),
(773,51,o),
(516,51,cs)
);
},
{
closed = 1;
nodes = (
(657,1254,ls),
(669,1296,o),
(693,1318,o),
(725,1318,cs),
(935,1318,o),
(1096,1254,o),
(1096,1072,cs),
(1096,874,o),
(879,756,o),
(638,756,cs),
(516,756,l)
);
}
);
width = 1189;
},
{
anchors = (
{
name = bottom;
pos = (413,0);
},
{
name = top;
pos = (625,1363);
},
{
name = zzcurly;
pos = (555,1341);
}
);
layerId = "E06D8587-1A71-4EC2-BD94-397D882F5FC1";
shapes = (
{
closed = 1;
nodes = (
(64,-2,o),
(133,0,o),
(202,0,cs),
(277,0,o),
(351,-7,o),
(426,-7,cs),
(717,-7,o),
(925,132,o),
(925,414,cs),
(925,566,o),
(853,653,o),
(735,733,c),
(737,740,l),
(894,777,o),
(1004,894,o),
(1004,1101,cs),
(1004,1270,o),
(883,1363,o),
(720,1363,cs),
(305,1363,ls),
(287,1363,o),
(271,1287,o),
(289,1287,cs),
(425,1287,o),
(425,1247,o),
(409,1178,cs),
(176,186,ls),
(158,109,o),
(139,69,o),
(12,69,cs),
(-6,69,o),
(-23,-7,o),
(-5,-7,c)
);
},
{
closed = 1;
nodes = (
(357,63,o),
(324,98,o),
(324,166,cs),
(324,192,o),
(328,222,o),
(337,261,cs),
(440,696,l),
(500,696,ls),
(657,696,o),
(770,626,o),
(770,444,cs),
(770,190,o),
(631,63,o),
(423,63,cs)
);
},
{
closed = 1;
nodes = (
(569,1238,ls),
(579,1280,o),
(603,1302,o),
(637,1302,cs),
(762,1302,o),
(861,1252,o),
(861,1086,cs),
(861,880,o),
(710,760,o),
(526,760,cs),
(455,760,l)
);
}
);
width = 984;
},
{
anchors = (
{
name = bottom;
pos = (574,0);
},
{
name = top;
pos = (844,1363);
},
{
name = zzcurly;
pos = (727,1341);
}
);
layerId = "8F7CDE40-C368-4484-AA71-76B7ABD5539F";
shapes = (
{
closed = 1;
nodes = (
(101,-2,o),
(206,0,o),
(309,0,cs),
(408,0,o),
(510,-7,o),
(609,-7,cs),
(1020,-7,o),
(1315,99,o),
(1315,360,cs),
(1315,545,o),
(1199,664,o),
(956,727,c),
(956,732,l),
(1250,747,o),
(1411,857,o),
(1411,1082,cs),
(1411,1266,o),
(1231,1363,o),
(979,1363,cs),
(406,1363,ls),
(388,1363,o),
(367,1287,o),
(385,1287,cs),
(617,1287,o),
(603,1240,o),
(583,1176,cs),
(280,186,ls),
(258,114,o),
(245,69,o),
(18,69,cs),
(1,69,o),
(-20,-7,o),
(-2,-7,c)
);
},
{
closed = 1;
nodes = (
(495,51,o),
(431,92,o),
(431,171,cs),
(431,196,o),
(439,236,o),
(456,293,cs),
(580,704,l),
(740,704,ls),
(981,704,o),
(1165,603,o),
(1165,394,cs),
(1165,160,o),
(920,51,o),
(618,51,cs)
);
},
{
closed = 1;
nodes = (
(746,1254,ls),
(759,1296,o),
(781,1318,o),
(812,1318,cs),
(1118,1318,o),
(1274,1232,o),
(1274,1064,cs),
(1274,871,o),
(1024,756,o),
(738,756,cs),
(597,756,l)
);
}
);
width = 1407;
},
{
anchors = (
{
name = bottom;
pos = (457,0);
},
{
name = top;
pos = (722,1363);
},
{
name = zzcurly;
pos = (636,1341);
}
);
layerId = "997BDFA1-EC67-4686-8CFE-E56BDBE179FE";
shapes = (
{
closed = 1;
nodes = (
(46,-2,o),
(133,0,o),
(219,0,cs),
(306,0,o),
(394,-7,o),
(481,-7,cs),
(835,-7,o),
(1090,117,o),
(1090,393,cs),
(1090,562,o),
(995,660,o),
(822,730,c),
(823,736,l),
(1049,762,o),
(1190,876,o),
(1190,1100,cs),
(1190,1269,o),
(1040,1363,o),
(837,1363,cs),
(343,1363,ls),
(325,1363,o),
(305,1287,o),
(323,1287,cs),
(502,1287,o),
(500,1247,o),
(480,1177,cs),
(195,186,ls),
(173,108,o),
(152,69,o),
(-20,69,cs),
(-38,69,o),
(-58,-7,o),
(-40,-7,c)
);
},
{
closed = 1;
nodes = (
(391,57,o),
(344,94,o),
(344,167,cs),
(344,192,o),
(351,229,o),
(365,277,cs),
(486,700,l),
(596,700,ls),
(795,700,o),
(938,615,o),
(938,425,cs),
(938,177,o),
(743,57,o),
(485,57,cs)
);
},
{
closed = 1;
nodes = (
(643,1246,ls),
(655,1288,o),
(679,1310,o),
(711,1310,cs),
(906,1310,o),
(1050,1253,o),
(1050,1079,cs),
(1050,877,o),
(846,758,o),
(609,758,cs),
(503,758,l)
);
}
);
width = 1194;
}
);
metricLeft = I;
metricRight = "=O*0.66";
unicode = 66;
}
{
glyphname = D;
kernLeft = B;
kernRight = D;
layers = (
{
anchors = (
{
name = bottom;
pos = (633,0);
},
{
name = cedilla;
pos = (639,0);
},
{
name = center;
pos = (465,672);
},
{
name = top;
pos = (898,1363);
},
{
name = zzcurly;
pos = (684,1341);
}
);
background = {
shapes = (
{
closed = 1;
nodes = (
(-626,-53,o),
(-444,14,o),
(-268,208,cs),
(-116,376,o),
(-32,585,o),
(-32,803,cs),
(-32,1260,o),
(-398,1393,o),
(-762,1393,c),
(-957,1276,l),
(-560,1276,o),
(-287,1179,o),
(-287,844,cs),
(-287,632,o),
(-326,505,o),
(-437,349,cs),
(-556,183,o),
(-733,107,o),
(-1038,107,c),
(-1039,-53,l)
);
},
{
closed = 1;
nodes = (
(949,-8,o),
(1121,55,o),
(1286,239,cs),
(1429,398,o),
(1508,596,o),
(1508,803,cs),
(1508,1237,o),
(1164,1363,o),
(821,1363,c),
(649,1316,l),
(1073,1316,o),
(1365,1210,o),
(1365,844,cs),
(1365,617,o),
(1325,479,o),
(1205,312,cs),
(1077,134,o),
(888,53,o),
(562,53,c),
(561,-8,l)
);
}
);
};
guides = (
{
pos = (894,638);
showMeasurement = 1;
}
);
hints = (
{
horizontal = 1;
options = 4;
origin = (0,2);
target = (0,25);
type = TTStem;
},
{
horizontal = 1;
options = 4;
origin = (0,15);
target = (0,18);
type = TTStem;
},
{
horizontal = 1;
options = 4;
origin = (0,15);
target = (1,9);
type = TTStem;
},
{
horizontal = 1;
options = 4;
origin = (0,2);
target = (1,18);
type = TTStem;
}
);
layerId = master01;
shapes = (
{
closed = 1;
nodes = (
(74,-2,o),
(159,0,o),
(245,0,cs),
(374,0,o),
(502,-7,o),
(631,-7,cs),
(949,-7,o),
(1121,55,o),
(1286,239,cs),
(1429,398,o),
(1508,586,o),
(1508,803,cs),
(1508,1237,o),
(1167,1363,o),
(821,1363,cs),
(371,1363,ls),
(353,1363,o),
(333,1287,o),
(351,1287,cs),
(501,1287,o),
(533,1264,o),
(508,1177,cs),
(223,186,ls),
(196,93,o),
(152,69,o),
(8,69,cs),
(-10,69,o),
(-30,-7,o),
(-12,-7,c)
);
},
{
closed = 1;
nodes = (
(443,53,o),
(375,94,o),
(375,177,cs),
(375,206,o),
(383,246,o),
(398,298,cs),
(654,1184,ls),
(683,1283,o),
(716,1301,o),
(826,1301,cs),
(1150,1301,o),
(1365,1134,o),
(1365,844,cs),
(1365,617,o),
(1325,479,o),
(1205,312,cs),
(1077,134,o),
(888,53,o),
(580,53,cs)
);
}
);
width = 1510;
},
{
anchors = (
{
name = bottom;
pos = (675,0);
},
{
name = cedilla;
pos = (639,0);
},
{
name = center;
pos = (477,682);
},
{
name = top;
pos = (940,1363);
},
{
name = zzcurly;
pos = (734,1341);
}
);
background = {
shapes = (
{
closed = 1;
nodes = (
(997,-8,o),
(1179,55,o),
(1355,239,cs),
(1507,398,o),
(1591,596,o),
(1591,803,cs),
(1591,1237,o),
(1225,1363,o),
(861,1363,c),
(666,1300,l),
(1063,1300,o),
(1336,1198,o),
(1336,844,cs),
(1336,622,o),
(1297,489,o),
(1186,325,cs),
(1067,152,o),
(890,72,o),
(585,72,c),
(584,-8,l)
);
}
);
};
layerId = "2438E31C-45B5-47A7-9B3D-1A0FEFB47671";
shapes = (
{
closed = 1;
nodes = (
(58,-3,o),
(148,0,o),
(238,0,cs),
(375,0,o),
(492,-8,o),
(584,-8,cs),
(997,-8,o),
(1179,55,o),
(1355,239,cs),
(1507,398,o),
(1591,596,o),
(1591,803,cs),
(1591,1237,o),
(1225,1363,o),
(861,1363,cs),
(352,1363,ls),
(334,1363,o),
(313,1269,o),
(331,1269,cs),
(467,1269,o),
(496,1246,o),
(470,1158,cs),
(183,203,ls),
(155,110,o),
(115,86,o),
(-12,86,cs),
(-30,86,o),
(-50,-8,o),
(-32,-8,c)
);
},
{
closed = 1;
nodes = (
(479,72,o),
(420,109,o),
(420,188,cs),
(420,210,o),
(424,235,o),
(433,264,cs),
(716,1195,ls),
(739,1272,o),
(768,1285,o),
(837,1285,cs),
(1091,1285,o),
(1336,1166,o),
(1336,844,cs),
(1336,622,o),
(1298,488,o),
(1186,325,cs),
(1067,152,o),
(890,72,o),
(585,72,cs)
);
}
);
width = 1575;
},
{
anchors = (
{
name = bottom;
pos = (623,0);
},
{
name = cedilla;
pos = (643,0);
},
{
name = center;
pos = (465,669);
},
{
name = top;
pos = (888,1363);
},
{
name = zzcurly;
pos = (658,1341);
}
);
layerId = "7904EAEE-2B64-409E-B923-0048172372BE";
shapes = (
{
closed = 1;
nodes = (
(83,-2,o),
(166,0,o),
(251,0,cs),
(377,0,o),
(509,-7,o),
(650,-7,cs),
(937,-7,o),
(1105,55,o),
(1267,239,cs),
(1407,398,o),
(1484,583,o),
(1484,803,cs),
(1484,1237,o),
(1151,1363,o),
(811,1363,cs),
(381,1363,ls),
(363,1363,o),
(343,1293,o),
(361,1293,cs),
(516,1293,o),
(549,1270,o),
(524,1183,cs),
(240,180,ls),
(214,87,o),
(168,63,o),
(18,63,cs),
(0,63,o),
(-20,-7,o),
(-2,-7,c)
);
},
{
closed = 1;
nodes = (
(435,47,o),
(364,89,o),
(364,173,cs),
(364,205,o),
(373,250,o),
(390,309,cs),
(637,1180,ls),
(667,1287,o),
(702,1306,o),
(826,1306,cs),
(1173,1306,o),
(1378,1123,o),
(1378,844,cs),
(1378,615,o),
(1338,476,o),
(1215,308,cs),
(1084,128,o),
(891,47,o),
(582,47,cs)
);
}
);
width = 1495;
},
{
anchors = (
{
name = bottom;
pos = (547,0);
},
{
name = cedilla;
pos = (630,0);
},
{
name = center;
pos = (396,675);
},
{
name = top;
pos = (765,1363);
},
{
name = zzcurly;
pos = (565,1341);
}
);
layerId = "E06D8587-1A71-4EC2-BD94-397D882F5FC1";
shapes = (
{
closed = 1;
nodes = (
(62,-2,o),
(145,0,o),
(208,0,cs),
(319,0,o),
(423,-7,o),
(522,-7,cs),
(815,-7,o),
(961,55,o),
(1103,240,cs),
(1224,397,o),
(1290,589,o),
(1290,800,cs),
(1290,1237,o),
(994,1363,o),
(700,1363,cs),
(306,1363,ls),
(291,1363,o),
(275,1282,o),
(290,1282,cs),
(412,1282,o),
(438,1259,o),
(417,1172,cs),
(180,190,ls),
(158,99,o),
(124,73,o),
(5,73,cs),
(-10,73,o),
(-26,-7,o),
(-11,-7,c)
);
},
{
closed = 1;
nodes = (
(384,53,o),
(330,96,o),
(330,180,cs),
(330,209,o),
(336,243,o),
(347,289,cs),
(565,1187,ls),
(588,1283,o),
(614,1301,o),
(697,1301,cs),
(951,1301,o),
(1142,1147,o),
(1142,837,cs),
(1142,620,o),
(1109,480,o),
(1011,315,cs),
(904,135,o),
(749,53,o),
(492,53,cs)
);
}
);
width = 1294;
},
{
anchors = (
{
name = bottom;
pos = (697,0);
},
{
name = cedilla;
pos = (652,0);
},
{
name = center;
pos = (488,669);
},
{
name = top;
pos = (961,1363);
},
{
name = zzcurly;
pos = (697,1341);
}
);
guides = (
{
angle = 5.757;
pos = (1206,726);
}
);
layerId = "8F7CDE40-C368-4484-AA71-76B7ABD5539F";
shapes = (
{
closed = 1;
nodes = (
(94,-2,o),
(167,0,o),
(260,0,cs),
(407,0,o),
(559,-7,o),
(718,-7,cs),
(1059,-7,o),
(1257,55,o),
(1439,238,cs),
(1591,392,o),
(1676,569,o),
(1676,778,cs),
(1676,1238,o),
(1269,1363,o),
(872,1363,cs),
(390,1363,ls),
(371,1363,o),
(353,1292,o),
(372,1292,cs),
(523,1292,o),
(561,1269,o),
(535,1182,cs),
(237,182,ls),
(209,89,o),
(169,65,o),
(29,65,cs),
(10,65,o),
(-8,-7,o),
(12,-7,c)
);
},
{
closed = 1;
nodes = (
(474,53,o),
(392,94,o),
(392,179,cs),
(392,206,o),
(399,251,o),
(416,307,cs),
(679,1181,ls),
(710,1283,o),
(750,1301,o),
(887,1301,cs),
(1297,1301,o),
(1532,1122,o),
(1532,796,cs),
(1532,594,o),
(1487,465,o),
(1362,309,cs),
(1220,132,o),
(1000,53,o),
(643,53,cs)
);
}
);
width = 1695;
},
{
anchors = (
{
name = bottom;
pos = (605,0);
},
{
name = cedilla;
pos = (611,0);
},
{
name = center;
pos = (437,672);
},
{
name = top;
pos = (870,1363);
},
{
name = zzcurly;
pos = (646,1341);
}
);
background = {
shapes = (
{
closed = 1;
nodes = (
(46,-2,o),
(131,0,o),
(217,0,cs),
(346,0,o),
(474,-7,o),
(603,-7,cs),
(921,-7,o),
(1093,55,o),
(1258,239,cs),
(1401,398,o),
(1480,586,o),
(1480,803,cs),
(1480,1237,o),
(1139,1363,o),
(793,1363,cs),
(730,1363,o),
(667,1359,o),
(604,1359,cs),
(517,1359,o),
(430,1359,o),
(343,1363,c),
(325,1363,o),
(305,1287,o),
(323,1287,cs),
(473,1287,o),
(505,1264,o),
(480,1177,cs),
(195,186,ls),
(168,93,o),
(124,69,o),
(-20,69,cs),
(-38,69,o),
(-58,-7,o),
(-40,-7,c)
);
},
{
closed = 1;
nodes = (
(415,53,o),
(347,94,o),
(347,177,cs),
(347,206,o),
(355,246,o),
(370,298,cs),
(626,1184,ls),
(655,1283,o),
(688,1301,o),
(798,1301,cs),
(1122,1301,o),
(1337,1134,o),
(1337,844,cs),
(1337,617,o),
(1297,479,o),
(1177,312,cs),
(1049,134,o),
(860,53,o),
(552,53,cs)
);
}
);
};
layerId = "997BDFA1-EC67-4686-8CFE-E56BDBE179FE";
shapes = (
{
closed = 1;
nodes = (
(46,-2,o),
(131,0,o),
(217,0,cs),
(346,0,o),
(474,-7,o),
(603,-7,cs),
(921,-7,o),
(1093,55,o),
(1258,239,cs),
(1401,398,o),
(1480,586,o),
(1480,803,cs),
(1480,1237,o),
(1139,1363,o),
(793,1363,cs),
(343,1363,ls),
(325,1363,o),
(305,1287,o),
(323,1287,cs),
(473,1287,o),
(505,1264,o),
(480,1177,cs),
(195,186,ls),
(168,93,o),
(124,69,o),
(-20,69,cs),
(-38,69,o),
(-58,-7,o),
(-40,-7,c)
);
},
{
closed = 1;
nodes = (
(415,53,o),
(347,94,o),
(347,177,cs),
(347,206,o),
(355,246,o),
(370,298,cs),
(626,1184,ls),
(655,1283,o),
(688,1301,o),
(798,1301,cs),
(1122,1301,o),
(1337,1134,o),
(1337,844,cs),
(1337,617,o),
(1297,479,o),
(1177,312,cs),
(1049,134,o),
(860,53,o),
(552,53,cs)
);
}
);
width = 1510;
}
);
metricLeft = I;
metricRight = O;
unicode = 68;
}
{
glyphname = F;
kernLeft = B;
kernRight = F;
layers = (
{
anchors = (
{
name = bottom;
pos = (484,0);
},
{
name = top;
pos = (749,1363);
},
{
name = zzcurly;
pos = (654,1341);
}
);
guides = (
{
angle = 74.0198;
pos = (521,729);
},
{
angle = 254.0813;
pos = (883,679);
}
);
hints = (
{
horizontal = 1;
options = 4;
origin = (0,2);
target = (0,70);
type = TTStem;
},
{
horizontal = 1;
options = 4;
origin = (0,70);
target = (0,8);
type = TTShift;
},
{
horizontal = 1;
options = 4;
origin = (0,57);
target = (0,63);
type = TTStem;
},
{
horizontal = 1;
options = 4;
origin = (0,63);
target = (0,38);
type = TTShift;
},
{
horizontal = 1;
origin = (0,2);
other1 = (0,33);
target = (0,57);
type = TTInterpolate;
},
{
horizontal = 1;
options = 4;
origin = (0,33);
stem = 0;
target = (0,13);
type = TTStem;
}
);
layerId = master01;
shapes = (
{
closed = 1;
nodes = (
(73,-2,o),
(159,0,o),
(245,0,cs),
(331,0,o),
(417,-2,o),
(503,-7,c),
(521,-7,o),
(541,69,o),
(523,69,cs),
(355,69,o),
(343,109,o),
(365,186,cs),
(495,642,l),
(686,642,ls),
(770,642,o),
(793,604,o),
(766,514,cs),
(731,397,ls),
(724,375,o),
(798,378,o),
(802,397,c),
(826,492,o),
(851,582,o),
(879,681,cs),
(906,777,o),
(934,870,o),
(964,965,c),
(964,985,o),
(901,984,o),
(896,965,cs),
(864,848,ls),
(840,761,o),
(788,718,o),
(707,718,cs),
(517,718,l),
(678,1276,ls),
(682,1291,o),
(694,1298,o),
(713,1298,cs),
(773,1298,o),
(874,1296,o),
(1016,1289,cs),
(1112,1284,o),
(1207,1213,o),
(1207,1097,cs),
(1207,1072,o),
(1203,1046,o),
(1196,1019,cs),
(1191,1000,o),
(1271,1000,o),
(1276,1019,cs),
(1364,1329,ls),
(1373,1359,o),
(1361,1367,o),
(1305,1367,cs),
(1079,1367,o),
(854,1363,o),
(628,1363,cs),
(543,1363,o),
(459,1364,o),
(374,1367,c),
(354,1367,o),
(335,1291,o),
(354,1291,cs),
(529,1291,o),
(527,1251,o),
(507,1181,cs),
(220,186,ls),
(198,109,o),
(172,69,o),
(7,69,cs),
(-11,69,o),
(-31,-7,o),
(-13,-7,c)
);
}
);
width = 1180;
},
{
anchors = (
{
name = bottom;
pos = (516,0);
},
{
name = top;
pos = (781,1363);
},
{
name = zzcurly;
pos = (714,1341);
}
);
guides = (
{
angle = 73.2448;
pos = (572,720);
},
{
angle = 253.3738;
pos = (916,679);
}
);
layerId = "2438E31C-45B5-47A7-9B3D-1A0FEFB47671";
shapes = (
{
closed = 1;
nodes = (
(63,-2,o),
(157,0,o),
(252,0,cs),
(346,0,o),
(441,-2,o),
(535,-8,c),
(553,-8,o),
(573,86,o),
(555,86,cs),
(404,86,o),
(393,126,o),
(416,203,cs),
(546,635,l),
(707,635,ls),
(783,635,o),
(805,595,o),
(777,503,cs),
(744,393,ls),
(739,375,o),
(826,375,o),
(830,393,c),
(854,482,o),
(883,585,o),
(912,681,cs),
(943,784,o),
(970,873,o),
(1002,969,c),
(1002,990,o),
(914,990,o),
(908,969,cs),
(877,856,ls),
(853,770,o),
(802,727,o),
(727,727,cs),
(573,727,l),
(729,1242,ls),
(736,1264,o),
(747,1275,o),
(760,1275,cs),
(821,1275,o),
(918,1273,o),
(1051,1268,cs),
(1136,1265,o),
(1221,1179,o),
(1221,1107,cs),
(1221,1076,o),
(1218,1047,o),
(1211,1023,cs),
(1204,1000,o),
(1297,1003,o),
(1303,1023,cs),
(1389,1309,ls),
(1403,1357,o),
(1391,1369,o),
(1327,1369,cs),
(1102,1369,o),
(878,1363,o),
(653,1363,cs),
(554,1363,o),
(454,1365,o),
(355,1369,c),
(334,1369,o),
(315,1275,o),
(334,1275,cs),
(490,1275,o),
(494,1235,o),
(473,1166,cs),
(183,203,ls),
(160,126,o),
(136,86,o),
(-12,86,cs),
(-30,86,o),
(-50,-8,o),
(-32,-8,c)
);
}
);
width = 1195;
},
{
anchors = (
{
name = bottom;
pos = (478,0);
},
{
name = top;
pos = (743,1363);
},
{
name = zzcurly;
pos = (648,1341);
}
);
guides = (
{
angle = 74.3154;
pos = (508,732);
},
{
angle = 254.4028;
pos = (877,679);
},
{
angle = 73.7476;
pos = (815,679);
}
);
layerId = "7904EAEE-2B64-409E-B923-0048172372BE";
shapes = (
{
closed = 1;
nodes = (
(81,-2,o),
(164,0,o),
(248,0,cs),
(331,0,o),
(414,-2,o),
(497,-7,c),
(515,-7,o),
(535,63,o),
(517,63,cs),
(343,63,o),
(332,104,o),
(353,180,cs),
(484,645,l),
(685,645,ls),
(770,645,o),
(796,611,o),
(773,533,cs),
(733,399,ls),
(726,377,o),
(795,380,o),
(799,399,c),
(822,493,o),
(848,588,o),
(874,682,cs),
(900,776,o),
(928,871,o),
(957,965,c),
(957,985,o),
(902,981,o),
(898,965,cs),
(866,846,ls),
(843,759,o),
(789,716,o),
(706,716,cs),
(504,716,l),
(664,1287,ls),
(668,1300,o),
(679,1305,o),
(700,1305,cs),
(760,1305,o),
(862,1303,o),
(1007,1296,cs),
(1107,1291,o),
(1205,1224,o),
(1205,1093,cs),
(1205,1069,o),
(1201,1045,o),
(1194,1017,cs),
(1189,998,o),
(1265,999,o),
(1270,1017,cs),
(1357,1329,ls),
(1365,1359,o),
(1354,1366,o),
(1301,1366,cs),
(1077,1366,o),
(854,1363,o),
(630,1363,cs),
(548,1363,o),
(465,1362,o),
(383,1366,c),
(362,1366,o),
(346,1296,o),
(364,1296,cs),
(537,1296,o),
(541,1256,o),
(521,1186,cs),
(237,180,ls),
(215,103,o),
(188,63,o),
(18,63,cs),
(0,63,o),
(-20,-7,o),
(-2,-7,c)
);
}
);
width = 1182;
},
{
anchors = (
{
name = bottom;
pos = (412,0);
},
{
name = top;
pos = (624,1363);
},
{
name = zzcurly;
pos = (565,1341);
}
);
guides = (
{
angle = 76.8963;
pos = (446,723);
},
{
angle = 76.7707;
pos = (731,679);
}
);
layerId = "E06D8587-1A71-4EC2-BD94-397D882F5FC1";
shapes = (
{
closed = 1;
nodes = (
(69,-2,o),
(140,0,o),
(212,0,cs),
(284,0,o),
(355,-2,o),
(427,-7,c),
(445,-7,o),
(460,69,o),
(442,69,cs),
(321,69,o),
(303,109,o),
(321,186,cs),
(427,641,l),
(570,641,ls),
(634,641,o),
(651,598,o),
(627,497,cs),
(603,397,ls),
(598,377,o),
(661,376,o),
(665,397,c),
(684,492,o),
(706,587,o),
(728,682,cs),
(750,778,o),
(774,872,o),
(799,967,c),
(799,988,o),
(739,987,o),
(735,967,cs),
(710,852,ls),
(691,765,o),
(649,722,o),
(587,722,cs),
(446,722,l),
(572,1265,ls),
(576,1282,o),
(586,1291,o),
(599,1291,cs),
(652,1291,o),
(720,1289,o),
(840,1282,cs),
(910,1278,o),
(983,1200,o),
(983,1101,cs),
(983,1074,o),
(979,1044,o),
(974,1021,cs),
(969,999,o),
(1038,1002,o),
(1042,1021,cs),
(1111,1318,ls),
(1120,1358,o),
(1112,1368,o),
(1063,1368,cs),
(874,1368,o),
(717,1363,o),
(528,1363,cs),
(454,1363,o),
(380,1364,o),
(306,1368,c),
(288,1368,o),
(273,1292,o),
(291,1292,cs),
(421,1292,o),
(425,1252,o),
(409,1182,cs),
(177,186,ls),
(159,109,o),
(133,69,o),
(12,69,cs),
(-6,69,o),
(-21,-7,o),
(-3,-7,c)
);
}
);
width = 968;
},
{
anchors = (
{
name = bottom;
pos = (576,0);
},
{
name = top;
pos = (846,1363);
},
{
name = zzcurly;
pos = (737,1341);
}
);
guides = (
{
angle = 73.2363;
pos = (670,999);
}
);
layerId = "8F7CDE40-C368-4484-AA71-76B7ABD5539F";
shapes = (
{
closed = 1;
nodes = (
(97,-2,o),
(198,0,o),
(298,0,cs),
(398,0,o),
(499,-2,o),
(599,-7,c),
(617,-7,o),
(639,69,o),
(621,69,cs),
(386,69,o),
(401,117,o),
(422,186,cs),
(561,644,l),
(800,644,ls),
(907,644,o),
(932,610,o),
(908,532,cs),
(866,398,ls),
(858,374,o),
(943,381,o),
(946,398,c),
(966,475,o),
(1025,675,o),
(1027,681,cs),
(1055,776,o),
(1097,908,o),
(1116,964,c),
(1115,983,o),
(1049,982,o),
(1044,964,cs),
(1009,845,ls),
(983,758,o),
(923,715,o),
(823,715,cs),
(584,715,l),
(757,1287,ls),
(761,1300,o),
(775,1305,o),
(799,1305,cs),
(874,1305,o),
(1033,1302,o),
(1164,1296,cs),
(1287,1290,o),
(1411,1225,o),
(1411,1086,cs),
(1411,1064,o),
(1407,1043,o),
(1401,1020,cs),
(1396,1001,o),
(1486,998,o),
(1492,1017,cs),
(1588,1340,ls),
(1594,1361,o),
(1580,1366,o),
(1517,1366,cs),
(1254,1366,o),
(961,1363,o),
(698,1363,cs),
(603,1363,o),
(508,1364,o),
(412,1366,c),
(390,1366,o),
(370,1290,o),
(390,1290,cs),
(616,1290,o),
(602,1246,o),
(582,1180,cs),
(276,186,ls),
(254,116,o),
(239,69,o),
(19,69,cs),
(2,69,o),
(-21,-7,o),
(-3,-7,c)
);
}
);
width = 1415;
},
{
anchors = (
{
name = bottom;
pos = (455,0);
},
{
name = top;
pos = (720,1363);
},
{
name = zzcurly;
pos = (645,1341);
}
);
guides = (
{
angle = 74.0198;
pos = (492,729);
},
{
angle = 254.0813;
pos = (854,679);
}
);
layerId = "997BDFA1-EC67-4686-8CFE-E56BDBE179FE";
shapes = (
{
closed = 1;
nodes = (
(44,-2,o),
(130,0,o),
(216,0,cs),
(302,0,o),
(388,-2,o),
(474,-7,c),
(492,-7,o),
(512,69,o),
(494,69,cs),
(326,69,o),
(314,109,o),
(336,186,cs),
(466,642,l),
(657,642,ls),
(741,642,o),
(764,604,o),
(737,514,cs),
(702,397,ls),
(695,375,o),
(769,378,o),
(773,397,c),
(797,492,o),
(822,582,o),
(850,681,cs),
(877,777,o),
(905,870,o),
(935,965,c),
(935,985,o),
(872,984,o),
(867,965,cs),
(835,848,ls),
(811,761,o),
(759,718,o),
(678,718,cs),
(488,718,l),
(649,1276,ls),
(653,1291,o),
(665,1298,o),
(684,1298,cs),
(744,1298,o),
(845,1296,o),
(987,1289,cs),
(1083,1284,o),
(1178,1213,o),
(1178,1097,cs),
(1178,1072,o),
(1174,1046,o),
(1167,1019,cs),
(1162,1000,o),
(1242,1000,o),
(1247,1019,cs),
(1335,1329,ls),
(1344,1359,o),
(1332,1367,o),
(1276,1367,cs),
(1050,1367,o),
(825,1363,o),
(599,1363,cs),
(514,1363,o),
(430,1364,o),
(345,1367,c),
(325,1367,o),
(306,1291,o),
(325,1291,cs),
(500,1291,o),
(498,1251,o),
(478,1181,cs),
(191,186,ls),
(169,109,o),
(143,69,o),
(-22,69,cs),
(-40,69,o),
(-60,-7,o),
(-42,-7,c)
);
}
);
width = 1179;
}
);
metricLeft = I;
metricRight = E;
unicode = 70;
}
{
glyphname = G;
kernLeft = C;
kernRight = G;
layers = (
{
anchors = (
{
name = bottom;
pos = (732,0);
},
{
name = cedilla;
pos = (768,0);
},
{
name = center;
pos = (1162,291);
},
{
name = top;
pos = (937,1363);
},
{
name = zzcurly;
pos = (834,1341);
}
);
hints = (
{
horizontal = 1;
options = 4;
origin = (0,65);
target = (0,43);
type = TTStem;
},
{
horizontal = 1;
options = 4;
origin = (0,71);
target = (0,37);
type = TTStem;
},
{
horizontal = 1;
options = 4;
origin = (0,65);
other1 = (0,21);
target = (0,71);
type = TTInterpolate;
},
{
horizontal = 1;
options = 4;
origin = (0,21);
target = (0,27);
type = TTStem;
},
{
horizontal = 1;
options = 4;
origin = (0,27);
target = (0,15);
type = TTShift;
}
);
layerId = master01;
shapes = (
{
closed = 1;
nodes = (
(976,-27,o),
(1095,0,o),
(1314,76,cs),
(1332,82,o),
(1316,140,o),
(1299,134,cs),
(1279,126,o),
(1246,117,o),
(1217,110,cs),
(1190,104,o),
(1175,116,o),
(1183,144,cs),
(1250,383,ls),
(1271,458,o),
(1308,478,o),
(1423,478,cs),
(1442,478,o),
(1462,554,o),
(1443,554,c),
(1369,551,o),
(1295,549,o),
(1221,549,cs),
(1132,549,o),
(1041,551,o),
(952,554,c),
(933,554,o),
(912,478,o),
(932,478,cs),
(1096,478,o),
(1135,458,o),
(1114,383,cs),
(1044,139,ls),
(1033,99,o),
(1010,76,o),
(970,68,cs),
(911,56,o),
(838,48,o),
(773,48,cs),
(443,48,o),
(314,265,o),
(314,517,cs),
(314,848,o),
(502,1314,o),
(922,1314,cs),
(1146,1314,o),
(1292,1172,o),
(1292,1033,cs),
(1292,1003,o),
(1287,971,o),
(1279,951,cs),
(1271,932,o),
(1330,913,o),
(1338,931,cs),
(1394,1056,o),
(1443,1205,o),
(1477,1338,cs),
(1482,1356,o),
(1426,1375,o),
(1416,1359,cs),
(1371,1288,ls),
(1359,1268,o),
(1342,1266,o),
(1323,1279,cs),
(1215,1351,o),
(1093,1385,o),
(970,1385,cs),
(563,1385,o),
(151,1054,o),
(151,572,cs),
(151,330,o),
(259,-27,o),
(817,-27,cs)
);
}
);
width = 1470;
},
{
anchors = (
{
name = bottom;
pos = (807,0);
},
{
name = cedilla;
pos = (784,0);
},
{
name = center;
pos = (1164,291);
},
{
name = top;
pos = (932,1363);
},
{
name = zzcurly;
pos = (824,1341);
}
);
layerId = "2438E31C-45B5-47A7-9B3D-1A0FEFB47671";
shapes = (
{
closed = 1;
nodes = (
(983,-27,o),
(1106,0,o),
(1337,78,cs),
(1355,84,o),
(1331,165,o),
(1314,158,cs),
(1303,153,o),
(1288,149,o),
(1274,146,cs),
(1246,140,o),
(1232,152,o),
(1240,180,cs),
(1291,363,ls),
(1312,438,o),
(1344,458,o),
(1443,458,cs),
(1462,458,o),
(1482,554,o),
(1463,554,c),
(1383,551,o),
(1303,549,o),
(1223,549,cs),
(1128,549,o),
(1033,551,o),
(938,554,c),
(919,554,o),
(899,458,o),
(918,458,cs),
(1056,458,o),
(1088,438,o),
(1067,363,cs),
(1008,157,ls),
(993,105,o),
(964,76,o),
(911,69,cs),
(880,65,o),
(847,63,o),
(814,63,cs),
(497,63,o),
(373,277,o),
(373,526,cs),
(373,846,o),
(553,1298,o),
(958,1298,cs),
(1173,1298,o),
(1313,1171,o),
(1313,1033,cs),
(1313,1003,o),
(1305,963,o),
(1294,933,cs),
(1287,915,o),
(1379,894,o),
(1387,911,cs),
(1449,1051,o),
(1498,1198,o),
(1536,1347,cs),
(1541,1365,o),
(1455,1390,o),
(1445,1374,cs),
(1396,1297,ls),
(1380,1272,o),
(1359,1268,o),
(1334,1284,cs),
(1225,1353,o),
(1102,1385,o),
(982,1385,cs),
(587,1385,o),
(129,1034,o),
(129,562,cs),
(129,330,o),
(241,-27,o),
(818,-27,cs)
);
}
);
width = 1484;
},
{
anchors = (
{
name = bottom;
pos = (744,0);
},
{
name = cedilla;
pos = (799,0);
},
{
name = center;
pos = (1163,291);
},
{
name = top;
pos = (949,1363);
},
{
name = zzcurly;
pos = (806,1341);
}
);
layerId = "7904EAEE-2B64-409E-B923-0048172372BE";
shapes = (
{
closed = 1;
nodes = (
(977,-27,o),
(1094,0,o),
(1309,77,cs),
(1327,83,o),
(1308,150,o),
(1290,142,cs),
(1266,131,o),
(1230,120,o),
(1200,114,cs),
(1177,109,o),
(1164,120,o),
(1171,144,cs),
(1241,390,ls),
(1262,465,o),
(1301,485,o),
(1418,485,cs),
(1437,485,o),
(1457,554,o),
(1438,554,c),
(1368,551,o),
(1297,549,o),
(1227,549,cs),
(1138,549,o),
(1049,551,o),
(960,554,c),
(941,554,o),
(921,485,o),
(940,485,cs),
(1113,485,o),
(1154,465,o),
(1133,390,cs),
(1061,136,ls),
(1049,94,o),
(1024,68,o),
(981,61,cs),
(918,50,o),
(838,42,o),
(762,42,cs),
(428,42,o),
(297,260,o),
(297,514,cs),
(297,849,o),
(488,1319,o),
(913,1319,cs),
(1140,1319,o),
(1288,1172,o),
(1288,1033,cs),
(1288,1010,o),
(1283,977,o),
(1275,951,cs),
(1269,933,o),
(1314,913,o),
(1322,931,cs),
(1379,1058,o),
(1428,1207,o),
(1464,1345,cs),
(1468,1364,o),
(1424,1379,o),
(1414,1363,cs),
(1367,1288,ls),
(1354,1268,o),
(1338,1266,o),
(1319,1279,cs),
(1212,1352,o),
(1092,1385,o),
(969,1385,cs),
(558,1385,o),
(161,1061,o),
(161,575,cs),
(161,330,o),
(268,-27,o),
(820,-27,cs)
);
}
);
width = 1468;
},
{
anchors = (
{
name = bottom;
pos = (661,0);
},
{
name = cedilla;
pos = (671,0);
},
{
name = center;
pos = (979,291);
},
{
name = top;
pos = (789,1363);
},
{
name = zzcurly;
pos = (687,1341);
}
);
layerId = "E06D8587-1A71-4EC2-BD94-397D882F5FC1";
shapes = (
{
closed = 1;
nodes = (
(829,-27,o),
(923,-3,o),
(1120,77,cs),
(1137,84,o),
(1117,148,o),
(1104,142,cs),
(1089,135,o),
(1066,126,o),
(1046,121,cs),
(1026,116,o),
(1012,127,o),
(1019,155,cs),
(1071,377,ls),
(1088,449,o),
(1114,472,o),
(1209,472,cs),
(1227,472,o),
(1237,554,o),
(1226,554,c),
(1148,550,o),
(1114,549,o),
(1033,549,cs),
(957,549,o),
(877,550,o),
(800,554,c),
(790,554,o),
(766,472,o),
(785,472,cs),
(918,472,o),
(945,450,o),
(928,377,cs),
(872,139,ls),
(862,95,o),
(840,71,o),
(803,63,cs),
(762,54,o),
(714,48,o),
(669,48,cs),
(395,48,o),
(286,266,o),
(286,524,cs),
(286,853,o),
(440,1314,o),
(788,1314,cs),
(974,1314,o),
(1097,1176,o),
(1097,1038,cs),
(1097,1011,o),
(1092,976,o),
(1084,951,cs),
(1078,932,o),
(1138,912,o),
(1145,931,cs),
(1193,1059,o),
(1232,1204,o),
(1260,1338,cs),
(1264,1356,o),
(1207,1376,o),
(1199,1360,cs),
(1163,1291,ls),
(1151,1268,o),
(1136,1267,o),
(1118,1281,cs),
(1027,1352,o),
(920,1385,o),
(820,1385,cs),
(481,1385,o),
(123,1049,o),
(123,573,cs),
(123,331,o),
(217,-27,o),
(694,-27,cs)
);
}
);
width = 1251;
},
{
anchors = (
{
name = bottom;
pos = (868,0);
},
{
name = cedilla;
pos = (930,0);
},
{
name = center;
pos = (1313,291);
},
{
name = top;
pos = (1063,1363);
},
{
name = zzcurly;
pos = (917,1341);
}
);
layerId = "8F7CDE40-C368-4484-AA71-76B7ABD5539F";
shapes = (
{
closed = 1;
nodes = (
(1106,-27,o),
(1250,3,o),
(1491,75,cs),
(1510,81,o),
(1498,133,o),
(1477,126,cs),
(1446,116,o),
(1404,106,o),
(1371,99,cs),
(1337,92,o),
(1321,105,o),
(1330,133,cs),
(1412,389,ls),
(1436,464,o),
(1480,484,o),
(1620,484,cs),
(1640,484,o),
(1670,554,o),
(1643,554,c),
(1563,551,o),
(1459,549,o),
(1392,549,cs),
(1290,549,o),
(1188,551,o),
(1087,554,c),
(1059,554,o),
(1041,484,o),
(1062,484,cs),
(1261,484,o),
(1308,464,o),
(1283,389,cs),
(1199,139,ls),
(1187,103,o),
(1163,81,o),
(1120,73,cs),
(1043,58,o),
(945,48,o),
(860,48,cs),
(474,48,o),
(325,264,o),
(325,510,cs),
(325,843,o),
(547,1314,o),
(1039,1314,cs),
(1301,1314,o),
(1470,1168,o),
(1470,1028,cs),
(1470,1001,o),
(1465,970,o),
(1457,951,cs),
(1449,932,o),
(1505,914,o),
(1514,931,cs),
(1578,1053,o),
(1637,1206,o),
(1677,1338,cs),
(1683,1356,o),
(1628,1374,o),
(1616,1358,cs),
(1562,1285,ls),
(1550,1268,o),
(1531,1265,o),
(1511,1277,cs),
(1386,1350,o),
(1249,1385,o),
(1103,1385,cs),
(628,1385,o),
(162,1059,o),
(162,571,cs),
(162,329,o),
(284,-27,o),
(923,-27,cs)
);
}
);
width = 1682;
},
{
anchors = (
{
name = bottom;
pos = (703,0);
},
{
name = cedilla;
pos = (739,0);
},
{
name = center;
pos = (1133,291);
},
{
name = top;
pos = (908,1363);
},
{
name = zzcurly;
pos = (775,1341);
}
);
layerId = "997BDFA1-EC67-4686-8CFE-E56BDBE179FE";
shapes = (
{
closed = 1;
nodes = (
(947,-27,o),
(1066,0,o),
(1285,76,cs),
(1303,82,o),
(1287,140,o),
(1270,134,cs),
(1250,126,o),
(1217,117,o),
(1188,110,cs),
(1161,104,o),
(1146,116,o),
(1154,144,cs),
(1221,383,ls),
(1242,458,o),
(1279,478,o),
(1394,478,cs),
(1413,478,o),
(1433,554,o),
(1414,554,c),
(1340,551,o),
(1266,549,o),
(1192,549,cs),
(1103,549,o),
(1012,551,o),
(923,554,c),
(904,554,o),
(883,478,o),
(903,478,cs),
(1067,478,o),
(1106,458,o),
(1085,383,cs),
(1015,139,ls),
(1004,99,o),
(981,76,o),
(941,68,cs),
(882,56,o),
(809,48,o),
(744,48,cs),
(414,48,o),
(285,265,o),
(285,517,cs),
(285,848,o),
(473,1314,o),
(893,1314,cs),
(1117,1314,o),
(1263,1172,o),
(1263,1033,cs),
(1263,1003,o),
(1258,971,o),
(1250,951,cs),
(1242,932,o),
(1301,913,o),
(1309,931,cs),
(1365,1056,o),
(1414,1205,o),
(1448,1338,cs),
(1453,1356,o),
(1397,1375,o),
(1387,1359,cs),
(1342,1288,ls),
(1330,1268,o),
(1313,1266,o),
(1294,1279,cs),
(1186,1351,o),
(1064,1385,o),
(941,1385,cs),
(534,1385,o),
(122,1054,o),
(122,572,cs),
(122,330,o),
(230,-27,o),
(788,-27,cs)
);
}
);
width = 1470;
}
);
metricLeft = O;
metricRight = "=E*0.66";
unicode = 71;
}
{
glyphname = I;
kernLeft = B;
kernRight = H;
layers = (
{
anchors = (
{
name = bottom;
pos = (241,0);
},
{
name = center;
pos = (444,703);
},
{
name = ogonek;
pos = (374,40);
},
{
name = ogonek_above;
pos = (540,1330);
},
{
name = top;
pos = (616,1363);
},
{
name = zzcurly;
pos = (454,1341);
}
);
guides = (
{
pos = (942,175);
showMeasurement = 1;
},
{
angle = 164.0088;
pos = (363,682);
showMeasurement = 1;
}
);
hints = (
{
horizontal = 1;
options = 4;
origin = (0,2);
target = (0,34);
type = TTStem;
},
{
horizontal = 1;
options = 4;
origin = (0,34);
target = (0,8);
type = TTShift;
},
{
horizontal = 1;
options = 4;
origin = (0,21);
target = (0,27);
type = TTStem;
},
{
horizontal = 1;
options = 4;
origin = (0,27);
target = (0,15);
type = TTShift;
}
);
layerId = master01;
shapes = (
{
closed = 1;
nodes = (
(73,-2,o),
(157,0,o),
(242,0,cs),
(325,0,o),
(410,-2,o),
(494,-7,c),
(512,-7,o),
(534,69,o),
(516,69,cs),
(352,69,o),
(343,109,o),
(365,186,cs),
(648,1177,ls),
(670,1254,o),
(698,1292,o),
(863,1292,cs),
(883,1292,o),
(902,1368,o),
(883,1368,c),
(798,1364,o),
(713,1363,o),
(628,1363,cs),
(543,1363,o),
(459,1364,o),
(374,1368,c),
(354,1368,o),
(335,1292,o),
(354,1292,cs),
(521,1292,o),
(527,1254,o),
(505,1177,cs),
(221,186,ls),
(199,109,o),
(172,69,o),
(8,69,cs),
(-10,69,o),
(-30,-7,o),
(-12,-7,c)
);
}
);
width = 722;
},
{
anchors = (
{
name = bottom;
pos = (276,0);
},
{
name = center;
pos = (449,703);
},
{
name = ogonek;
pos = (429,40);
},
{
name = ogonek_above;
pos = (550,1330);
},
{
name = top;
pos = (631,1363);
},
{
name = zzcurly;
pos = (394,1341);
}
);
guides = (
{
pos = (949,532);
showMeasurement = 1;
}
);
layerId = "2438E31C-45B5-47A7-9B3D-1A0FEFB47671";
shapes = (
{
closed = 1;
nodes = (
(62,-3,o),
(158,0,o),
(254,0,cs),
(349,0,o),
(445,-3,o),
(541,-8,c),
(559,-8,o),
(584,86,o),
(566,86,cs),
(402,86,o),
(399,125,o),
(422,203,cs),
(699,1158,ls),
(721,1235,o),
(746,1275,o),
(902,1275,cs),
(923,1275,o),
(946,1369,o),
(928,1369,c),
(833,1365,o),
(738,1363,o),
(643,1363,cs),
(547,1363,o),
(452,1365,o),
(357,1369,c),
(336,1369,o),
(313,1275,o),
(330,1275,cs),
(481,1275,o),
(483,1235,o),
(461,1158,cs),
(189,203,ls),
(167,125,o),
(137,86,o),
(-10,86,cs),
(-28,86,o),
(-52,-8,o),
(-34,-8,c)
);
}
);
width = 750;
},
{
anchors = (
{
name = bottom;
pos = (230,0);
},
{
name = center;
pos = (443,703);
},
{
name = ogonek;
pos = (350,40);
},
{
name = ogonek_above;
pos = (564,1330);
},
{
name = top;
pos = (612,1363);
},
{
name = zzcurly;
pos = (408,1341);
}
);
guides = (
{
pos = (920,532);
showMeasurement = 1;
}
);
layerId = "7904EAEE-2B64-409E-B923-0048172372BE";
shapes = (
{
closed = 1;
nodes = (
(76,-2,o),
(156,0,o),
(237,0,cs),
(318,0,o),
(398,-2,o),
(479,-7,c),
(503,-7,o),
(519,63,o),
(500,63,cs),
(331,63,o),
(325,104,o),
(347,180,cs),
(634,1183,ls),
(655,1258,o),
(677,1298,o),
(853,1298,cs),
(871,1298,o),
(889,1368,o),
(871,1368,c),
(790,1364,o),
(708,1363,o),
(627,1363,cs),
(545,1363,o),
(464,1364,o),
(382,1368,c),
(364,1368,o),
(346,1298,o),
(364,1298,cs),
(541,1298,o),
(544,1257,o),
(522,1183,cs),
(231,180,ls),
(209,104,o),
(185,63,o),
(14,63,cs),
(-1,63,o),
(-26,-7,o),
(-5,-7,c)
);
}
);
width = 719;
},
{
anchors = (
{
name = bottom;
pos = (217,0);
},
{
name = center;
pos = (371,703);
},
{
name = ogonek;
pos = (317,40);
},
{
name = ogonek_above;
pos = (481,1330);
},
{
name = top;
pos = (511,1363);
},
{
name = zzcurly;
pos = (325,1341);
}
);
layerId = "E06D8587-1A71-4EC2-BD94-397D882F5FC1";
shapes = (
{
closed = 1;
nodes = (
(67,-2,o),
(138,0,o),
(210,0,cs),
(281,0,o),
(353,-2,o),
(424,-7,c),
(442,-7,o),
(459,69,o),
(441,69,cs),
(312,69,o),
(305,107,o),
(323,186,cs),
(551,1178,ls),
(568,1252,o),
(590,1293,o),
(719,1293,cs),
(737,1293,o),
(753,1368,o),
(735,1368,c),
(664,1364,o),
(592,1363,o),
(521,1363,cs),
(450,1363,o),
(378,1364,o),
(307,1368,c),
(289,1368,o),
(272,1293,o),
(290,1293,cs),
(418,1293,o),
(421,1252,o),
(404,1178,cs),
(178,186,ls),
(160,106,o),
(138,69,o),
(12,69,cs),
(-6,69,o),
(-23,-7,o),
(-5,-7,c)
);
}
);
width = 613;
},
{
anchors = (
{
name = bottom;
pos = (282,0);
},
{
name = center;
pos = (509,703);
},
{
name = ogonek;
pos = (446,40);
},
{
name = ogonek_above;
pos = (583,1330);
},
{
name = top;
pos = (690,1363);
},
{
name = zzcurly;
pos = (427,1341);
}
);
layerId = "8F7CDE40-C368-4484-AA71-76B7ABD5539F";
shapes = (
{
closed = 1;
nodes = (
(96,-2,o),
(192,0,o),
(291,0,cs),
(387,0,o),
(486,-2,o),
(583,-7,c),
(601,-7,o),
(625,69,o),
(607,69,cs),
(408,69,o),
(396,111,o),
(419,186,cs),
(723,1176,ls),
(748,1256,o),
(781,1291,o),
(981,1291,cs),
(1002,1291,o),
(1022,1368,o),
(1002,1368,c),
(903,1364,o),
(805,1363,o),
(706,1363,cs),
(608,1363,o),
(509,1364,o),
(410,1368,c),
(388,1368,o),
(370,1291,o),
(390,1291,cs),
(618,1291,o),
(604,1248,o),
(582,1176,cs),
(274,186,ls),
(251,112,o),
(220,69,o),
(18,69,cs),
(1,69,o),
(-20,-7,o),
(-2,-7,c)
);
}
);
width = 856;
},
{
anchors = (
{
name = bottom;
pos = (212,0);
},
{
name = center;
pos = (415,703);
},
{
name = ogonek;
pos = (345,40);
},
{
name = ogonek_above;
pos = (521,1330);
},
{
name = top;
pos = (587,1363);
},
{
name = zzcurly;
pos = (365,1341);
}
);
layerId = "997BDFA1-EC67-4686-8CFE-E56BDBE179FE";
shapes = (
{
closed = 1;
nodes = (
(44,-2,o),
(128,0,o),
(213,0,cs),
(297,0,o),
(382,-2,o),
(466,-7,c),
(484,-7,o),
(506,69,o),
(488,69,cs),
(324,69,o),
(315,109,o),
(337,186,cs),
(620,1177,ls),
(642,1254,o),
(670,1292,o),
(835,1292,cs),
(855,1292,o),
(874,1368,o),
(855,1368,c),
(770,1364,o),
(685,1363,o),
(600,1363,cs),
(515,1363,o),
(430,1364,o),
(345,1368,c),
(325,1368,o),
(306,1292,o),
(325,1292,cs),
(492,1292,o),
(498,1254,o),
(476,1177,cs),
(192,186,ls),
(170,109,o),
(143,69,o),
(-21,69,cs),
(-39,69,o),
(-59,-7,o),
(-41,-7,c)
);
}
);
width = 722;
}
);
metricLeft = B;
metricRight = H;
unicode = 73;
}
{
glyphname = K;
kernLeft = B;
kernRight = K;
layers = (
{
anchors = (
{
name = bottom;
pos = (557,0);
},
{
name = center;
pos = (550,1067);
},
{
name = top;
pos = (952,1363);
},
{
name = zzcurly;
pos = (1154,1341);
}
);
hints = (
{
horizontal = 1;
options = 4;
origin = (0,2);
target = (0,99);
type = TTStem;
},
{
horizontal = 1;
options = 4;
origin = (0,99);
target = (0,8);
type = TTShift;
},
{
horizontal = 1;
options = 4;
origin = (0,99);
target = (0,25);
type = TTShift;
},
{
horizontal = 1;
options = 4;
origin = (0,99);
target = (0,37);
type = TTShift;
},
{
horizontal = 1;
options = 4;
origin = (0,2);
target = (0,31);
type = TTShift;
},
{
horizontal = 1;
options = 4;
origin = (0,86);
target = (0,92);
type = TTStem;
},
{
horizontal = 1;
options = 4;
origin = (0,86);
target = (0,57);
type = TTShift;
},
{
horizontal = 1;
options = 4;
origin = (0,92);
target = (0,80);
type = TTShift;
},
{
horizontal = 1;
options = 4;
origin = (0,92);
target = (0,63);
type = TTShift;
},
{
horizontal = 1;
options = 4;
origin = (0,92);
target = (0,51);
type = TTShift;
},
{
horizontal = 1;
options = 4;
origin = (0,2);
other1 = (0,73);
target = (0,86);
type = TTInterpolate;
},
{
horizontal = 1;
options = 4;
origin = (0,73);
target = (0,15);
type = TTStem;
}
);
layerId = master01;
shapes = (
{
closed = 1;
nodes = (
(73,-2,o),
(157,0,o),
(242,0,cs),
(326,0,o),
(411,-2,o),
(495,-7,c),
(513,-7,o),
(535,69,o),
(517,69,cs),
(353,69,o),
(344,109,o),
(366,186,cs),
(490,625,ls),
(494,638,o),
(502,645,o),
(517,645,cs),
(557,645,o),
(610,594,o),
(637,539,cs),
(807,186,ls),
(822,156,o),
(829,133,o),
(829,116,cs),
(829,85,o),
(795,69,o),
(727,69,cs),
(709,69,o),
(688,-7,o),
(706,-7,c),
(786,-2,o),
(865,0,o),
(945,0,cs),
(1025,0,o),
(1104,-2,o),
(1184,-7,c),
(1202,-7,o),
(1217,69,o),
(1199,69,cs),
(1082,69,o),
(1015,85,o),
(971,173,cs),
(706,709,ls),
(703,715,o),
(702,721,o),
(702,728,cs),
(702,735,o),
(705,741,o),
(712,747,cs),
(1158,1150,ls),
(1275,1256,o),
(1339,1292,o),
(1479,1292,cs),
(1497,1292,o),
(1518,1368,o),
(1500,1368,c),
(1436,1364,o),
(1372,1363,o),
(1308,1363,cs),
(1244,1363,o),
(1180,1364,o),
(1116,1368,c),
(1098,1368,o),
(1076,1292,o),
(1094,1292,cs),
(1126,1292,o),
(1142,1284,o),
(1142,1267,cs),
(1142,1247,o),
(1121,1218,o),
(1080,1180,cs),
(675,810,ls),
(604,745,o),
(555,713,o),
(528,713,cs),
(515,713,o),
(517,720,o),
(520,729,c),
(649,1177,ls),
(671,1254,o),
(699,1292,o),
(864,1292,cs),
(884,1292,o),
(903,1368,o),
(884,1368,c),
(799,1364,o),
(714,1363,o),
(629,1363,cs),
(544,1363,o),
(459,1364,o),
(374,1368,c),
(354,1368,o),
(335,1292,o),
(354,1292,cs),
(521,1292,o),
(527,1254,o),
(505,1177,cs),
(221,186,ls),
(199,109,o),
(172,69,o),
(8,69,cs),
(-10,69,o),
(-30,-7,o),
(-12,-7,c)
);
}
);
width = 1307;
},
{
anchors = (
{
name = bottom;
pos = (569,0);
},
{
name = center;
pos = (555,1067);
},
{
name = top;
pos = (834,1363);
},
{
name = zzcurly;
pos = (1134,1341);
}
);
layerId = "2438E31C-45B5-47A7-9B3D-1A0FEFB47671";
shapes = (
{
closed = 1;
nodes = (
(59,-3,o),
(155,0,o),
(251,0,cs),
(346,0,o),
(442,-3,o),
(538,-8,c),
(556,-8,o),
(581,86,o),
(563,86,cs),
(399,86,o),
(396,125,o),
(419,203,cs),
(536,602,ls),
(541,619,o),
(548,627,o),
(557,627,cs),
(586,627,o),
(603,594,o),
(618,563,cs),
(792,205,ls),
(808,172,o),
(817,148,o),
(817,135,cs),
(817,102,o),
(789,86,o),
(733,86,cs),
(714,86,o),
(692,-8,o),
(710,-8,c),
(799,-2,o),
(888,0,o),
(977,0,cs),
(1065,0,o),
(1154,-2,o),
(1243,-8,c),
(1261,-8,o),
(1275,86,o),
(1257,86,cs),
(1160,86,o),
(1105,109,o),
(1062,190,cs),
(782,719,ls),
(774,734,o),
(769,745,o),
(769,752,cs),
(769,759,o),
(775,767,o),
(786,776,cs),
(1185,1125,ls),
(1301,1227,o),
(1368,1275,o),
(1500,1275,cs),
(1518,1275,o),
(1543,1369,o),
(1525,1369,c),
(1456,1364,o),
(1387,1363,o),
(1318,1363,cs),
(1249,1363,o),
(1180,1364,o),
(1111,1369,c),
(1093,1369,o),
(1065,1275,o),
(1083,1275,cs),
(1117,1275,o),
(1134,1266,o),
(1134,1248,cs),
(1134,1229,o),
(1112,1200,o),
(1070,1162,cs),
(667,795,ls),
(627,758,o),
(600,739,o),
(585,739,cs),
(576,739,o),
(577,745,o),
(581,758,c),
(698,1158,ls),
(721,1235,o),
(745,1275,o),
(901,1275,cs),
(922,1275,o),
(945,1369,o),
(927,1369,c),
(832,1365,o),
(737,1363,o),
(642,1363,cs),
(546,1363,o),
(454,1365,o),
(359,1369,c),
(338,1369,o),
(315,1275,o),
(332,1275,cs),
(483,1275,o),
(485,1235,o),
(463,1158,cs),
(186,203,ls),
(163,125,o),
(134,86,o),
(-13,86,cs),
(-31,86,o),
(-55,-8,o),
(-37,-8,c)
);
}
);
width = 1366;
},
{
anchors = (
{
name = bottom;
pos = (554,0);
},
{
name = center;
pos = (547,1067);
},
{
name = top;
pos = (993,1363);
},
{
name = zzcurly;
pos = (1138,1341);
}
);
layerId = "7904EAEE-2B64-409E-B923-0048172372BE";
shapes = (
{
closed = 1;
nodes = (
(78,-2,o),
(158,0,o),
(239,0,cs),
(320,0,o),
(400,-2,o),
(481,-7,c),
(506,-7,o),
(523,63,o),
(503,63,cs),
(334,63,o),
(329,104,o),
(350,180,cs),
(476,633,l),
(480,644,o),
(488,651,o),
(505,651,cs),
(549,651,o),
(615,594,o),
(645,531,cs),
(813,180,ls),
(827,151,o),
(834,128,o),
(834,110,cs),
(834,79,o),
(798,63,o),
(726,63,cs),
(708,63,o),
(688,-7,o),
(706,-7,c),
(783,-2,o),
(859,0,o),
(936,0,cs),
(1013,0,o),
(1089,-2,o),
(1166,-7,c),
(1184,-7,o),
(1199,63,o),
(1181,63,cs),
(1057,63,o),
(986,77,o),
(942,167,cs),
(682,706,ls),
(681,709,o),
(681,713,o),
(681,720,cs),
(681,727,o),
(683,732,o),
(689,737,cs),
(1158,1165,ls),
(1271,1269,o),
(1332,1298,o),
(1475,1298,cs),
(1493,1298,o),
(1512,1368,o),
(1494,1368,c),
(1432,1364,o),
(1369,1363,o),
(1307,1363,cs),
(1245,1363,o),
(1182,1364,o),
(1120,1368,c),
(1102,1368,o),
(1082,1298,o),
(1100,1298,cs),
(1132,1298,o),
(1147,1290,o),
(1147,1273,cs),
(1147,1253,o),
(1127,1224,o),
(1086,1186,cs),
(679,815,ls),
(598,741,o),
(541,704,o),
(510,704,cs),
(496,704,o),
(498,712,o),
(501,719,c),
(634,1183,ls),
(655,1258,o),
(677,1298,o),
(853,1298,cs),
(871,1298,o),
(889,1368,o),
(871,1368,c),
(790,1364,o),
(708,1363,o),
(627,1363,cs),
(545,1363,o),
(464,1364,o),
(382,1368,c),
(364,1368,o),
(346,1298,o),
(364,1298,cs),
(541,1298,o),
(541,1257,o),
(520,1183,cs),
(233,180,ls),
(211,104,o),
(187,63,o),
(16,63,cs),
(1,63,o),
(-24,-7,o),
(-3,-7,c)
);
}
);
width = 1291;
},
{
anchors = (
{
name = bottom;
pos = (462,0);
},
{
name = center;
pos = (454,1067);
},
{
name = top;
pos = (734,1363);
},
{
name = zzcurly;
pos = (925,1341);
}
);
layerId = "E06D8587-1A71-4EC2-BD94-397D882F5FC1";
shapes = (
{
closed = 1;
nodes = (
(66,-2,o),
(137,0,o),
(209,0,cs),
(280,0,o),
(352,-2,o),
(423,-7,c),
(441,-7,o),
(458,69,o),
(440,69,cs),
(311,69,o),
(304,107,o),
(322,186,cs),
(420,617,ls),
(423,630,o),
(428,639,o),
(439,639,cs),
(467,639,o),
(498,594,o),
(516,547,cs),
(656,186,ls),
(668,155,o),
(675,131,o),
(675,116,cs),
(675,85,o),
(650,69,o),
(599,69,cs),
(581,69,o),
(566,-7,o),
(582,-7,c),
(649,-2,o),
(715,0,o),
(782,0,cs),
(849,0,o),
(915,-2,o),
(982,-7,c),
(999,-7,o),
(1013,69,o),
(994,69,cs),
(907,69,o),
(858,87,o),
(823,173,cs),
(603,712,ls),
(599,722,o),
(596,729,o),
(596,736,cs),
(596,743,o),
(600,750,o),
(606,757,cs),
(956,1151,ls),
(1046,1253,o),
(1099,1292,o),
(1208,1292,cs),
(1226,1292,o),
(1240,1368,o),
(1222,1368,c),
(1169,1364,o),
(1116,1363,o),
(1064,1363,cs),
(1011,1363,o),
(958,1364,o),
(905,1368,c),
(887,1368,o),
(872,1292,o),
(890,1292,cs),
(916,1292,o),
(929,1284,o),
(929,1267,cs),
(929,1247,o),
(912,1218,o),
(879,1180,cs),
(550,805,ls),
(506,754,o),
(473,722,o),
(454,722,cs),
(446,722,o),
(446,727,o),
(449,739,c),
(551,1178,ls),
(568,1252,o),
(590,1293,o),
(719,1293,cs),
(737,1293,o),
(753,1368,o),
(735,1368,c),
(664,1364,o),
(592,1363,o),
(521,1363,cs),
(450,1363,o),
(378,1364,o),
(307,1368,c),
(289,1368,o),
(272,1293,o),
(290,1293,cs),
(418,1293,o),
(421,1252,o),
(404,1178,cs),
(177,186,ls),
(159,106,o),
(137,69,o),
(11,69,cs),
(-7,69,o),
(-24,-7,o),
(-6,-7,c)
);
}
);
width = 1079;
},
{
anchors = (
{
name = bottom;
pos = (668,0);
},
{
name = center;
pos = (624,1067);
},
{
name = top;
pos = (1138,1363);
},
{
name = zzcurly;
pos = (1327,1341);
}
);
layerId = "8F7CDE40-C368-4484-AA71-76B7ABD5539F";
shapes = (
{
closed = 1;
nodes = (
(96,-2,o),
(193,0,o),
(291,0,cs),
(387,0,o),
(486,-2,o),
(583,-7,c),
(601,-7,o),
(625,69,o),
(607,69,cs),
(408,69,o),
(396,111,o),
(419,186,cs),
(554,633,ls),
(558,646,o),
(569,651,o),
(588,651,cs),
(638,651,o),
(714,597,o),
(755,531,cs),
(967,186,ls),
(984,158,o),
(995,134,o),
(995,115,cs),
(995,85,o),
(953,69,o),
(868,69,cs),
(851,69,o),
(826,-7,o),
(846,-7,c),
(939,-2,o),
(1031,0,o),
(1124,0,cs),
(1216,0,o),
(1309,-2,o),
(1402,-7,c),
(1421,-7,o),
(1434,69,o),
(1417,69,cs),
(1270,69,o),
(1185,83,o),
(1129,173,cs),
(800,706,ls),
(799,707,o),
(799,708,o),
(799,721,cs),
(799,726,o),
(801,732,o),
(808,737,cs),
(1336,1149,ls),
(1476,1259,o),
(1551,1292,o),
(1721,1292,cs),
(1738,1292,o),
(1764,1368,o),
(1746,1368,c),
(1671,1364,o),
(1596,1363,o),
(1520,1363,cs),
(1446,1363,o),
(1370,1364,o),
(1295,1368,c),
(1277,1368,o),
(1251,1292,o),
(1269,1292,cs),
(1306,1292,o),
(1327,1284,o),
(1327,1266,cs),
(1327,1246,o),
(1303,1217,o),
(1256,1180,cs),
(788,815,ls),
(688,737,o),
(627,704,o),
(593,704,cs),
(575,704,o),
(579,713,o),
(582,719,c),
(722,1176,ls),
(746,1256,o),
(779,1291,o),
(980,1291,cs),
(1001,1291,o),
(1021,1368,o),
(1001,1368,c),
(902,1364,o),
(804,1363,o),
(705,1363,cs),
(607,1363,o),
(508,1364,o),
(409,1368,c),
(387,1368,o),
(369,1291,o),
(389,1291,cs),
(617,1291,o),
(603,1248,o),
(581,1176,cs),
(274,186,ls),
(251,112,o),
(220,69,o),
(18,69,cs),
(1,69,o),
(-20,-7,o),
(-2,-7,c)
);
}
);
width = 1523;
},
{
anchors = (
{
name = bottom;
pos = (528,0);
},
{
name = center;
pos = (521,1067);
},
{
name = top;
pos = (923,1363);
},
{
name = zzcurly;
pos = (1105,1341);
}
);
layerId = "997BDFA1-EC67-4686-8CFE-E56BDBE179FE";
shapes = (
{
closed = 1;
nodes = (
(44,-2,o),
(128,0,o),
(213,0,cs),
(297,0,o),
(382,-2,o),
(466,-7,c),
(484,-7,o),
(506,69,o),
(488,69,cs),
(324,69,o),
(315,109,o),
(337,186,cs),
(461,625,ls),
(465,638,o),
(473,645,o),
(488,645,cs),
(528,645,o),
(581,594,o),
(608,539,cs),
(778,186,ls),
(793,156,o),
(800,133,o),
(800,116,cs),
(800,85,o),
(766,69,o),
(698,69,cs),
(680,69,o),
(659,-7,o),
(677,-7,c),
(757,-2,o),
(836,0,o),
(916,0,cs),
(996,0,o),
(1075,-2,o),
(1155,-7,c),
(1173,-7,o),
(1188,69,o),
(1170,69,cs),
(1053,69,o),
(986,85,o),
(942,173,cs),
(677,709,ls),
(674,715,o),
(673,721,o),
(673,728,cs),
(673,735,o),
(676,741,o),
(683,747,cs),
(1129,1150,ls),
(1246,1256,o),
(1310,1292,o),
(1450,1292,cs),
(1468,1292,o),
(1489,1368,o),
(1471,1368,c),
(1407,1364,o),
(1343,1363,o),
(1279,1363,cs),
(1215,1363,o),
(1151,1364,o),
(1087,1368,c),
(1069,1368,o),
(1047,1292,o),
(1065,1292,cs),
(1097,1292,o),
(1113,1284,o),
(1113,1267,cs),
(1113,1247,o),
(1092,1218,o),
(1051,1180,cs),
(646,810,ls),
(575,745,o),
(526,713,o),
(499,713,cs),
(486,713,o),
(488,720,o),
(491,729,c),
(620,1177,ls),
(642,1254,o),
(670,1292,o),
(835,1292,cs),
(855,1292,o),
(874,1368,o),
(855,1368,c),
(770,1364,o),
(685,1363,o),
(600,1363,cs),
(515,1363,o),
(430,1364,o),
(345,1368,c),
(325,1368,o),
(306,1292,o),
(325,1292,cs),
(492,1292,o),
(498,1254,o),
(476,1177,cs),
(192,186,ls),
(170,109,o),
(143,69,o),
(-21,69,cs),
(-39,69,o),
(-59,-7,o),
(-41,-7,c)
);
}
);
width = 1306;
}
);
metricLeft = I;
metricRight = A;
unicode = 75;
}
{
glyphname = L;
kernLeft = B;
kernRight = L;
layers = (
{
anchors = (
{
name = bottom;
pos = (533,0);
},
{
name = cedilla;
pos = (559,5);
},
{
name = center;
pos = (556,1056);
},
{
name = top;
pos = (637,1363);
},
{
name = zzcurly;
pos = (444,1341);
}
);
hints = (
{
horizontal = 1;
options = 4;
origin = (0,32);
target = (0,38);
type = TTStem;
},
{
horizontal = 1;
options = 4;
origin = (0,38);
target = (0,26);
type = TTShift;
},
{
horizontal = 1;
options = 4;
origin = (0,2);
target = (0,45);
type = TTStem;
},
{
horizontal = 1;
options = 4;
origin = (0,45);
target = (0,16);
type = TTShift;
}
);
layerId = master01;
shapes = (
{
closed = 1;
nodes = (
(73,-3,o),
(158,0,o),
(242,0,cs),
(514,0,o),
(787,-7,o),
(1059,-7,cs),
(1124,-7,o),
(1142,0,o),
(1155,46,cs),
(1251,379,ls),
(1256,397,o),
(1177,397,o),
(1171,379,cs),
(1107,186,o),
(999,82,o),
(827,75,cs),
(494,62,l),
(413,62,o),
(372,94,o),
(372,159,cs),
(372,186,o),
(379,226,o),
(394,277,cs),
(653,1177,ls),
(675,1252,o),
(701,1292,o),
(873,1292,cs),
(891,1292,o),
(912,1368,o),
(894,1368,c),
(807,1364,o),
(720,1363,o),
(633,1363,cs),
(546,1363,o),
(459,1364,o),
(372,1368,c),
(354,1368,o),
(336,1292,o),
(354,1292,cs),
(523,1292,o),
(531,1252,o),
(509,1177,cs),
(220,177,ls),
(200,108,o),
(178,69,o),
(15,69,cs),
(-3,69,o),
(-29,-7,o),
(-11,-7,c)
);
}
);
width = 1272;
},
{
anchors = (
{
name = bottom;
pos = (557,0);
},
{
name = cedilla;
pos = (501,5);
},
{
name = center;
pos = (557,1056);
},
{
name = top;
pos = (648,1363);
},
{
name = zzcurly;
pos = (394,1341);
}
);
layerId = "2438E31C-45B5-47A7-9B3D-1A0FEFB47671";
shapes = (
{
closed = 1;
nodes = (
(62,-3,o),
(159,0,o),
(257,0,cs),
(532,0,o),
(807,-8,o),
(1082,-8,cs),
(1155,-8,o),
(1175,3,o),
(1188,47,cs),
(1285,383,ls),
(1290,401,o),
(1191,401,o),
(1186,383,cs),
(1135,195,o),
(1019,100,o),
(848,92,cs),
(533,78,ls),
(459,75,o),
(420,103,o),
(422,160,cs),
(423,183,o),
(428,211,o),
(437,242,cs),
(704,1158,ls),
(726,1235,o),
(750,1275,o),
(913,1275,cs),
(931,1275,o),
(957,1369,o),
(939,1369,c),
(842,1364,o),
(745,1363,o),
(648,1363,cs),
(550,1363,o),
(453,1364,o),
(356,1369,c),
(338,1369,o),
(311,1275,o),
(329,1275,cs),
(485,1275,o),
(486,1235,o),
(464,1158,cs),
(189,197,ls),
(169,126,o),
(145,86,o),
(-8,86,cs),
(-26,86,o),
(-54,-8,o),
(-36,-8,c)
);
}
);
width = 1303;
},
{
anchors = (
{
name = bottom;
pos = (529,0);
},
{
name = cedilla;
pos = (583,5);
},
{
name = center;
pos = (553,1056);
},
{
name = top;
pos = (631,1363);
},
{
name = zzcurly;
pos = (408,1341);
}
);
layerId = "7904EAEE-2B64-409E-B923-0048172372BE";
shapes = (
{
closed = 1;
nodes = (
(83,-2,o),
(165,0,o),
(246,0,cs),
(516,0,o),
(786,-7,o),
(1056,-7,cs),
(1118,-7,o),
(1135,-2,o),
(1149,48,cs),
(1244,378,ls),
(1249,396,o),
(1176,396,o),
(1170,378,cs),
(1102,183,o),
(997,75,o),
(824,69,cs),
(485,57,ls),
(402,54,o),
(360,91,o),
(360,159,cs),
(359,187,o),
(367,231,o),
(384,289,cs),
(639,1183,ls),
(660,1258,o),
(683,1298,o),
(863,1298,cs),
(881,1298,o),
(900,1368,o),
(882,1368,c),
(798,1364,o),
(715,1363,o),
(631,1363,cs),
(547,1363,o),
(464,1364,o),
(380,1368,c),
(362,1368,o),
(347,1298,o),
(365,1298,cs),
(550,1298,o),
(549,1258,o),
(527,1183,cs),
(235,170,ls),
(216,103,o),
(191,63,o),
(27,63,cs),
(9,63,o),
(-16,-7,o),
(2,-7,c)
);
}
);
width = 1267;
},
{
anchors = (
{
name = bottom;
pos = (447,0);
},
{
name = cedilla;
pos = (440,5);
},
{
name = center;
pos = (455,1056);
},
{
name = top;
pos = (525,1363);
},
{
name = zzcurly;
pos = (335,1341);
}
);
layerId = "E06D8587-1A71-4EC2-BD94-397D882F5FC1";
shapes = (
{
closed = 1;
nodes = (
(71,-3,o),
(151,0,o),
(236,0,cs),
(446,0,o),
(657,-7,o),
(867,-7,cs),
(922,-7,o),
(938,1,o),
(949,48,cs),
(1024,380,ls),
(1028,399,o),
(960,396,o),
(954,378,cs),
(893,195,o),
(818,88,o),
(682,81,cs),
(421,67,l),
(358,66,o),
(327,98,o),
(327,159,cs),
(327,186,o),
(332,221,o),
(342,265,cs),
(554,1177,ls),
(571,1252,o),
(591,1292,o),
(726,1292,cs),
(743,1292,o),
(757,1368,o),
(744,1368,c),
(671,1364,o),
(598,1363,o),
(525,1363,cs),
(452,1363,o),
(379,1364,o),
(306,1368,c),
(287,1368,o),
(274,1292,o),
(290,1292,cs),
(422,1292,o),
(424,1252,o),
(407,1177,cs),
(177,178,ls),
(161,109,o),
(140,69,o),
(16,69,cs),
(-2,69,o),
(-23,-7,o),
(-5,-7,c)
);
}
);
width = 1043;
},
{
anchors = (
{
name = bottom;
pos = (630,0);
},
{
name = cedilla;
pos = (689,5);
},
{
name = center;
pos = (631,1056);
},
{
name = top;
pos = (704,1363);
},
{
name = zzcurly;
pos = (427,1341);
}
);
layerId = "8F7CDE40-C368-4484-AA71-76B7ABD5539F";
shapes = (
{
closed = 1;
nodes = (
(86,-3,o),
(176,0,o),
(259,0,cs),
(593,0,o),
(928,-7,o),
(1262,-7,cs),
(1336,-7,o),
(1356,-1,o),
(1370,44,cs),
(1476,378,ls),
(1481,394,o),
(1391,396,o),
(1386,380,cs),
(1310,183,o),
(1188,75,o),
(980,69,cs),
(576,57,l),
(480,58,o),
(422,88,o),
(422,164,cs),
(422,191,o),
(430,234,o),
(447,289,cs),
(722,1177,ls),
(743,1246,o),
(766,1292,o),
(986,1292,cs),
(1004,1292,o),
(1030,1368,o),
(1007,1368,c),
(906,1364,o),
(805,1363,o),
(704,1363,cs),
(604,1363,o),
(502,1364,o),
(401,1368,c),
(384,1368,o),
(364,1292,o),
(384,1292,cs),
(590,1292,o),
(605,1252,o),
(581,1177,cs),
(268,176,ls),
(246,107,o),
(225,69,o),
(22,69,cs),
(5,69,o),
(-24,-7,o),
(-6,-7,c)
);
}
);
width = 1500;
},
{
anchors = (
{
name = bottom;
pos = (504,0);
},
{
name = cedilla;
pos = (530,5);
},
{
name = center;
pos = (527,1056);
},
{
name = top;
pos = (608,1363);
},
{
name = zzcurly;
pos = (365,1341);
}
);
layerId = "997BDFA1-EC67-4686-8CFE-E56BDBE179FE";
shapes = (
{
closed = 1;
nodes = (
(44,-3,o),
(129,0,o),
(213,0,cs),
(485,0,o),
(758,-7,o),
(1030,-7,cs),
(1095,-7,o),
(1113,0,o),
(1126,46,cs),
(1222,379,ls),
(1227,397,o),
(1148,397,o),
(1142,379,cs),
(1078,186,o),
(970,82,o),
(798,75,cs),
(465,62,l),
(384,62,o),
(343,94,o),
(343,159,cs),
(343,186,o),
(350,226,o),
(365,277,cs),
(624,1177,ls),
(646,1252,o),
(672,1292,o),
(844,1292,cs),
(862,1292,o),
(883,1368,o),
(865,1368,c),
(778,1364,o),
(691,1363,o),
(604,1363,cs),
(517,1363,o),
(430,1364,o),
(343,1368,c),
(325,1368,o),
(307,1292,o),
(325,1292,cs),
(494,1292,o),
(502,1252,o),
(480,1177,cs),
(191,177,ls),
(171,108,o),
(149,69,o),
(-14,69,cs),
(-32,69,o),
(-58,-7,o),
(-40,-7,c)
);
}
);
width = 1272;
}
);
metricLeft = I;
unicode = 76;
}
{
glyphname = U;
kernLeft = U;
kernRight = U;
layers = (
{
anchors = (
{
name = bottom;
pos = (650,0);
},
{
name = ogonek;
pos = (886,26);
},
{
name = ogonek_above;
pos = (450,1338);
},
{
name = top;
pos = (1021,1363);
},
{
name = topright;
pos = (1672,1363);
},
{
name = zzcurly;
pos = (1282,1341);
}
);
guides = (
{
angle = 254.0427;
pos = (377,856);
}
);
hints = (
{
horizontal = 1;
options = 4;
origin = (0,60);
target = (0,28);
type = TTStem;
},
{
horizontal = 1;
options = 4;
origin = (0,44);
target = (0,50);
type = TTStem;
},
{
horizontal = 1;
options = 4;
origin = (0,44);
target = (0,15);
type = TTShift;
},
{
horizontal = 1;
options = 4;
origin = (0,50);
target = (0,38);
type = TTShift;
},
{
horizontal = 1;
options = 4;
origin = (0,50);
target = (0,21);
type = TTShift;
},
{
horizontal = 1;
options = 4;
origin = (0,50);
target = (0,9);
type = TTShift;
}
);
layerId = master01;
shapes = (
{
closed = 1;
nodes = (
(892,-27,o),
(1108,116,o),
(1215,346,cs),
(1264,451,o),
(1324,632,o),
(1398,890,cs),
(1480,1177,ls),
(1506,1267,o),
(1548,1292,o),
(1677,1292,cs),
(1695,1292,o),
(1715,1368,o),
(1697,1368,c),
(1625,1365,o),
(1553,1363,o),
(1481,1363,cs),
(1408,1363,o),
(1336,1365,o),
(1264,1368,c),
(1246,1368,o),
(1225,1292,o),
(1243,1292,cs),
(1373,1292,o),
(1401,1267,o),
(1375,1177,cs),
(1176,487,ls),
(1094,201,o),
(937,49,o),
(652,49,cs),
(495,49,o),
(384,120,o),
(384,268,cs),
(384,337,o),
(412,477,o),
(473,687,cs),
(615,1177,ls),
(641,1267,o),
(686,1292,o),
(821,1292,cs),
(839,1292,o),
(860,1368,o),
(842,1368,c),
(761,1365,o),
(679,1363,o),
(598,1363,cs),
(517,1363,o),
(435,1365,o),
(354,1368,c),
(336,1368,o),
(318,1292,o),
(336,1292,cs),
(466,1292,o),
(495,1267,o),
(469,1177,cs),
(286,539,ls),
(253,423,o),
(237,331,o),
(237,263,cs),
(237,48,o),
(385,-27,o),
(607,-27,cs)
);
}
);
width = 1513;
},
{
anchors = (
{
name = bottom;
pos = (649,0);
},
{
name = ogonek;
pos = (930,26);
},
{
name = ogonek_above;
pos = (450,1338);
},
{
name = top;
pos = (1050,1363);
},
{
name = topright;
pos = (1703,1363);
},
{
name = zzcurly;
pos = (1292,1341);
}
);
layerId = "2438E31C-45B5-47A7-9B3D-1A0FEFB47671";
shapes = (
{
closed = 1;
nodes = (
(910,-27,o),
(1114,86,o),
(1227,284,cs),
(1273,365,o),
(1343,560,o),
(1437,870,cs),
(1524,1158,ls),
(1552,1250,o),
(1592,1275,o),
(1715,1275,cs),
(1733,1275,o),
(1757,1369,o),
(1739,1369,c),
(1661,1365,o),
(1583,1363,o),
(1505,1363,cs),
(1426,1363,o),
(1348,1365,o),
(1270,1369,c),
(1252,1369,o),
(1226,1275,o),
(1244,1275,cs),
(1379,1275,o),
(1409,1250,o),
(1381,1158,cs),
(1186,506,ls),
(1099,216,o),
(958,63,o),
(688,63,cs),
(559,63,o),
(439,121,o),
(439,262,cs),
(439,335,o),
(470,473,o),
(532,678,cs),
(677,1158,ls),
(705,1251,o),
(745,1275,o),
(867,1275,cs),
(885,1275,o),
(912,1369,o),
(894,1369,c),
(802,1365,o),
(710,1363,o),
(618,1363,cs),
(525,1363,o),
(433,1365,o),
(341,1369,c),
(323,1369,o),
(298,1275,o),
(316,1275,cs),
(441,1275,o),
(468,1250,o),
(441,1160,cs),
(260,555,ls),
(227,446,o),
(211,348,o),
(211,262,cs),
(211,52,o),
(385,-27,o),
(633,-27,cs)
);
}
);
width = 1542;
},
{
anchors = (
{
name = bottom;
pos = (614,0);
},
{
name = ogonek;
pos = (876,26);
},
{
name = ogonek_above;
pos = (453,1338);
},
{
name = top;
pos = (1015,1363);
},
{
name = topright;
pos = (1666,1363);
},
{
name = zzcurly;
pos = (1285,1341);
}
);
layerId = "7904EAEE-2B64-409E-B923-0048172372BE";
shapes = (
{
closed = 1;
nodes = (
(890,-27,o),
(1110,126,o),
(1215,367,cs),
(1265,480,o),
(1322,656,o),
(1389,897,cs),
(1468,1183,ls),
(1493,1273,o),
(1536,1298,o),
(1667,1298,cs),
(1685,1298,o),
(1704,1368,o),
(1686,1368,c),
(1616,1365,o),
(1546,1363,o),
(1476,1363,cs),
(1405,1363,o),
(1335,1365,o),
(1265,1368,c),
(1247,1368,o),
(1227,1298,o),
(1245,1298,cs),
(1374,1298,o),
(1402,1273,o),
(1376,1183,cs),
(1177,481,ls),
(1096,196,o),
(934,44,o),
(644,44,cs),
(478,44,o),
(370,120,o),
(370,270,cs),
(370,338,o),
(397,478,o),
(457,690,cs),
(597,1183,ls),
(623,1273,o),
(667,1298,o),
(808,1298,cs),
(826,1298,o),
(845,1368,o),
(827,1368,c),
(749,1365,o),
(672,1363,o),
(594,1363,cs),
(516,1363,o),
(439,1365,o),
(361,1368,c),
(343,1368,o),
(327,1298,o),
(345,1298,cs),
(477,1298,o),
(506,1273,o),
(481,1183,cs),
(299,534,ls),
(266,415,o),
(250,325,o),
(250,263,cs),
(250,47,o),
(389,-27,o),
(602,-27,cs)
);
}
);
width = 1509;
},
{
anchors = (
{
name = bottom;
pos = (539,0);
},
{
name = ogonek;
pos = (734,26);
},
{
name = ogonek_above;
pos = (443,1338);
},
{
name = top;
pos = (838,1363);
},
{
name = topright;
pos = (1360,1363);
},
{
name = zzcurly;
pos = (1045,1341);
}
);
layerId = "E06D8587-1A71-4EC2-BD94-397D882F5FC1";
shapes = (
{
closed = 1;
nodes = (
(730,-27,o),
(899,103,o),
(988,326,cs),
(1029,429,o),
(1081,617,o),
(1143,883,cs),
(1212,1177,ls),
(1233,1267,o),
(1267,1292,o),
(1368,1292,cs),
(1386,1292,o),
(1401,1368,o),
(1383,1368,c),
(1323,1365,o),
(1264,1363,o),
(1204,1363,cs),
(1144,1363,o),
(1085,1365,o),
(1025,1368,c),
(1007,1368,o),
(989,1292,o),
(1008,1292,cs),
(1114,1292,o),
(1137,1267,o),
(1116,1177,cs),
(956,493,ls),
(894,228,o),
(784,54,o),
(546,54,cs),
(429,54,o),
(338,121,o),
(338,266,cs),
(338,337,o),
(361,476,o),
(410,684,cs),
(527,1177,ls),
(548,1267,o),
(582,1292,o),
(686,1292,cs),
(704,1292,o),
(720,1368,o),
(702,1368,c),
(634,1365,o),
(565,1363,o),
(497,1363,cs),
(428,1363,o),
(360,1365,o),
(291,1368,c),
(273,1368,o),
(258,1292,o),
(276,1292,cs),
(379,1292,o),
(401,1267,o),
(380,1177,cs),
(232,544,ls),
(206,431,o),
(193,340,o),
(193,263,cs),
(193,49,o),
(321,-27,o),
(506,-27,cs)
);
}
);
width = 1241;
},
{
anchors = (
{
name = bottom;
pos = (800,0);
},
{
name = ogonek;
pos = (1036,26);
},
{
name = ogonek_above;
pos = (460,1338);
},
{
name = top;
pos = (1156,1363);
},
{
name = topright;
pos = (1936,1363);
},
{
name = zzcurly;
pos = (1482,1341);
}
);
guides = (
{
angle = 72.872;
pos = (585,929);
}
);
layerId = "8F7CDE40-C368-4484-AA71-76B7ABD5539F";
shapes = (
{
closed = 1;
nodes = (
(1055,-27,o),
(1312,129,o),
(1429,367,cs),
(1483,476,o),
(1546,646,o),
(1621,897,cs),
(1705,1177,ls),
(1732,1267,o),
(1782,1292,o),
(1940,1292,cs),
(1957,1292,o),
(1980,1368,o),
(1962,1368,c),
(1878,1365,o),
(1793,1363,o),
(1709,1363,cs),
(1624,1363,o),
(1538,1365,o),
(1454,1368,c),
(1436,1368,o),
(1415,1292,o),
(1432,1292,cs),
(1586,1292,o),
(1619,1267,o),
(1592,1177,cs),
(1379,481,ls),
(1285,175,o),
(1087,44,o),
(756,44,cs),
(544,44,o),
(420,130,o),
(420,278,cs),
(420,347,o),
(448,486,o),
(511,690,cs),
(661,1177,ls),
(689,1267,o),
(742,1292,o),
(910,1292,cs),
(927,1292,o),
(951,1368,o),
(933,1368,c),
(839,1365,o),
(744,1363,o),
(650,1363,cs),
(558,1363,o),
(461,1365,o),
(368,1368,c),
(350,1368,o),
(332,1292,o),
(350,1292,cs),
(507,1292,o),
(543,1267,o),
(516,1177,cs),
(321,534,ls),
(287,422,o),
(271,332,o),
(271,274,cs),
(271,64,o),
(426,-27,o),
(708,-27,cs)
);
}
);
width = 1791;
},
{
anchors = (
{
name = bottom;
pos = (621,0);
},
{
name = ogonek;
pos = (857,26);
},
{
name = ogonek_above;
pos = (421,1338);
},
{
name = top;
pos = (992,1363);
},
{
name = topright;
pos = (1643,1363);
},
{
name = zzcurly;
pos = (1263,1341);
}
);
layerId = "997BDFA1-EC67-4686-8CFE-E56BDBE179FE";
shapes = (
{
closed = 1;
nodes = (
(863,-27,o),
(1079,116,o),
(1186,346,cs),
(1235,451,o),
(1295,632,o),
(1369,890,cs),
(1451,1177,ls),
(1477,1267,o),
(1519,1292,o),
(1648,1292,cs),
(1666,1292,o),
(1686,1368,o),
(1668,1368,c),
(1596,1365,o),
(1524,1363,o),
(1452,1363,cs),
(1379,1363,o),
(1307,1365,o),
(1235,1368,c),
(1217,1368,o),
(1196,1292,o),
(1214,1292,cs),
(1344,1292,o),
(1372,1267,o),
(1346,1177,cs),
(1147,487,ls),
(1065,201,o),
(908,49,o),
(623,49,cs),
(466,49,o),
(355,120,o),
(355,268,cs),
(355,337,o),
(383,477,o),
(444,687,cs),
(586,1177,ls),
(612,1267,o),
(657,1292,o),
(792,1292,cs),
(810,1292,o),
(831,1368,o),
(813,1368,c),
(732,1365,o),
(650,1363,o),
(569,1363,cs),
(488,1363,o),
(406,1365,o),
(325,1368,c),
(307,1368,o),
(289,1292,o),
(307,1292,cs),
(437,1292,o),
(466,1267,o),
(440,1177,cs),
(257,539,ls),
(224,423,o),
(208,331,o),
(208,263,cs),
(208,48,o),
(356,-27,o),
(578,-27,cs)
);
}
);
width = 1513;
}
);
metricLeft = "=I*0.8";
metricRight = "=I*0.8";
unicode = 85;
}
{
glyphname = W;
kernLeft = V;
kernRight = V;
layers = (
{
anchors = (
{
name = bottom;
pos = (995,0);
},
{
name = top;
pos = (1236,1363);
},
{
name = zzcurly;
pos = (1361,1341);
}
);
hints = (
{
horizontal = 1;
options = 4;
origin = (0,91);
target = (0,97);
type = TTStem;
},
{
horizontal = 1;
options = 4;
origin = (0,97);
target = (0,85);
type = TTShift;
},
{
horizontal = 1;
options = 4;
origin = (0,97);
target = (0,75);
type = TTShift;
},
{
horizontal = 1;
options = 4;
origin = (0,97);
target = (0,63);
type = TTShift;
},
{
horizontal = 1;
options = 4;
origin = (0,97);
target = (0,54);
type = TTShift;
},
{
horizontal = 1;
options = 4;
origin = (0,97);
target = (0,42);
type = TTShift;
},
{
horizontal = 1;
options = 4;
origin = (0,97);
target = (0,30);
type = TTShift;
},
{
horizontal = 1;
options = 4;
origin = (0,97);
target = (0,18);
type = TTShift;
},
{
horizontal = 1;
origin = (0,104);
type = TTSnap;
},
{
horizontal = 1;
options = 4;
origin = (0,104);
target = (0,8);
type = TTShift;
},
{
horizontal = 1;
options = 4;
origin = (0,104);
target = (0,80);
type = TTShift;
},
{
horizontal = 1;
options = 4;
origin = (0,104);
target = (0,36);
type = TTShift;
},
{
horizontal = 1;
options = 4;
origin = (0,91);
target = (0,69);
type = TTShift;
},
{
horizontal = 1;
options = 4;
origin = (0,91);
target = (0,48);
type = TTShift;
},
{
horizontal = 1;
options = 4;
origin = (0,91);
target = (0,24);
type = TTShift;
}
);
layerId = master01;
shapes = (
{
closed = 1;
nodes = (
(642,-29,o),
(657,-18,o),
(670,0,cs),
(1037,536,l),
(1054,534,l),
(1166,0,ls),
(1170,-21,o),
(1178,-29,o),
(1187,-29,cs),
(1195,-29,o),
(1210,-21,o),
(1224,0,cs),
(1699,691,ls),
(1843,900,o),
(1970,1071,o),
(2072,1206,cs),
(2127,1278,o),
(2161,1292,o),
(2285,1292,cs),
(2303,1292,o),
(2323,1368,o),
(2305,1368,c),
(2234,1365,o),
(2162,1363,o),
(2091,1363,cs),
(2020,1363,o),
(1948,1365,o),
(1877,1368,c),
(1859,1368,o),
(1839,1292,o),
(1857,1292,cs),
(1977,1292,o),
(1993,1265,o),
(1929,1168,cs),
(1668,769,o),
(1433,412,o),
(1285,214,c),
(1267,216,l),
(1162,713,l),
(1518,1206,ls),
(1570,1278,o),
(1603,1292,o),
(1731,1292,cs),
(1749,1292,o),
(1768,1368,o),
(1751,1368,c),
(1680,1365,o),
(1608,1363,o),
(1537,1363,cs),
(1466,1363,o),
(1394,1365,o),
(1323,1368,c),
(1305,1368,o),
(1285,1292,o),
(1303,1292,cs),
(1423,1292,o),
(1438,1265,o),
(1375,1168,cs),
(1152,826,l),
(1135,828,l),
(1060,1177,ls),
(1041,1267,o),
(1075,1292,o),
(1217,1292,cs),
(1235,1292,o),
(1255,1368,o),
(1237,1368,c),
(1166,1365,o),
(1095,1363,o),
(1024,1363,cs),
(953,1363,o),
(882,1365,o),
(811,1368,c),
(793,1368,o),
(773,1292,o),
(791,1292,cs),
(872,1292,o),
(899,1267,o),
(918,1177,cs),
(1031,642,l),
(731,215,l),
(713,217,l),
(506,1177,ls),
(487,1267,o),
(521,1292,o),
(663,1292,cs),
(681,1292,o),
(701,1368,o),
(683,1368,c),
(609,1365,o),
(535,1363,o),
(461,1363,cs),
(387,1363,o),
(313,1365,o),
(239,1368,c),
(221,1368,o),
(200,1292,o),
(218,1292,cs),
(314,1292,o),
(345,1267,o),
(364,1177,cs),
(612,0,ls),
(616,-17,o),
(623,-29,o),
(632,-29,cs)
);
}
);
width = 2038;
},
{
anchors = (
{
name = bottom;
pos = (853,0);
},
{
name = top;
pos = (1244,1363);
},
{
name = zzcurly;
pos = (1361,1341);
}
);
layerId = "2438E31C-45B5-47A7-9B3D-1A0FEFB47671";
shapes = (
{
closed = 1;
nodes = (
(575,-29,o),
(607,-8,o),
(628,20,cs),
(975,492,l),
(991,490,l),
(1061,20,ls),
(1066,-12,o),
(1085,-29,o),
(1110,-29,cs),
(1133,-29,o),
(1158,-12,o),
(1181,20,cs),
(1641,656,ls),
(1756,814,o),
(1895,995,o),
(2056,1203,cs),
(2102,1263,o),
(2132,1275,o),
(2253,1275,cs),
(2271,1275,o),
(2298,1369,o),
(2280,1369,cs),
(2242,1365,o),
(2173,1363,o),
(2072,1363,cs),
(1971,1363,o),
(1902,1365,o),
(1864,1369,cs),
(1846,1369,o),
(1820,1275,o),
(1838,1275,cs),
(1938,1275,o),
(1946,1249,o),
(1878,1152,cs),
(1616,778,o),
(1398,467,o),
(1269,315,c),
(1250,318,l),
(1178,769,l),
(1501,1205,ls),
(1545,1264,o),
(1577,1275,o),
(1709,1275,cs),
(1727,1275,o),
(1753,1369,o),
(1735,1369,c),
(1667,1365,o),
(1599,1363,o),
(1532,1363,cs),
(1464,1363,o),
(1396,1365,o),
(1328,1369,c),
(1310,1369,o),
(1285,1275,o),
(1303,1275,cs),
(1392,1275,o),
(1397,1249,o),
(1326,1152,cs),
(1170,940,l),
(1153,942,l),
(1121,1158,ls),
(1107,1250,o),
(1128,1275,o),
(1217,1275,cs),
(1235,1275,o),
(1250,1369,o),
(1233,1369,c),
(1160,1365,o),
(1087,1363,o),
(1014,1363,cs),
(941,1363,o),
(868,1365,o),
(795,1369,c),
(777,1369,o),
(761,1275,o),
(779,1275,cs),
(851,1275,o),
(875,1250,o),
(889,1158,cs),
(967,663,l),
(713,309,l),
(696,311,l),
(566,1158,ls),
(552,1250,o),
(571,1275,o),
(654,1275,cs),
(672,1275,o),
(688,1369,o),
(670,1369,c),
(596,1365,o),
(522,1363,o),
(448,1363,cs),
(374,1363,o),
(300,1365,o),
(226,1369,c),
(208,1369,o),
(191,1275,o),
(209,1275,cs),
(293,1275,o),
(320,1250,o),
(334,1158,cs),
(506,20,ls),
(510,-8,o),
(531,-29,o),
(556,-29,cs)
);
}
);
width = 2006;
},
{
anchors = (
{
name = bottom;
pos = (1022,0);
},
{
name = top;
pos = (1213,1363);
},
{
name = zzcurly;
pos = (1331,1341);
}
);
layerId = "7904EAEE-2B64-409E-B923-0048172372BE";
shapes = (
{
closed = 1;
nodes = (
(644,-29,o),
(653,-23,o),
(669,0,cs),
(1037,549,l),
(1055,547,l),
(1179,0,ls),
(1183,-16,o),
(1190,-29,o),
(1196,-29,cs),
(1201,-29,o),
(1210,-19,o),
(1223,0,cs),
(1698,703,ls),
(1852,930,o),
(1974,1096,o),
(2057,1207,cs),
(2114,1284,o),
(2148,1298,o),
(2275,1298,cs),
(2293,1298,o),
(2311,1368,o),
(2293,1368,c),
(2211,1365,o),
(2138,1363,o),
(2077,1363,cs),
(2016,1363,o),
(1943,1365,o),
(1861,1368,c),
(1843,1368,o),
(1825,1298,o),
(1843,1298,cs),
(1971,1298,o),
(1989,1271,o),
(1926,1173,cs),
(1667,766,o),
(1424,387,o),
(1270,180,c),
(1252,182,l),
(1136,694,l),
(1503,1206,ls),
(1558,1283,o),
(1592,1298,o),
(1718,1298,cs),
(1736,1298,o),
(1753,1368,o),
(1736,1368,c),
(1664,1365,o),
(1591,1363,o),
(1518,1363,cs),
(1446,1363,o),
(1373,1365,o),
(1301,1368,c),
(1283,1368,o),
(1265,1298,o),
(1283,1298,cs),
(1415,1298,o),
(1433,1271,o),
(1371,1173,cs),
(1126,788,l),
(1109,790,l),
(1019,1183,ls),
(998,1273,o),
(1037,1298,o),
(1197,1298,cs),
(1215,1298,o),
(1236,1368,o),
(1218,1368,c),
(1148,1365,o),
(1077,1363,o),
(1007,1363,cs),
(937,1363,o),
(866,1365,o),
(796,1368,c),
(778,1368,o),
(757,1298,o),
(775,1298,cs),
(859,1298,o),
(886,1273,o),
(907,1183,cs),
(1032,635,l),
(717,184,l),
(698,186,l),
(466,1183,ls),
(445,1273,o),
(483,1298,o),
(646,1298,cs),
(664,1298,o),
(685,1368,o),
(667,1368,c),
(593,1365,o),
(519,1363,o),
(445,1363,cs),
(371,1363,o),
(297,1365,o),
(223,1368,c),
(205,1368,o),
(183,1298,o),
(201,1298,cs),
(301,1298,o),
(333,1273,o),
(354,1183,cs),
(624,0,ls),
(629,-23,o),
(634,-29,o),
(639,-29,cs)
);
}
);
width = 2028;
},
{
anchors = (
{
name = bottom;
pos = (769,0);
},
{
name = top;
pos = (1011,1363);
},
{
name = zzcurly;
pos = (1111,1341);
}
);
layerId = "E06D8587-1A71-4EC2-BD94-397D882F5FC1";
shapes = (
{
closed = 1;
nodes = (
(491,-29,o),
(506,-15,o),
(515,0,cs),
(825,526,l),
(839,524,l),
(925,0,ls),
(927,-15,o),
(936,-29,o),
(950,-29,cs),
(963,-29,o),
(976,-14,o),
(984,0,cs),
(1388,683,ls),
(1504,879,o),
(1587,1011,o),
(1715,1204,cs),
(1764,1278,o),
(1792,1292,o),
(1894,1292,cs),
(1911,1292,o),
(1924,1368,o),
(1912,1368,c),
(1826,1364,o),
(1792,1363,o),
(1732,1363,cs),
(1656,1363,o),
(1615,1365,o),
(1551,1368,c),
(1538,1368,o),
(1516,1292,o),
(1534,1292,cs),
(1632,1292,o),
(1642,1264,o),
(1585,1163,cs),
(1370,780,o),
(1168,422,o),
(1047,239,c),
(1031,241,l),
(950,727,l),
(1245,1206,ls),
(1290,1278,o),
(1319,1292,o),
(1426,1292,cs),
(1443,1292,o),
(1455,1368,o),
(1443,1368,c),
(1376,1365,o),
(1324,1363,o),
(1264,1363,cs),
(1201,1363,o),
(1153,1365,o),
(1084,1368,c),
(1072,1368,o),
(1050,1292,o),
(1067,1292,cs),
(1162,1292,o),
(1173,1265,o),
(1116,1164,cs),
(943,854,l),
(928,856,l),
(875,1172,ls),
(859,1266,o),
(884,1292,o),
(992,1292,cs),
(1009,1292,o),
(1021,1368,o),
(1009,1368,c),
(941,1365,o),
(888,1363,o),
(827,1363,cs),
(761,1363,o),
(715,1365,o),
(644,1368,c),
(631,1368,o),
(609,1292,o),
(627,1292,cs),
(694,1292,o),
(716,1267,o),
(732,1173,cs),
(819,647,l),
(576,238,l),
(560,240,l),
(403,1172,ls),
(387,1266,o),
(412,1292,o),
(519,1292,cs),
(536,1292,o),
(549,1368,o),
(536,1368,c),
(463,1365,o),
(415,1363,o),
(347,1363,cs),
(280,1363,o),
(231,1365,o),
(158,1368,c),
(145,1368,o),
(123,1292,o),
(141,1292,cs),
(219,1292,o),
(246,1266,o),
(261,1172,cs),
(454,0,ls),
(456,-14,o),
(466,-29,o),
(479,-29,cs)
);
}
);
width = 1658;
},
{
anchors = (
{
name = bottom;
pos = (1182,0);
},
{
name = top;
pos = (1374,1363);
},
{
name = zzcurly;
pos = (1501,1341);
}
);
layerId = "8F7CDE40-C368-4484-AA71-76B7ABD5539F";
shapes = (
{
closed = 1;
nodes = (
(763,-29,o),
(774,-16,o),
(786,0,cs),
(1191,546,l),
(1211,544,l),
(1368,0,ls),
(1372,-14,o),
(1379,-29,o),
(1390,-29,cs),
(1403,-29,o),
(1415,-14,o),
(1425,0,cs),
(1947,699,ls),
(2143,961,o),
(2273,1129,o),
(2347,1209,cs),
(2412,1279,o),
(2451,1292,o),
(2592,1292,cs),
(2611,1292,o),
(2635,1368,o),
(2611,1368,c),
(2555,1366,o),
(2446,1363,o),
(2364,1363,cs),
(2297,1363,o),
(2195,1365,o),
(2116,1368,c),
(2093,1368,o),
(2078,1292,o),
(2096,1292,cs),
(2238,1292,o),
(2259,1267,o),
(2194,1174,cs),
(1899,753,o),
(1645,392,o),
(1477,189,c),
(1457,191,l),
(1311,699,l),
(1710,1206,ls),
(1766,1278,o),
(1804,1292,o),
(1952,1292,cs),
(1971,1292,o),
(1994,1368,o),
(1972,1368,c),
(1897,1365,o),
(1806,1363,o),
(1724,1363,cs),
(1644,1363,o),
(1549,1365,o),
(1475,1368,c),
(1451,1368,o),
(1436,1292,o),
(1455,1292,cs),
(1599,1292,o),
(1620,1266,o),
(1554,1172,cs),
(1294,798,l),
(1275,800,l),
(1165,1182,ls),
(1140,1268,o),
(1181,1292,o),
(1358,1292,cs),
(1377,1292,o),
(1402,1368,o),
(1378,1368,c),
(1305,1365,o),
(1215,1363,o),
(1135,1363,cs),
(1058,1363,o),
(963,1365,o),
(891,1368,c),
(868,1368,o),
(853,1292,o),
(871,1292,cs),
(966,1292,o),
(999,1268,o),
(1024,1181,cs),
(1182,637,l),
(840,192,l),
(820,194,l),
(529,1182,ls),
(504,1268,o),
(545,1292,o),
(723,1292,cs),
(742,1292,o),
(766,1368,o),
(743,1368,c),
(668,1365,o),
(569,1363,o),
(489,1363,cs),
(407,1363,o),
(309,1365,o),
(233,1368,c),
(210,1368,o),
(193,1292,o),
(211,1292,cs),
(324,1292,o),
(362,1268,o),
(387,1182,cs),
(731,0,ls),
(736,-16,o),
(744,-29,o),
(752,-29,cs)
);
}
);
width = 2298;
},
{
anchors = (
{
name = bottom;
pos = (996,0);
},
{
name = top;
pos = (1237,1363);
},
{
name = zzcurly;
pos = (1352,1341);
}
);
layerId = "997BDFA1-EC67-4686-8CFE-E56BDBE179FE";
shapes = (
{
closed = 1;
nodes = (
(643,-29,o),
(658,-18,o),
(671,0,cs),
(1038,536,l),
(1055,534,l),
(1167,0,ls),
(1171,-21,o),
(1179,-29,o),
(1188,-29,cs),
(1196,-29,o),
(1211,-21,o),
(1225,0,cs),
(1700,691,ls),
(1844,900,o),
(1971,1071,o),
(2073,1206,cs),
(2128,1278,o),
(2162,1292,o),
(2286,1292,cs),
(2304,1292,o),
(2324,1368,o),
(2306,1368,c),
(2235,1365,o),
(2163,1363,o),
(2092,1363,cs),
(2021,1363,o),
(1949,1365,o),
(1878,1368,c),
(1860,1368,o),
(1840,1292,o),
(1858,1292,cs),
(1978,1292,o),
(1994,1265,o),
(1930,1168,cs),
(1669,769,o),
(1434,412,o),
(1286,214,c),
(1268,216,l),
(1163,713,l),
(1519,1206,ls),
(1571,1278,o),
(1604,1292,o),
(1732,1292,cs),
(1750,1292,o),
(1769,1368,o),
(1752,1368,c),
(1681,1365,o),
(1609,1363,o),
(1538,1363,cs),
(1467,1363,o),
(1395,1365,o),
(1324,1368,c),
(1306,1368,o),
(1286,1292,o),
(1304,1292,cs),
(1424,1292,o),
(1439,1265,o),
(1376,1168,cs),
(1153,826,l),
(1136,828,l),
(1061,1177,ls),
(1042,1267,o),
(1076,1292,o),
(1218,1292,cs),
(1236,1292,o),
(1256,1368,o),
(1238,1368,c),
(1167,1365,o),
(1096,1363,o),
(1025,1363,cs),
(954,1363,o),
(883,1365,o),
(812,1368,c),
(794,1368,o),
(774,1292,o),
(792,1292,cs),
(873,1292,o),
(900,1267,o),
(919,1177,cs),
(1032,642,l),
(732,215,l),
(714,217,l),
(507,1177,ls),
(488,1267,o),
(522,1292,o),
(664,1292,cs),
(682,1292,o),
(702,1368,o),
(684,1368,c),
(610,1365,o),
(536,1363,o),
(462,1363,cs),
(388,1363,o),
(314,1365,o),
(240,1368,c),
(222,1368,o),
(201,1292,o),
(219,1292,cs),
(315,1292,o),
(346,1267,o),
(365,1177,cs),
(613,0,ls),
(617,-17,o),
(624,-29,o),
(633,-29,cs)
);
}
);
width = 2039;
}
);
metricLeft = V;
metricRight = V;
unicode = 87;
}
{
glyphname = bracketright;
kernLeft = bracketright;
layers = (
{
layerId = master01;
shapes = (
{
closed = 1;
nodes = (
(201,-354,ls),
(216,-354,o),
(225,-347,o),
(229,-332,cs),
(758,1511,ls),
(759,1514,o),
(759,1516,o),
(759,1518,cs),
(759,1526,o),
(754,1530,o),
(743,1530,cs),
(324,1530,ls),
(311,1530,o),
(296,1499,o),
(296,1476,cs),
(296,1460,o),
(299,1452,o),
(305,1452,cs),
(584,1452,ls),
(596,1452,o),
(600,1445,o),
(596,1430,cs),
(113,-252,ls),
(108,-268,o),
(101,-276,o),
(92,-276,cs),
(-213,-276,ls),
(-231,-276,o),
(-240,-315,o),
(-240,-334,cs),
(-240,-347,o),
(-237,-354,o),
(-231,-354,cs)
);
}
);
width = 725;
},
{
layerId = "2438E31C-45B5-47A7-9B3D-1A0FEFB47671";
shapes = (
{
closed = 1;
nodes = (
(276,-354,ls),
(290,-354.667,o),
(299,-347.333,o),
(303,-332,cs),
(831,1511,ls),
(832,1514,o),
(832,1516,o),
(832,1519,cs),
(832,1526,o),
(827,1530,o),
(817,1530,cs),
(324,1530,ls),
(302,1530,o),
(290,1464,o),
(290,1450,cs),
(290,1439,o),
(293,1434,o),
(299,1434,cs),
(580,1434,ls),
(592,1434,o),
(595.333,1426.33,o),
(590,1411,cs),
(119,-233,ls),
(114.333,-249.667,o),
(107.333,-258,o),
(92,-258,cs),
(-207,-258,ls),
(-226,-258,o),
(-239,-321,o),
(-239,-339,cs),
(-239,-349,o),
(-236,-354,o),
(-231,-354,cs)
);
}
);
width = 722;
},
{
layerId = "7904EAEE-2B64-409E-B923-0048172372BE";
shapes = (
{
closed = 1;
nodes = (
(176,-354,ls),
(191,-354,o),
(200,-347,o),
(204,-332,cs),
(734,1511,ls),
(735,1514,o),
(735,1516,o),
(735,1518,cs),
(735,1526,o),
(730,1530,o),
(718,1530,cs),
(324,1530,ls),
(314,1530,o),
(298,1511,o),
(298,1485,cs),
(298,1467,o),
(301,1458,o),
(307,1458,cs),
(585,1458,ls),
(597,1458,o),
(602,1451,o),
(598,1436,cs),
(111,-258,ls),
(106,-274,o),
(99,-282,o),
(92,-282,cs),
(-215,-282,ls),
(-233,-282,o),
(-240,-313,o),
(-240,-332,cs),
(-240,-346,o),
(-237,-354,o),
(-231,-354,cs)
);
}
);
width = 726;
},
{
layerId = "E06D8587-1A71-4EC2-BD94-397D882F5FC1";
shapes = (
{
closed = 1;
nodes = (
(161,-354,ls),
(173,-354,o),
(180,-347,o),
(183,-332,cs),
(606,1511,ls),
(607,1514,o),
(607,1516,o),
(607,1518,cs),
(607,1526,o),
(603,1530,o),
(594,1530,cs),
(259,1530,ls),
(249,1530,o),
(237,1499,o),
(237,1476,cs),
(237,1460,o),
(239,1452,o),
(244,1452,cs),
(467,1452,ls),
(477,1452,o),
(480,1445,o),
(477,1430,cs),
(90,-252,ls),
(86,-268,o),
(81,-276,o),
(74,-276,cs),
(-170,-276,ls),
(-185,-276,o),
(-192,-315,o),
(-192,-334,cs),
(-192,-347,o),
(-190,-354,o),
(-185,-354,cs)
);
}
);
width = 580;
},
{
layerId = "8F7CDE40-C368-4484-AA71-76B7ABD5539F";
shapes = (
{
closed = 1;
nodes = (
(241,-354,ls),
(259,-354,o),
(270,-347,o),
(275,-332,cs),
(910,1511,ls),
(911,1514,o),
(911,1516,o),
(911,1518,cs),
(911,1526,o),
(905,1530,o),
(892,1530,cs),
(389,1530,ls),
(373,1530,o),
(355,1499,o),
(355,1476,cs),
(355,1460,o),
(359,1452,o),
(366,1452,cs),
(701,1452,ls),
(715,1452,o),
(720,1445,o),
(715,1430,cs),
(136,-252,ls),
(130,-268,o),
(121,-276,o),
(110,-276,cs),
(-256,-276,ls),
(-277,-276,o),
(-288,-315,o),
(-288,-334,cs),
(-288,-347,o),
(-284,-354,o),
(-277,-354,cs)
);
}
);
width = 870;
},
{
layerId = "997BDFA1-EC67-4686-8CFE-E56BDBE179FE";
shapes = (
{
closed = 1;
nodes = (
(201,-354,ls),
(216,-354,o),
(225,-347,o),
(229,-332,cs),
(758,1511,ls),
(759,1514,o),
(759,1516,o),
(759,1518,cs),
(759,1526,o),
(754,1530,o),
(743,1530,cs),
(324,1530,ls),
(311,1530,o),
(296,1499,o),
(296,1476,cs),
(296,1460,o),
(299,1452,o),
(305,1452,cs),
(584,1452,ls),
(596,1452,o),
(600,1445,o),
(596,1430,cs),
(113,-252,ls),
(108,-268,o),
(101,-276,o),
(92,-276,cs),
(-213,-276,ls),
(-231,-276,o),
(-240,-315,o),
(-240,-334,cs),
(-240,-347,o),
(-237,-354,o),
(-231,-354,cs)
);
}
);
width = 725;
}
);
unicode = 93;
}
{
glyphname = asciicircum;
layers = (
{
layerId = master01;
shapes = (
{
closed = 1;
nodes = (
(351,535,l),
(671,1257,l),
(635,1257,l),
(955,535,l),
(1091,535,l),
(706,1372,l),
(600,1372,l),
(213,535,l)
);
}
);
width = 1227;
},
{
layerId = "2438E31C-45B5-47A7-9B3D-1A0FEFB47671";
shapes = (
{
closed = 1;
nodes = (
(250,549,l),
(595,1270,l),
(507,1270,l),
(850,549,l),
(1014,549,l),
(588,1403,l),
(520,1403,l),
(94,549,l)
);
}
);
width = 1024;
},
{
layerId = "7904EAEE-2B64-409E-B923-0048172372BE";
shapes = (
{
closed = 1;
nodes = (
(385,530,l),
(696,1253,l),
(678,1253,l),
(990,530,l),
(1117,530,l),
(745,1362,l),
(627,1362,l),
(253,530,l)
);
}
);
width = 1295;
},
{
layerId = "E06D8587-1A71-4EC2-BD94-397D882F5FC1";
shapes = (
{
closed = 1;
nodes = (
(287,540,l),
(551,1261,l),
(505,1261,l),
(769,540,l),
(887,540,l),
(565,1382,l),
(493,1382,l),
(170,540,l)
);
}
);
width = 996;
},
{
layerId = "8F7CDE40-C368-4484-AA71-76B7ABD5539F";
shapes = (
{
closed = 1;
nodes = (
(415,530,l),
(791,1253,l),
(765,1253,l),
(1141,530,l),
(1295,530,l),
(847,1362,l),
(707,1362,l),
(256,530,l)
);
}
);
width = 1458;
},
{
layerId = "997BDFA1-EC67-4686-8CFE-E56BDBE179FE";
shapes = (
{
closed = 1;
nodes = (
(351,535,l),
(671,1257,l),
(635,1257,l),
(955,535,l),
(1091,535,l),
(706,1372,l),
(600,1372,l),
(213,535,l)
);
}
);
width = 1227;
}
);
unicode = 94;
}
{
glyphname = underscore;
layers = (
{
layerId = master01;
shapes = (
{
closed = 1;
nodes = (
(1024,-256,l),
(1024,-154,l),
(0,-154,l),
(0,-256,l)
);
}
);
width = 1024;
},
{
layerId = "2438E31C-45B5-47A7-9B3D-1A0FEFB47671";
shapes = (
{
closed = 1;
nodes = (
(1061,-266,l),
(1061,-145,l),
(-37,-145,l),
(-37,-266,l)
);
}
);
width = 1024;
},
{
layerId = "7904EAEE-2B64-409E-B923-0048172372BE";
shapes = (
{
closed = 1;
nodes = (
(1012,-253,l),
(1012,-157,l),
(12,-157,l),
(12,-253,l)
);
}
);
width = 1024;
},
{
layerId = "E06D8587-1A71-4EC2-BD94-397D882F5FC1";
shapes = (
{
closed = 1;
nodes = (
(819,-256,l),
(819,-154,l),
(0,-154,l),
(0,-256,l)
);
}
);
width = 819;
},
{
layerId = "8F7CDE40-C368-4484-AA71-76B7ABD5539F";
shapes = (
{
closed = 1;
nodes = (
(1229,-256,l),
(1229,-154,l),
(0,-154,l),
(0,-256,l)
);
}
);
width = 1229;
},
{
layerId = "997BDFA1-EC67-4686-8CFE-E56BDBE179FE";
shapes = (
{
closed = 1;
nodes = (
(1024,-256,l),
(1024,-154,l),
(0,-154,l),
(0,-256,l)
);
}
);
width = 1024;
}
);
unicode = 95;
}
{
glyphname = grave;
layers = (
{
background = {
shapes = (
{
closed = 1;
nodes = (
(460,1007,o),
(472,1019,o),
(472,1044,cs),
(472,1049,o),
(470,1056,o),
(467,1064,cs),
(324,1384,ls),
(317,1400,o),
(308,1405,o),
(294,1405,cs),
(268,1405,o),
(208,1372,o),
(208,1343,cs),
(208,1337,o),
(211,1332,o),
(216,1324,cs),
(395,1034,ls),
(406,1016,o),
(420,1007,o),
(436,1007,cs)
);
}
);
};
layerId = master01;
shapes = (
{
closed = 1;
nodes = (
(492,1009,o),
(467,1064,cs),
(324,1384,ls),
(301,1435,o),
(187,1370,o),
(215,1325,cs),
(395,1034,ls),
(427,982,o)
);
}
);
width = 569;
},
{
background = {
shapes = (
{
closed = 1;
nodes = (
(646,983,o),
(664,996,o),
(664,1017,cs),
(664,1026,o),
(661,1036,o),
(656,1049,cs),
(512,1398,ls),
(502,1421,o),
(476,1424,o),
(462,1424,cs),
(409,1424,o),
(357,1380,o),
(357,1349,cs),
(357,1341,o),
(360,1333,o),
(366,1325,cs),
(585,1007,ls),
(598,989,o),
(617,983,o),
(629,983,cs)
);
}
);
};
layerId = "2438E31C-45B5-47A7-9B3D-1A0FEFB47671";
shapes = (
{
closed = 1;
nodes = (
(677,997,o),
(657,1044,cs),
(508,1405,ls),
(484,1463,o),
(323,1387,o),
(366,1325,cs),
(585,1007,ls),
(626,947,o)
);
}
);
width = 915;
},
{
layerId = "7904EAEE-2B64-409E-B923-0048172372BE";
shapes = (
{
closed = 1;
nodes = (
(425,1022,o),
(405,1067,cs),
(259,1388,ls),
(238,1434,o),
(135,1371,o),
(158,1333,cs),
(338,1032,ls),
(368,982,o)
);
}
);
width = 454;
},
{
background = {
shapes = (
{
closed = 1;
nodes = (
(401,1007,o),
(413,1020,o),
(413,1043,cs),
(413,1050,o),
(410,1060,o),
(406,1069,cs),
(269,1387,ls),
(263,1401,o),
(255,1407,o),
(243,1407,cs),
(214,1407,o),
(166,1368,o),
(166,1337,cs),
(166,1329,o),
(170,1323,o),
(175,1315,cs),
(351,1030,ls),
(362,1012,o),
(375,1007,o),
(385,1007,cs)
);
}
);
};
layerId = "E06D8587-1A71-4EC2-BD94-397D882F5FC1";
shapes = (
{
closed = 1;
nodes = (
(430,1011,o),
(407,1066,cs),
(269,1387,ls),
(250,1430,o),
(137,1376,o),
(169,1325,cs),
(351,1030,ls),
(376,990,o)
);
}
);
width = 490;
},
{
layerId = "8F7CDE40-C368-4484-AA71-76B7ABD5539F";
shapes = (
{
closed = 1;
nodes = (
(487,1019,o),
(467,1064,cs),
(324,1384,ls),
(299,1440,o),
(194,1359,o),
(216,1324,cs),
(395,1034,ls),
(424,987,o)
);
}
);
width = 600;
},
{
layerId = "997BDFA1-EC67-4686-8CFE-E56BDBE179FE";
shapes = (
{
closed = 1;
nodes = (
(492,1009,o),
(467,1064,cs),
(324,1384,ls),
(301,1435,o),
(187,1370,o),
(215,1325,cs),
(395,1034,ls),
(427,982,o)
);
}
);
width = 569;
}
);
unicode = 96;
}
{
color = 9;
glyphname = a;
kernLeft = a;
layers = (
{
anchors = (
{
name = bottom;
pos = (376,0);
},
{
name = ogonek;
pos = (716,15);
},
{
name = ogonek_above;
pos = (570,830);
},
{
name = top;
pos = (601,852);
},
{
name = us;
pos = (757,852);
},
{
name = zzcurly;
pos = (601,814);
}
);
hints = (
{
horizontal = 1;
options = 4;
origin = (0,33);
target = (1,5);
type = TTStem;
},
{
horizontal = 1;
options = 4;
origin = (0,39);
target = (1,15);
type = TTStem;
},
{
horizontal = 1;
options = 4;
origin = (0,39);
target = (0,10);
type = TTShift;
},
{
horizontal = 1;
options = 4;
origin = (1,15);
target = (0,19);
type = TTShift;
}
);
layerId = master01;
shapes = (
{
closed = 1;
nodes = (
(297,-27,o),
(431,79,o),
(590,291,c),
(602,287,l),
(559,172,ls),
(543,129,o),
(535,89,o),
(535,52,cs),
(535,-1,o),
(555,-27,o),
(596,-27,cs),
(685,-27,o),
(824,71,o),
(883,158,cs),
(892,172,o),
(857,212,o),
(842,197,cs),
(778,133,o),
(734,103,o),
(712,103,cs),
(691,103,o),
(680,117,o),
(680,144,cs),
(680,160,o),
(683,180,o),
(690,203,cs),
(878,855,ls),
(888,890,o),
(772,890,o),
(761,858,cs),
(737,788,l),
(696,825,o),
(652,844,o),
(604,844,cs),
(332,844,o),
(63,412,o),
(63,141,cs),
(63,54,o),
(100,-27,o),
(186,-27,cs)
);
},
{
closed = 1;
nodes = (
(231,82,o),
(211,113,o),
(211,176,cs),
(211,377,o),
(384,778,o),
(578,778,cs),
(637,778,o),
(680,750,o),
(709,694,c),
(664,543,ls),
(646,484,o),
(620,426,o),
(582,369,cs),
(524,282,o),
(354,82,o),
(270,82,cs)
);
}
);
width = 918;
},
{
anchors = (
{
name = bottom;
pos = (394,0);
},
{
name = ogonek;
pos = (734,15);
},
{
name = ogonek_above;
pos = (588,830);
},
{
name = top;
pos = (619,852);
},
{
name = us;
pos = (775,852);
},
{
name = zzcurly;
pos = (599,804);
}
);
layerId = "2438E31C-45B5-47A7-9B3D-1A0FEFB47671";
shapes = (
{
closed = 1;
nodes = (
(295,-27,o),
(415,56,o),
(564,221,c),
(576,215,l),
(553,156,ls),
(542,128,o),
(533,96,o),
(533,63,cs),
(533,3,o),
(558,-27,o),
(611,-27,cs),
(683,-27,o),
(843,69,o),
(913,162,cs),
(924,176,o),
(869,222,o),
(857,210,cs),
(810,163,o),
(777,141,o),
(752,141,cs),
(737,141,o),
(730,149,o),
(730,162,cs),
(730,167,o),
(730,173,o),
(737,195,cs),
(937,862,ls),
(947,895,o),
(761,895,o),
(748,862,cs),
(728,813,l),
(697,834,o),
(662,844,o),
(621,844,cs),
(338,844,o),
(43,445,o),
(43,166,cs),
(43,60,o),
(100,-27,o),
(203,-27,cs)
);
},
{
closed = 1;
nodes = (
(281,111,o),
(265,149,o),
(265,227,cs),
(265,413,o),
(432,760,o),
(594,760,cs),
(639,760,o),
(673,744,o),
(695,713,c),
(646,553,ls),
(628,494,o),
(601,433,o),
(566,369,cs),
(514,275,o),
(396,111,o),
(312,111,cs)
);
}
);
width = 933;
},
{
anchors = (
{
name = bottom;
pos = (377,0);
},
{
name = ogonek;
pos = (717,15);
},
{
name = ogonek_above;
pos = (571,830);
},
{
name = top;
pos = (602,852);
},
{
name = us;
pos = (758,852);
},
{
name = zzcurly;
pos = (592,821);
}
);
layerId = "7904EAEE-2B64-409E-B923-0048172372BE";
shapes = (
{
closed = 1;
nodes = (
(302,-27,o),
(441,87,o),
(603,314,c),
(615,311,l),
(565,177,ls),
(547,129,o),
(540,87,o),
(540,48,cs),
(540,-2,o),
(558,-27,o),
(595,-27,cs),
(690,-27,o),
(822,72,o),
(881,163,cs),
(888,175,o),
(856,208,o),
(842,194,cs),
(772,123,o),
(724,90,o),
(703,90,cs),
(680,90,o),
(668,106,o),
(668,138,cs),
(668,158,o),
(672,182,o),
(679,206,cs),
(866,863,ls),
(874,890,o),
(781,890,o),
(772,863,cs),
(744,780,l),
(700,822,o),
(653,844,o),
(603,844,cs),
(334,844,o),
(74,401,o),
(74,133,cs),
(74,52,o),
(104,-27,o),
(185,-27,cs)
);
},
{
closed = 1;
nodes = (
(219,72,o),
(197,101,o),
(197,159,cs),
(197,365,o),
(372,784,o),
(577,784,cs),
(641,784,o),
(687,752,o),
(718,688,c),
(674,540,ls),
(656,481,o),
(631,424,o),
(592,369,cs),
(532,284,o),
(344,72,o),
(260,72,cs)
);
}
);
width = 923;
},
{
anchors = (
{
name = bottom;
pos = (298,0);
},
{
name = ogonek;
pos = (593,15);
},
{
name = ogonek_above;
pos = (467,830);
},
{
name = top;
pos = (493,852);
},
{
name = us;
pos = (629,852);
},
{
name = zzcurly;
pos = (499,814);
}
);
layerId = "E06D8587-1A71-4EC2-BD94-397D882F5FC1";
shapes = (
{
closed = 1;
nodes = (
(251,-27,o),
(353,71,o),
(477,267,c),
(487,262,l),
(459,166,ls),
(448,128,o),
(441,91,o),
(441,56,cs),
(441,1,o),
(459,-27,o),
(496,-27,cs),
(562,-27,o),
(681,72,o),
(736,170,cs),
(744,184,o),
(705,218,o),
(692,201,cs),
(648,143,o),
(614,104,o),
(595,104,cs),
(580,104,o),
(572,116,o),
(572,138,cs),
(572,154,o),
(575,171,o),
(579,188,cs),
(736,860,ls),
(743,891,o),
(626,891,o),
(618,860,cs),
(601,797,l),
(571,828,o),
(540,844,o),
(503,844,cs),
(282,844,o),
(57,423,o),
(57,150,cs),
(57,57,o),
(94,-27,o),
(169,-27,cs)
);
},
{
closed = 1;
nodes = (
(216,82,o),
(202,120,o),
(202,194,cs),
(202,392,o),
(338,778,o),
(481,778,cs),
(525,778,o),
(556,751,o),
(576,701,c),
(539,546,ls),
(525,487,o),
(503,430,o),
(474,369,cs),
(431,279,o),
(312,82,o),
(245,82,cs)
);
}
);
width = 745;
},
{
anchors = (
{
name = bottom;
pos = (382,0);
},
{
name = ogonek;
pos = (865,15);
},
{
name = ogonek_above;
pos = (657,830);
},
{
name = top;
pos = (702,852);
},
{
name = us;
pos = (924,852);
},
{
name = zzcurly;
pos = (685,814);
}
);
layerId = "8F7CDE40-C368-4484-AA71-76B7ABD5539F";
shapes = (
{
closed = 1;
nodes = (
(366,-27,o),
(529,87,o),
(715,315,c),
(729,312,l),
(676,178,ls),
(658,133,o),
(650,93,o),
(650,57,cs),
(650,0,o),
(672,-27,o),
(720,-27,cs),
(833,-27,o),
(989,71,o),
(1048,147,cs),
(1058,160,o),
(1025,206,o),
(1009,193,cs),
(925,122,o),
(871,102,o),
(848,102,cs),
(820,102,o),
(806,120,o),
(806,155,cs),
(806,171,o),
(808,192,o),
(816,218,cs),
(1013,850,ls),
(1025,889,o),
(909,889,o),
(897,856,cs),
(869,779,l),
(815,822,o),
(757,844,o),
(698,844,cs),
(380,844,o),
(87,414,o),
(87,145,cs),
(87,38,o),
(140,-27,o),
(227,-27,cs)
);
},
{
closed = 1;
nodes = (
(261,82,o),
(237,109,o),
(237,169,cs),
(237,376,o),
(430,778,o),
(671,778,cs),
(745,778,o),
(801,749,o),
(841,687,c),
(793,540,ls),
(773,479,o),
(745,422,o),
(700,369,cs),
(630,285,o),
(416,82,o),
(315,82,cs)
);
}
);
width = 1095;
},
{
anchors = (
{
name = bottom;
pos = (387,0);
},
{
name = ogonek;
pos = (828,10);
},
{
name = ogonek_above;
pos = (651,1017);
},
{
name = top;
pos = (698,1051);
},
{
name = us;
pos = (900,1051);
},
{
name = zzcurly;
pos = (677,1009);
}
);
layerId = "997BDFA1-EC67-4686-8CFE-E56BDBE179FE";
shapes = (
{
closed = 1;
nodes = (
(327,-33,o),
(497,105,o),
(696,383,c),
(710,379,l),
(651,217,ls),
(630,159,o),
(619,108,o),
(619,60,cs),
(619,-2,o),
(642,-33,o),
(688,-33,cs),
(802,-33,o),
(941,76,o),
(1032,191,cs),
(1048,212,o),
(1008,254,o),
(990,237,cs),
(904,154,o),
(845,112,o),
(820,112,cs),
(792,112,o),
(778,132,o),
(778,170,cs),
(778,194,o),
(783,224,o),
(791,252,cs),
(1019,1052,ls),
(1031,1093,o),
(914,1092,o),
(901,1052,cs),
(870,957,l),
(816,1011,o),
(757,1038,o),
(697,1038,cs),
(363,1038,o),
(47,490,o),
(47,164,cs),
(47,62,o),
(86,-33,o),
(184,-33,cs)
);
},
{
closed = 1;
nodes = (
(227,90,o),
(201,125,o),
(201,197,cs),
(201,447,o),
(412,964,o),
(665,964,cs),
(742,964,o),
(799,924,o),
(837,844,c),
(783,662,ls),
(762,591,o),
(728,519,o),
(681,451,cs),
(605,341,o),
(378,90,o),
(278,90,cs)
);
}
);
width = 1095;
}
);
unicode = 97;
}
{
color = 9;
glyphname = o;
kernLeft = c;
layers = (
{
anchors = (
{
name = bottom;
pos = (336,0);
},
{
name = center;
pos = (419,428);
},
{
name = ogonek;
pos = (496,10);
},
{
name = ogonek_above;
pos = (459,830);
},
{
name = top;
pos = (582,852);
},
{
name = topright;
pos = (901,856);
},
{
name = us;
pos = (771,850);
},
{
name = zzcurly;
pos = (702,774);
}
);
hints = (
{
horizontal = 1;
options = 4;
origin = (0,5);
target = (1,5);
type = TTStem;
},
{
horizontal = 1;
options = 4;
origin = (0,11);
target = (1,11);
type = TTStem;
}
);
layerId = master01;
shapes = (
{
closed = 1;
nodes = (
(604,-27,o),
(819,263,o),
(819,547,cs),
(819,730,o),
(738,852,o),
(578,852,cs),
(338,852,o),
(96,565,o),
(96,305,cs),
(96,106,o),
(174,-27,o),
(328,-27,cs)
);
},
{
closed = 1;
nodes = (
(257,68,o),
(213,122,o),
(213,231,cs),
(213,439,o),
(422,768,o),
(578,768,cs),
(664,768,o),
(707,708,o),
(707,578,cs),
(707,382,o),
(501,68,o),
(356,68,cs)
);
}
);
width = 838;
},
{
anchors = (
{
name = bottom;
pos = (351,0);
},
{
name = center;
pos = (434,428);
},
{
name = ogonek;
pos = (523,10);
},
{
name = ogonek_above;
pos = (420,830);
},
{
name = top;
pos = (597,856);
},
{
name = topright;
pos = (970,856);
},
{
name = us;
pos = (732,850);
},
{
name = zzcurly;
pos = (713,774);
}
);
layerId = "2438E31C-45B5-47A7-9B3D-1A0FEFB47671";
shapes = (
{
closed = 1;
nodes = (
(637,-27,o),
(870,259,o),
(870,538,cs),
(870,719,o),
(777,852,o),
(592,852,cs),
(335,852,o),
(74,568,o),
(74,315,cs),
(74,119,o),
(167,-27,o),
(342,-27,cs)
);
},
{
closed = 1;
nodes = (
(288,86,o),
(256,125,o),
(256,203,cs),
(256,394,o),
(463,748,o),
(602,748,cs),
(662,748,o),
(692,708,o),
(692,619,cs),
(692,431,o),
(487,86,o),
(362,86,cs)
);
}
);
width = 883;
},
{
anchors = (
{
name = bottom;
pos = (335,0);
},
{
name = center;
pos = (418,428);
},
{
name = ogonek;
pos = (490,10);
},
{
name = ogonek_above;
pos = (476,830);
},
{
name = top;
pos = (581,856);
},
{
name = topright;
pos = (882,856);
},
{
name = us;
pos = (788,850);
},
{
name = zzcurly;
pos = (699,774);
}
);
layerId = "7904EAEE-2B64-409E-B923-0048172372BE";
shapes = (
{
closed = 1;
nodes = (
(597,-27,o),
(806,264,o),
(806,550,cs),
(806,734,o),
(729,852,o),
(577,852,cs),
(343,852,o),
(107,564,o),
(107,302,cs),
(107,102,o),
(180,-27,o),
(327,-27,cs)
);
},
{
closed = 1;
nodes = (
(251,62,o),
(203,121,o),
(203,240,cs),
(203,454,o),
(412,775,o),
(574,775,cs),
(669,775,o),
(716,708,o),
(716,564,cs),
(716,366,o),
(510,62,o),
(358,62,cs)
);
}
);
width = 828;
},
{
anchors = (
{
name = bottom;
pos = (247,0);
},
{
name = center;
pos = (346,428);
},
{
name = ogonek;
pos = (416,10);
},
{
name = ogonek_above;
pos = (441,830);
},
{
name = top;
pos = (445,856);
},
{
name = topright;
pos = (688,856);
},
{
name = us;
pos = (653,850);
},
{
name = zzcurly;
pos = (584,774);
}
);
layerId = "E06D8587-1A71-4EC2-BD94-397D882F5FC1";
shapes = (
{
closed = 1;
nodes = (
(506,-27,o),
(686,262,o),
(686,544,cs),
(686,726,o),
(617,852,o),
(480,852,cs),
(282,852,o),
(82,566,o),
(82,309,cs),
(82,112,o),
(149,-27,o),
(278,-27,cs)
);
},
{
closed = 1;
nodes = (
(230,68,o),
(199,119,o),
(199,221,cs),
(199,425,o),
(366,768,o),
(484,768,cs),
(543,768,o),
(573,713,o),
(573,593,cs),
(573,398,o),
(411,68,o),
(302,68,cs)
);
}
);
width = 703;
},
{
anchors = (
{
name = bottom;
pos = (444,0);
},
{
name = center;
pos = (496,428);
},
{
name = ogonek;
pos = (594,10);
},
{
name = ogonek_above;
pos = (485,830);
},
{
name = top;
pos = (708,848);
},
{
name = topright;
pos = (1003,856);
},
{
name = us;
pos = (797,850);
},
{
name = zzcurly;
pos = (798,774);
}
);
layerId = "8F7CDE40-C368-4484-AA71-76B7ABD5539F";
shapes = (
{
closed = 1;
nodes = (
(715,-27,o),
(952,253,o),
(952,533,cs),
(952,734,o),
(846,852,o),
(665,852,cs),
(388,852,o),
(118,573,o),
(118,314,cs),
(118,101,o),
(223,-27,o),
(398,-27,cs)
);
},
{
closed = 1;
nodes = (
(299,68,o),
(237,128,o),
(237,251,cs),
(237,462,o),
(473,768,o),
(664,768,cs),
(779,768,o),
(840,695,o),
(840,555,cs),
(840,358,o),
(605,68,o),
(426,68,cs)
);
}
);
width = 978;
},
{
anchors = (
{
name = bottom;
pos = (374,6);
},
{
name = center;
pos = (476,531);
},
{
name = ogonek;
pos = (565,18);
},
{
name = ogonek_above;
pos = (433,830);
},
{
name = top;
pos = (675,1051);
},
{
name = topright;
pos = (1047,1051);
},
{
name = us;
pos = (859,1051);
},
{
name = zzcurly;
pos = (790,975);
}
);
layerId = "997BDFA1-EC67-4686-8CFE-E56BDBE179FE";
shapes = (
{
closed = 1;
nodes = (
(696,-27,o),
(954,331,o),
(954,680,cs),
(954,905,o),
(858,1051,o),
(670,1051,cs),
(383,1051,o),
(93,698,o),
(93,376,cs),
(93,131,o),
(183,-27,o),
(364,-27,cs)
);
},
{
closed = 1;
nodes = (
(272,83,o),
(213,155,o),
(213,300,cs),
(213,561,o),
(470,956,o),
(666,956,cs),
(782,956,o),
(840,874,o),
(840,700,cs),
(840,456,o),
(586,83,o),
(401,83,cs)
);
}
);
width = 970;
}
);
unicode = 111;
}
{
color = 9;
glyphname = u;
kernLeft = u;
layers = (
{
anchors = (
{
name = bottom;
pos = (491,0);
},
{
name = center;
pos = (511,499);
},
{
name = ogonek;
pos = (778,10);
},
{
name = ogonek_above;
pos = (283,830);
},
{
name = top;
pos = (579,852);
},
{
name = topright;
pos = (1054,856);
},
{
name = us;
pos = (988,850);
},
{
name = zzcurly;
pos = (871,774);
}
);
guides = (
{
angle = 74.1315;
pos = (643,536);
},
{
pos = (-33,429);
showMeasurement = 1;
}
);
hints = (
{
horizontal = 1;
options = 4;
origin = (0,51);
target = (0,60);
type = TTStem;
},
{
horizontal = 1;
options = 4;
origin = (0,51);
target = (0,29);
type = TTShift;
},
{
horizontal = 1;
options = 4;
origin = (0,73);
target = (0,38);
type = TTStem;
},
{
horizontal = 1;
options = 4;
origin = (0,73);
target = (0,10);
type = TTShift;
},
{
horizontal = 1;
options = 4;
origin = (0,10);
target = (0,19);
type = TTStem;
}
);
layerId = master01;
shapes = (
{
closed = 1;
nodes = (
(350,-27,o),
(529,200,o),
(733,457,c),
(719,467,l),
(638,184,ls),
(617,111,o),
(613,85,o),
(613,58,cs),
(613,2,o),
(631,-27,o),
(674,-27,cs),
(762,-27,o),
(897,92,o),
(953,157,cs),
(964,169,o),
(931,208,o),
(918,197,cs),
(846,135,o),
(804,102,o),
(781,102,cs),
(766,102,o),
(756,115,o),
(756,142,cs),
(756,157,o),
(760,177,o),
(778,240,cs),
(946,831,l),
(946,845,o),
(925,852,o),
(883,852,cs),
(848,852,o),
(828,844,o),
(823,829,cs),
(781,704,o),
(741,608,o),
(702,541,cs),
(607,379,o),
(401,102,o),
(315,102,cs),
(296,102,o),
(287,117,o),
(287,147,cs),
(287,177,o),
(301,239,o),
(328,334,cs),
(418,647,ls),
(435,708,o),
(441,741,o),
(441,769,cs),
(441,823,o),
(422,852,o),
(384,852,cs),
(307,852,o),
(167,734,o),
(111,659,cs),
(102,648,o),
(140,611,o),
(150,621,cs),
(213,684,o),
(253,711,o),
(272,711,cs),
(289,711,o),
(297,696,o),
(297,675,cs),
(297,657,o),
(292,637,o),
(289,625,cs),
(162,180,ls),
(149,133,o),
(142,97,o),
(142,72,cs),
(142,6,o),
(170,-27,o),
(226,-27,cs)
);
}
);
width = 991;
},
{
anchors = (
{
name = bottom;
pos = (459,0);
},
{
name = center;
pos = (500,499);
},
{
name = ogonek;
pos = (782,10);
},
{
name = ogonek_above;
pos = (272,830);
},
{
name = top;
pos = (581,852);
},
{
name = topright;
pos = (1069,856);
},
{
name = us;
pos = (1007,850);
},
{
name = zzcurly;
pos = (890,774);
}
);
layerId = "2438E31C-45B5-47A7-9B3D-1A0FEFB47671";
shapes = (
{
closed = 1;
nodes = (
(354,-27,o),
(562,215,o),
(653,343,c),
(651,365,l),
(610,226,ls),
(586,145,o),
(582,121,o),
(582,89,cs),
(582,22,o),
(614,-27,o),
(681,-27,cs),
(766,-27,o),
(898,89,o),
(965,174,cs),
(977,190,o),
(919,236,o),
(908,222,cs),
(865,168,o),
(836,142,o),
(819,142,cs),
(802,142,o),
(797,151,o),
(797,170,cs),
(797,180,o),
(805,207,o),
(815,240,cs),
(995,825,l),
(995,848,o),
(967,852,o),
(892,852,cs),
(833,852,o),
(802,844,o),
(798,829,cs),
(770,723,o),
(721,615,o),
(659,502,cs),
(611,414,o),
(430,133,o),
(351,133,cs),
(336,133,o),
(329,147,o),
(329,174,cs),
(329,200,o),
(341,253,o),
(366,332,cs),
(456,622,ls),
(477,690,o),
(481,729,o),
(481,760,cs),
(481,820,o),
(444,852,o),
(392,852,cs),
(293,852,o),
(161,738,o),
(101,655,cs),
(89,639,o),
(141,594,o),
(153,606,cs),
(207,660,o),
(235,688,o),
(254,688,cs),
(264,688,o),
(270,682,o),
(270,674,cs),
(270,667,o),
(270,664,o),
(265,647,cs),
(128,209,ls),
(115,166,o),
(108,129,o),
(108,96,cs),
(108,14,o),
(150,-27,o),
(233,-27,cs)
);
}
);
width = 1006;
},
{
anchors = (
{
name = bottom;
pos = (456,0);
},
{
name = center;
pos = (517,499);
},
{
name = ogonek;
pos = (779,10);
},
{
name = ogonek_above;
pos = (289,830);
},
{
name = top;
pos = (581,852);
},
{
name = topright;
pos = (1051,856);
},
{
name = us;
pos = (984,850);
},
{
name = zzcurly;
pos = (867,774);
}
);
layerId = "7904EAEE-2B64-409E-B923-0048172372BE";
shapes = (
{
closed = 1;
nodes = (
(351,-27,o),
(520,195,o),
(762,495,c),
(744,501,l),
(650,170,ls),
(630,100,o),
(626,73,o),
(626,48,cs),
(626,-5,o),
(640,-27,o),
(675,-27,cs),
(764,-27,o),
(898,93,o),
(954,155,cs),
(963,163,o),
(932,198,o),
(922,189,cs),
(844,120,o),
(794,89,o),
(769,89,cs),
(755,89,o),
(743,103,o),
(743,133,cs),
(743,149,o),
(747,167,o),
(767,240,cs),
(932,833,l),
(932,844,o),
(913,852,o),
(882,852,cs),
(855,852,o),
(839,844,o),
(834,829,cs),
(787,698,o),
(750,606,o),
(719,554,cs),
(608,367,o),
(394,92,o),
(305,92,cs),
(285,92,o),
(275,107,o),
(275,138,cs),
(275,169,o),
(290,234,o),
(318,335,cs),
(408,655,ls),
(425,714,o),
(430,745,o),
(430,772,cs),
(430,824,o),
(417,852,o),
(384,852,cs),
(314,852,o),
(169,735,o),
(115,659,cs),
(107,648,o),
(140,615,o),
(153,628,cs),
(217,692,o),
(262,719,o),
(281,719,cs),
(301,719,o),
(309,701,o),
(309,675,cs),
(309,654,o),
(303,628,o),
(300,618,cs),
(176,170,ls),
(163,122,o),
(156,86,o),
(156,64,cs),
(156,3,o),
(179,-27,o),
(226,-27,cs)
);
}
);
width = 988;
},
{
anchors = (
{
name = bottom;
pos = (361,0);
},
{
name = center;
pos = (512,499);
},
{
name = ogonek;
pos = (630,10);
},
{
name = ogonek_above;
pos = (284,830);
},
{
name = top;
pos = (471,852);
},
{
name = topright;
pos = (855,856);
},
{
name = us;
pos = (829,850);
},
{
name = zzcurly;
pos = (712,774);
}
);
layerId = "E06D8587-1A71-4EC2-BD94-397D882F5FC1";
shapes = (
{
closed = 1;
nodes = (
(289,-27,o),
(442,208,o),
(569,422,c),
(561,436,l),
(508,198,ls),
(493,129,o),
(487,99,o),
(487,68,cs),
(487,10,o),
(505,-27,o),
(548,-27,cs),
(617,-27,o),
(722,91,o),
(774,166,cs),
(781,176,o),
(744,213,o),
(735,202,cs),
(687,147,o),
(659,115,o),
(643,115,cs),
(630,115,o),
(624,127,o),
(624,151,cs),
(624,166,o),
(628,187,o),
(640,240,cs),
(779,829,l),
(779,846,o),
(759,852,o),
(716,852,cs),
(679,852,o),
(661,844,o),
(657,827,cs),
(629,710,o),
(594,611,o),
(556,528,cs),
(494,387,o),
(335,102,o),
(268,102,cs),
(254,102,o),
(248,118,o),
(248,146,cs),
(248,177,o),
(258,234,o),
(279,324,cs),
(354,639,ls),
(369,704,o),
(373,738,o),
(373,766,cs),
(373,822,o),
(352,852,o),
(316,852,cs),
(248,852,o),
(137,736,o),
(91,659,cs),
(80,640,o),
(121,607,o),
(134,624,cs),
(175,676,o),
(202,703,o),
(219,703,cs),
(229,703,o),
(235,691,o),
(235,675,cs),
(235,659,o),
(233,646,o),
(230,632,cs),
(127,189,ls),
(116,143,o),
(111,104,o),
(111,79,cs),
(111,9,o),
(137,-27,o),
(190,-27,cs)
);
}
);
width = 805;
},
{
anchors = (
{
name = bottom;
pos = (592,0);
},
{
name = center;
pos = (500,499);
},
{
name = ogonek;
pos = (939,10);
},
{
name = ogonek_above;
pos = (272,830);
},
{
name = top;
pos = (670,852);
},
{
name = topright;
pos = (1236,856);
},
{
name = us;
pos = (1127,850);
},
{
name = zzcurly;
pos = (1010,774);
}
);
layerId = "8F7CDE40-C368-4484-AA71-76B7ABD5539F";
shapes = (
{
closed = 1;
nodes = (
(425,-27,o),
(622,192,o),
(893,492,c),
(873,498,l),
(775,170,ls),
(754,101,o),
(750,73,o),
(750,55,cs),
(750,-4,o),
(770,-27,o),
(814,-27,cs),
(920,-27,o),
(1082,93,o),
(1140,148,cs),
(1154,162,o),
(1124,204,o),
(1108,192,cs),
(1005,117,o),
(956,89,o),
(929,89,cs),
(909,89,o),
(896,108,o),
(896,136,cs),
(896,150,o),
(901,173,o),
(921,240,cs),
(1097,833,l),
(1097,844,o),
(1074,852,o),
(1033,852,cs),
(1001,852,o),
(978,844,o),
(973,831,cs),
(917,687,o),
(880,608,o),
(843,554,cs),
(719,372,o),
(477,102,o),
(371,102,cs),
(347,102,o),
(334,118,o),
(334,151,cs),
(334,183,o),
(349,247,o),
(378,344,cs),
(472,655,ls),
(487,705,o),
(495,738,o),
(495,767,cs),
(495,823,o),
(475,852,o),
(435,852,cs),
(351,852,o),
(191,736,o),
(120,660,cs),
(116,656,o),
(150,613,o),
(157,619,cs),
(237,688,o),
(291,719,o),
(313,719,cs),
(336,719,o),
(348,701,o),
(348,672,cs),
(348,655,o),
(343,631,o),
(339,618,cs),
(204,171,ls),
(190,126,o),
(184,91,o),
(184,69,cs),
(184,6,o),
(216,-27,o),
(276,-27,cs)
);
}
);
width = 1185;
},
{
anchors = (
{
name = bottom;
pos = (585,6);
},
{
name = center;
pos = (511,499);
},
{
name = ogonek;
pos = (935,18);
},
{
name = ogonek_above;
pos = (283,830);
},
{
name = top;
pos = (693,1046);
},
{
name = topright;
pos = (1268,1051);
},
{
name = us;
pos = (1161,1051);
},
{
name = zzcurly;
pos = (1044,975);
}
);
guides = (
{
angle = 74.385;
pos = (430,610);
},
{
angle = 74.4636;
pos = (1024,661);
},
{
angle = 254.4163;
pos = (273,489);
},
{
pos = (173,436);
showMeasurement = 1;
}
);
layerId = "997BDFA1-EC67-4686-8CFE-E56BDBE179FE";
shapes = (
{
closed = 1;
nodes = (
(414,-27,o),
(621,245,o),
(910,605,c),
(889,612,l),
(776,216,ls),
(751,129,o),
(747,95,o),
(747,66,cs),
(747,2,o),
(764,-27,o),
(808,-27,cs),
(916,-27,o),
(1082,119,o),
(1148,193,cs),
(1158,204,o),
(1127,251,o),
(1111,237,cs),
(1017,151,o),
(952,102,o),
(923,102,cs),
(906,102,o),
(891,119,o),
(891,155,cs),
(891,175,o),
(894,195,o),
(919,285,cs),
(1124,1022,l),
(1124,1037,o),
(1101,1046,o),
(1062,1046,cs),
(1028,1046,o),
(1007,1036,o),
(1001,1018,cs),
(945,858,o),
(896,740,o),
(861,681,cs),
(723,449,o),
(464,102,o),
(355,102,cs),
(331,102,o),
(319,121,o),
(319,158,cs),
(319,197,o),
(337,276,o),
(371,398,cs),
(484,805,ls),
(505,880,o),
(512,917,o),
(512,948,cs),
(512,1012,o),
(495,1046,o),
(453,1046,cs),
(367,1046,o),
(192,901,o),
(126,811,cs),
(117,799,o),
(157,757,o),
(170,770,cs),
(260,860,o),
(310,905,o),
(333,905,cs),
(355,905,o),
(366,884,o),
(366,853,cs),
(366,830,o),
(360,802,o),
(355,784,cs),
(197,216,ls),
(180,156,o),
(173,110,o),
(173,85,cs),
(173,10,o),
(202,-27,o),
(260,-27,cs)
);
}
);
width = 1204;
},
{
anchors = (
{
name = bottom;
pos = (339,0);
},
{
name = center;
pos = (508,499);
},
{
name = ogonek;
pos = (626,10);
},
{
name = ogonek_above;
pos = (280,830);
},
{
name = top;
pos = (484,852);
},
{
name = topright;
pos = (861,856);
},
{
name = us;
pos = (865,850);
},
{
name = zzcurly;
pos = (728,774);
}
);
associatedMasterId = "997BDFA1-EC67-4686-8CFE-E56BDBE179FE";
attr = {
coordinates = (
700,
75,
0
);
};
hints = (
{
horizontal = 1;
options = 4;
origin = (0,51);
target = (0,60);
type = TTStem;
},
{
horizontal = 1;
options = 4;
origin = (0,51);
target = (0,29);
type = TTShift;
},
{
horizontal = 1;
options = 4;
origin = (0,73);
target = (0,38);
type = TTStem;
},
{
horizontal = 1;
options = 4;
origin = (0,73);
target = (0,10);
type = TTShift;
},
{
horizontal = 1;
options = 4;
origin = (0,10);
target = (0,19);
type = TTStem;
}
);
layerId = "655BD51C-CBDA-4141-BF95-D5ABECF4CFBA";
name = "Nov 17, 21, 23:50";
shapes = (
{
closed = 1;
nodes = (
(285,-27,o),
(447,207,o),
(481,305,c),
(492,303,l),
(476,240,ls),
(455,157,o),
(450,134,o),
(450,95,cs),
(450,29,o),
(481,-27,o),
(547,-27,cs),
(614,-27,o),
(717,88,o),
(782,184,cs),
(791,197,o),
(748,227,o),
(741,215,cs),
(713,171,o),
(687,155,o),
(675,155,cs),
(662,155,o),
(660,160,o),
(660,177,cs),
(660,188,o),
(666,213,o),
(674,240,cs),
(838,823,l),
(838,849,o),
(812,852,o),
(736,852,cs),
(674,852,o),
(646,844,o),
(643,827,cs),
(628,736,o),
(581,614,o),
(527,489,cs),
(499,425,o),
(361,133,o),
(299,133,cs),
(289,133,o),
(285,147,o),
(285,171,cs),
(285,196,o),
(296,246,o),
(317,322,cs),
(399,614,ls),
(420,690,o),
(422,730,o),
(422,760,cs),
(422,820,o),
(385,852,o),
(335,852,cs),
(244,852,o),
(135,738,o),
(88,654,cs),
(74,629,o),
(131,590,o),
(143,609,cs),
(172,655,o),
(193,680,o),
(209,680,cs),
(213,680,o),
(215,677,o),
(215,671,cs),
(215,667,o),
(214,661,o),
(212,654,cs),
(89,218,ls),
(77,174,o),
(71,135,o),
(71,101,cs),
(71,15,o),
(109,-27,o),
(189,-27,cs)
);
}
);
width = 815;
}
);
unicode = 117;
}
{
color = 9;
glyphname = w;
kernLeft = u;
layers = (
{
anchors = (
{
name = bottom;
pos = (588,0);
},
{
name = top;
pos = (814,856);
},
{
name = us;
pos = (1263,850);
},
{
name = zzcurly;
pos = (1171,774);
}
);
guides = (
{
angle = 254.2914;
pos = (754,593);
}
);
hints = (
{
horizontal = 1;
options = 4;
origin = (0,81);
target = (0,46);
type = TTStem;
},
{
horizontal = 1;
options = 4;
origin = (0,46);
target = (0,26);
type = TTShift;
},
{
horizontal = 1;
options = 4;
origin = (0,81);
target = (0,5);
type = TTShift;
},
{
horizontal = 1;
options = 4;
origin = (0,59);
target = (0,68);
type = TTStem;
},
{
horizontal = 1;
options = 4;
origin = (0,59);
target = (0,36);
type = TTShift;
},
{
horizontal = 1;
options = 4;
origin = (0,59);
target = (0,14);
type = TTShift;
}
);
layerId = master01;
shapes = (
{
closed = 1;
nodes = (
(354,-27,o),
(468,26,o),
(577,137,c),
(564,33,o),
(571,-27,o),
(675,-27,cs),
(873,-27,o),
(1076,188,o),
(1181,430,cs),
(1223,527,o),
(1248,627,o),
(1248,705,cs),
(1248,771,o),
(1222,852,o),
(1152,852,cs),
(1105,852,o),
(1082,827,o),
(1082,778,c),
(1107,728,o),
(1119,663,o),
(1119,584,cs),
(1119,462,o),
(1077,347,o),
(980,224,cs),
(906,130,o),
(840,76,o),
(775,76,cs),
(731,76,o),
(700,100,o),
(700,147,cs),
(700,163,o),
(703,183,o),
(720,244,cs),
(881,827,l),
(881,843,o),
(862,852,o),
(823,852,cs),
(786,852,o),
(764,840,o),
(757,817,cs),
(631,369,ls),
(614,308,o),
(590,260,o),
(559,218,cs),
(519,164,o),
(436,76,o),
(365,76,cs),
(311,76,o),
(284,100,o),
(284,147,cs),
(284,164,o),
(288,184,o),
(311,264,cs),
(419,647,ls),
(436,708,o),
(442,741,o),
(442,769,cs),
(442,823,o),
(423,852,o),
(385,852,cs),
(308,852,o),
(168,734,o),
(114,663,cs),
(103,648,o),
(141,611,o),
(155,625,cs),
(214,684,o),
(254,711,o),
(273,711,cs),
(290,711,o),
(298,696,o),
(298,675,cs),
(298,657,o),
(293,637,o),
(290,625,cs),
(171,204,ls),
(149,127,o),
(147,110,o),
(147,90,cs),
(147,32,o),
(186,-27,o),
(259,-27,cs)
);
}
);
width = 1240;
},
{
anchors = (
{
name = bottom;
pos = (598,0);
},
{
name = top;
pos = (823,856);
},
{
name = us;
pos = (1254,850);
},
{
name = zzcurly;
pos = (1162,774);
}
);
layerId = "2438E31C-45B5-47A7-9B3D-1A0FEFB47671";
shapes = (
{
closed = 1;
nodes = (
(363,-27,o),
(461,-2,o),
(557,60,c),
(567,19,o),
(599,-27,o),
(689,-27,cs),
(876,-27,o),
(1091,180,o),
(1201,423,cs),
(1247,523,o),
(1275,626,o),
(1275,707,cs),
(1275,780,o),
(1243,852,o),
(1156,852,cs),
(1088,852,o),
(1054,816,o),
(1054,743,c),
(1087,686,o),
(1103,625,o),
(1103,561,cs),
(1103,460,o),
(1066,356,o),
(983,240,cs),
(914,142,o),
(857,88,o),
(801,88,cs),
(763,88,o),
(734,113,o),
(734,162,cs),
(734,175,o),
(737,192,o),
(762,274,cs),
(933,829,l),
(933,844,o),
(900,852,o),
(837,852,cs),
(774,852,o),
(740,842,o),
(734,823,cs),
(601,381,ls),
(584,325,o),
(562,276,o),
(532,225,cs),
(495,160,o),
(444,88,o),
(376,88,cs),
(341,88,o),
(323,111,o),
(323,158,cs),
(323,177,o),
(325,195,o),
(354,288,cs),
(458,622,ls),
(479,690,o),
(483,729,o),
(483,760,cs),
(483,820,o),
(446,852,o),
(394,852,cs),
(295,852,o),
(163,738,o),
(102,654,cs),
(90,638,o),
(140,591,o),
(156,607,cs),
(209,660,o),
(237,688,o),
(256,688,cs),
(266,688,o),
(272,682,o),
(272,674,cs),
(272,667,o),
(272,664,o),
(267,647,cs),
(142,239,ls),
(114,148,o),
(110,125,o),
(110,104,cs),
(110,23,o),
(146,-27,o),
(274,-27,cs)
);
}
);
width = 1256;
},
{
anchors = (
{
name = bottom;
pos = (583,0);
},
{
name = top;
pos = (816,856);
},
{
name = us;
pos = (1259,850);
},
{
name = zzcurly;
pos = (1167,774);
}
);
guides = (
{
angle = 254.2914;
pos = (750,593);
}
);
layerId = "7904EAEE-2B64-409E-B923-0048172372BE";
shapes = (
{
closed = 1;
nodes = (
(362,-27,o),
(479,30,o),
(592,158,c),
(572,49,o),
(563,-27,o),
(679,-27,cs),
(874,-27,o),
(1074,191,o),
(1176,432,cs),
(1217,528,o),
(1241,627,o),
(1241,704,cs),
(1241,768,o),
(1217,852,o),
(1152,852,cs),
(1112,852,o),
(1093,831,o),
(1093,790,c),
(1115,742,o),
(1126,676,o),
(1126,592,cs),
(1126,463,o),
(1081,344,o),
(977,216,cs),
(904,127,o),
(832,72,o),
(763,72,cs),
(718,72,o),
(690,96,o),
(690,142,cs),
(690,159,o),
(694,180,o),
(718,269,cs),
(865,826,l),
(865,843,o),
(851,852,o),
(820,852,cs),
(792,852,o),
(773,839,o),
(766,815,cs),
(643,365,ls),
(626,302,o),
(601,255,o),
(569,215,cs),
(529,165,o),
(435,72,o),
(347,72,cs),
(303,72,o),
(273,96,o),
(273,137,cs),
(273,160,o),
(283,204,o),
(301,270,cs),
(408,655,ls),
(424,714,o),
(430,745,o),
(430,772,cs),
(430,824,o),
(417,852,o),
(384,852,cs),
(314,852,o),
(169,735,o),
(119,665,cs),
(110,652,o),
(144,619,o),
(156,631,cs),
(217,692,o),
(261,719,o),
(280,719,cs),
(300,719,o),
(308,701,o),
(308,675,cs),
(308,654,o),
(302,628,o),
(299,618,cs),
(182,193,ls),
(171,155,o),
(161,114,o),
(161,85,cs),
(161,35,o),
(193,-27,o),
(278,-27,cs)
);
}
);
width = 1239;
},
{
anchors = (
{
name = bottom;
pos = (477,0);
},
{
name = top;
pos = (602,857);
},
{
name = us;
pos = (1035,850);
},
{
name = zzcurly;
pos = (943,774);
}
);
layerId = "E06D8587-1A71-4EC2-BD94-397D882F5FC1";
shapes = (
{
closed = 1;
nodes = (
(293,-27,o),
(379,17,o),
(462,111,c),
(458,28,o),
(474,-27,o),
(551,-27,cs),
(706,-27,o),
(872,185,o),
(958,427,cs),
(993,525,o),
(1014,627,o),
(1014,706,cs),
(1014,774,o),
(991,852,o),
(930,852,cs),
(885,852,o),
(863,823,o),
(863,766,c),
(886,714,o),
(896,648,o),
(896,576,cs),
(896,463,o),
(865,350,o),
(792,230,cs),
(734,134,o),
(684,80,o),
(635,80,cs),
(602,80,o),
(578,105,o),
(578,152,cs),
(578,169,o),
(581,186,o),
(596,252,cs),
(729,828,l),
(729,843,o),
(709,852,o),
(670,852,cs),
(633,852,o),
(610,841,o),
(605,819,cs),
(501,373,ls),
(487,314,o),
(471,270,o),
(444,220,cs),
(411,159,o),
(357,80,o),
(303,80,cs),
(265,80,o),
(246,104,o),
(246,150,cs),
(246,169,o),
(251,191,o),
(270,273,cs),
(355,639,ls),
(368,695,o),
(374,733,o),
(374,766,cs),
(374,821,o),
(353,852,o),
(317,852,cs),
(250,852,o),
(140,737,o),
(92,657,cs),
(85,645,o),
(124,610,o),
(134,623,cs),
(176,676,o),
(204,703,o),
(220,703,cs),
(230,703,o),
(237,691,o),
(237,675,cs),
(237,659,o),
(234,646,o),
(231,632,cs),
(133,213,ls),
(116,141,o),
(112,116,o),
(112,94,cs),
(112,29,o),
(143,-27,o),
(217,-27,cs)
);
}
);
width = 1009;
},
{
anchors = (
{
name = bottom;
pos = (724,0);
},
{
name = top;
pos = (1009,855);
},
{
name = us;
pos = (1471,850);
},
{
name = zzcurly;
pos = (1379,774);
}
);
guides = (
{
angle = 252.7358;
pos = (885,593);
}
);
layerId = "8F7CDE40-C368-4484-AA71-76B7ABD5539F";
shapes = (
{
closed = 1;
nodes = (
(429,-27,o),
(568,35,o),
(699,163,c),
(681,38,o),
(682,-27,o),
(812,-27,cs),
(1052,-27,o),
(1286,191,o),
(1401,432,cs),
(1442,518,o),
(1470,615,o),
(1470,693,cs),
(1470,767,o),
(1436,852,o),
(1357,852,cs),
(1308,852,o),
(1284,831,o),
(1286,790,c),
(1317,738,o),
(1334,661,o),
(1334,575,cs),
(1334,454,o),
(1287,339,o),
(1173,218,cs),
(1086,126,o),
(1005,72,o),
(925,72,cs),
(869,72,o),
(829,96,o),
(829,145,cs),
(829,159,o),
(833,184,o),
(848,236,cs),
(1017,826,l),
(1016,843,o),
(997,852,o),
(959,852,cs),
(922,852,o),
(900,839,o),
(893,815,cs),
(761,365,ls),
(743,304,o),
(713,251,o),
(679,216,cs),
(634,169,o),
(524,72,o),
(437,72,cs),
(366,72,o),
(329,97,o),
(329,147,cs),
(329,160,o),
(333,181,o),
(355,255,cs),
(473,655,ls),
(491,716,o),
(495,745,o),
(495,767,cs),
(495,824,o),
(475,852,o),
(436,852,cs),
(349,852,o),
(183,731,o),
(125,669,cs),
(109,652,o),
(149,612,o),
(166,627,cs),
(240,692,o),
(293,719,o),
(313,719,cs),
(336,719,o),
(348,702,o),
(348,672,cs),
(348,655,o),
(344,632,o),
(340,618,cs),
(215,195,ls),
(194,125,o),
(191,106,o),
(191,94,cs),
(191,28,o),
(248,-27,o),
(314,-27,cs)
);
}
);
width = 1473;
},
{
anchors = (
{
name = bottom;
pos = (704,6);
},
{
name = top;
pos = (983,1051);
},
{
name = us;
pos = (1496,1051);
},
{
name = zzcurly;
pos = (1404,975);
}
);
layerId = "997BDFA1-EC67-4686-8CFE-E56BDBE179FE";
shapes = (
{
closed = 1;
nodes = (
(421,-27,o),
(566,47,o),
(704,202,c),
(680,57,o),
(676,-27,o),
(811,-27,cs),
(1057,-27,o),
(1301,240,o),
(1428,536,cs),
(1479,655,o),
(1507,774,o),
(1507,870,cs),
(1507,948,o),
(1478,1051,o),
(1398,1051,cs),
(1349,1051,o),
(1325,1024,o),
(1325,973,c),
(1352,915,o),
(1366,834,o),
(1366,731,cs),
(1366,574,o),
(1313,429,o),
(1187,274,cs),
(1096,162,o),
(1010,94,o),
(926,94,cs),
(871,94,o),
(833,124,o),
(833,180,cs),
(833,201,o),
(838,229,o),
(858,304,cs),
(1048,1019,l),
(1048,1040,o),
(1029,1051,o),
(991,1051,cs),
(956,1051,o),
(932,1035,o),
(924,1006,cs),
(773,454,ls),
(752,377,o),
(720,317,o),
(684,272,cs),
(633,208,o),
(518,94,o),
(426,94,cs),
(357,94,o),
(321,125,o),
(321,180,cs),
(321,202,o),
(328,235,o),
(353,325,cs),
(487,809,ls),
(507,881,o),
(514,921,o),
(514,952,cs),
(514,1016,o),
(497,1051,o),
(456,1051,cs),
(369,1051,o),
(195,905,o),
(131,822,cs),
(118,805,o),
(160,763,o),
(177,780,cs),
(251,854,o),
(306,887,o),
(328,887,cs),
(352,887,o),
(362,865,o),
(362,834,cs),
(362,807,o),
(356,782,o),
(351,765,cs),
(208,243,ls),
(186,164,o),
(182,139,o),
(182,111,cs),
(182,48,o),
(229,-27,o),
(305,-27,cs)
);
}
);
width = 1486;
}
);
metricLeft = i;
unicode = 119;
}
{
glyphname = currency;
layers = (
{
layerId = master01;
shapes = (
{
closed = 1;
nodes = (
(611,234,o),
(697,263,o),
(774,322,c),
(852,243,ls),
(854,241,o),
(856,240,o),
(859,240,cs),
(881,240,o),
(938,307,o),
(938,322,cs),
(938,324,o),
(937,326,o),
(936,327,cs),
(858,406,l),
(917,483,o),
(946,570,o),
(946,668,cs),
(946,766,o),
(917,853,o),
(858,930,c),
(936,1008,ls),
(937,1009,o),
(938,1011,o),
(938,1014,cs),
(938,1033,o),
(881,1095,o),
(859,1095,cs),
(856,1095,o),
(854,1094,o),
(852,1092,cs),
(774,1013,l),
(697,1072,o),
(610,1101,o),
(513,1101,cs),
(415,1101,o),
(328,1072,o),
(251,1013,c),
(172,1092,ls),
(171,1093,o),
(169,1094,o),
(166,1094,cs),
(147,1094,o),
(86,1031,o),
(86,1013,cs),
(86,1011,o),
(87,1009,o),
(88,1008,cs),
(167,928,l),
(109,851,o),
(80,764,o),
(80,667,cs),
(80,570,o),
(109,484,o),
(167,407,c),
(88,327,ls),
(87,326,o),
(86,324,o),
(86,321,cs),
(86,305,o),
(145,240,o),
(165,240,cs),
(168,240,o),
(170,241,o),
(172,243,cs),
(251,323,l),
(330,264,o),
(417,234,o),
(514,234,cs)
);
},
{
closed = 1;
nodes = (
(323,321,o),
(167,474,o),
(167,669,cs),
(167,860,o),
(318,1014,o),
(514,1014,cs),
(707,1014,o),
(860,861,o),
(860,668,cs),
(860,472,o),
(704,321,o),
(514,321,cs)
);
}
);
width = 1024;
},
{
layerId = "2438E31C-45B5-47A7-9B3D-1A0FEFB47671";
shapes = (
{
closed = 1;
nodes = (
(606,233,o),
(695,262,o),
(774,322,c),
(852,244,ls),
(853,243,o),
(855,242,o),
(857,242,cs),
(874,242,o),
(938,305,o),
(938,323,cs),
(938,325,o),
(937,327,o),
(936,328,cs),
(858,406,l),
(917,484,o),
(946,571,o),
(946,668,cs),
(946,765,o),
(917,852,o),
(858,930,c),
(936,1008,ls),
(937,1009,o),
(938,1011,o),
(938,1014,cs),
(938,1030,o),
(875,1094,o),
(857,1094,cs),
(855,1094,o),
(853,1093,o),
(852,1092,cs),
(774,1014,l),
(696,1073,o),
(609,1102,o),
(512,1102,cs),
(417,1102,o),
(330,1072,o),
(252,1012,c),
(172,1092,ls),
(171,1093,o),
(169,1094,o),
(167,1094,cs),
(150,1094,o),
(86,1030,o),
(86,1014,cs),
(86,1011,o),
(87,1009,o),
(88,1008,cs),
(168,928,l),
(109,851,o),
(80,765,o),
(80,668,cs),
(80,571,o),
(109,485,o),
(168,408,c),
(88,328,ls),
(87,327,o),
(86,325,o),
(86,323,cs),
(86,305,o),
(150,242,o),
(166,242,cs),
(169,242,o),
(171,243,o),
(172,244,cs),
(252,324,l),
(329,264,o),
(414,233,o),
(509,233,cs)
);
},
{
closed = 1;
nodes = (
(336,356,o),
(201,496,o),
(201,668,cs),
(201,841,o),
(339,979,o),
(512,979,cs),
(688,979,o),
(825,841,o),
(825,668,cs),
(825,497,o),
(691,356,o),
(512,356,cs)
);
}
);
width = 1024;
},
{
layerId = "7904EAEE-2B64-409E-B923-0048172372BE";
shapes = (
{
closed = 1;
nodes = (
(613,234,o),
(698,263,o),
(774,322,c),
(852,243,ls),
(854,240,o),
(856,239,o),
(860,239,cs),
(883,239,o),
(938,308,o),
(938,322,cs),
(938,324,o),
(937,326,o),
(936,327,cs),
(858,406,l),
(917,483,o),
(946,570,o),
(946,668,cs),
(946,766,o),
(917,853,o),
(858,930,c),
(936,1008,ls),
(937,1009,o),
(938,1011,o),
(938,1014,cs),
(938,1034,o),
(883,1095,o),
(860,1095,cs),
(856,1095,o),
(854,1094,o),
(852,1092,cs),
(774,1013,l),
(697,1072,o),
(610,1101,o),
(513,1101,cs),
(414,1101,o),
(327,1072,o),
(251,1013,c),
(172,1092,ls),
(171,1093,o),
(169,1094,o),
(166,1094,cs),
(146,1094,o),
(86,1031,o),
(86,1013,cs),
(86,1011,o),
(87,1009,o),
(88,1008,cs),
(167,928,l),
(109,851,o),
(80,764,o),
(80,667,cs),
(80,570,o),
(109,484,o),
(167,407,c),
(88,327,ls),
(87,326,o),
(86,324,o),
(86,320,cs),
(86,305,o),
(143,239,o),
(165,239,cs),
(168,239,o),
(170,240,o),
(172,243,cs),
(251,323,l),
(330,264,o),
(418,234,o),
(516,234,cs)
);
},
{
closed = 1;
nodes = (
(319,309,o),
(156,467,o),
(156,669,cs),
(156,866,o),
(311,1026,o),
(515,1026,cs),
(713,1026,o),
(872,868,o),
(872,668,cs),
(872,464,o),
(708,309,o),
(515,309,cs)
);
}
);
width = 1024;
},
{
layerId = "E06D8587-1A71-4EC2-BD94-397D882F5FC1";
shapes = (
{
closed = 1;
nodes = (
(488,234,o),
(557,263,o),
(619,322,c),
(682,243,ls),
(684,241,o),
(685,241,o),
(686,241,cs),
(702,241,o),
(750,306,o),
(750,322,cs),
(750,324,o),
(750,326,o),
(749,327,cs),
(686,406,l),
(734,483,o),
(757,571,o),
(757,668,cs),
(757,765,o),
(734,853,o),
(686,930,c),
(749,1008,ls),
(750,1009,o),
(750,1011,o),
(750,1014,cs),
(750,1032,o),
(703,1095,o),
(686,1095,cs),
(685,1095,o),
(683,1094,o),
(682,1092,cs),
(619,1013,l),
(558,1072,o),
(488,1101,o),
(410,1101,cs),
(333,1101,o),
(263,1072,o),
(201,1013,c),
(138,1092,ls),
(136,1094,o),
(135,1094,o),
(133,1094,cs),
(119,1094,o),
(69,1030,o),
(69,1013,cs),
(69,1012,o),
(69,1009,o),
(70,1008,cs),
(134,928,l),
(87,851,o),
(64,764,o),
(64,667,cs),
(64,571,o),
(87,484,o),
(134,407,c),
(70,327,ls),
(70,327,o),
(69,324,o),
(69,322,cs),
(69,305,o),
(118,241,o),
(132,241,cs),
(134,241,o),
(137,241,o),
(138,243,cs),
(201,323,l),
(264,264,o),
(333,234,o),
(409,234,cs)
);
},
{
closed = 1;
nodes = (
(262,333,o),
(145,482,o),
(145,669,cs),
(145,853,o),
(261,1002,o),
(410,1002,cs),
(560,1002,o),
(676,853,o),
(676,668,cs),
(676,481,o),
(559,333,o),
(410,333,cs)
);
}
);
width = 819;
},
{
layerId = "8F7CDE40-C368-4484-AA71-76B7ABD5539F";
shapes = (
{
closed = 1;
nodes = (
(734,234,o),
(837,263,o),
(929,322,c),
(1022,243,ls),
(1024,241,o),
(1027,239,o),
(1032,239,cs),
(1060,239,o),
(1126,308,o),
(1126,322,cs),
(1126,324,o),
(1124,326,o),
(1123,327,cs),
(1030,406,l),
(1100,483,o),
(1135,569,o),
(1135,668,cs),
(1135,767,o),
(1100,853,o),
(1030,930,c),
(1123,1008,ls),
(1124,1009,o),
(1126,1011,o),
(1126,1014,cs),
(1126,1034,o),
(1059,1095,o),
(1032,1095,cs),
(1027,1095,o),
(1025,1094,o),
(1022,1092,cs),
(929,1013,l),
(836,1072,o),
(732,1101,o),
(616,1101,cs),
(497,1101,o),
(393,1072,o),
(301,1013,c),
(206,1092,ls),
(206,1092,o),
(203,1094,o),
(199,1094,cs),
(175,1094,o),
(103,1032,o),
(103,1013,cs),
(103,1010,o),
(105,1009,o),
(106,1008,cs),
(200,928,l),
(131,851,o),
(96,764,o),
(96,667,cs),
(96,569,o),
(131,484,o),
(200,407,c),
(106,327,ls),
(104,325,o),
(103,324,o),
(103,320,cs),
(103,305,o),
(172,239,o),
(198,239,cs),
(202,239,o),
(203,241,o),
(206,243,cs),
(301,323,l),
(396,264,o),
(501,234,o),
(619,234,cs)
);
},
{
closed = 1;
nodes = (
(384,309,o),
(189,466,o),
(189,669,cs),
(189,867,o),
(375,1026,o),
(618,1026,cs),
(854,1026,o),
(1044,869,o),
(1044,668,cs),
(1044,463,o),
(849,309,o),
(618,309,cs)
);
}
);
width = 1229;
},
{
layerId = "997BDFA1-EC67-4686-8CFE-E56BDBE179FE";
shapes = (
{
closed = 1;
nodes = (
(611,234,o),
(697,263,o),
(774,322,c),
(852,243,ls),
(854,241,o),
(856,240,o),
(859,240,cs),
(881,240,o),
(938,307,o),
(938,322,cs),
(938,324,o),
(937,326,o),
(936,327,cs),
(858,406,l),
(917,483,o),
(946,570,o),
(946,668,cs),
(946,766,o),
(917,853,o),
(858,930,c),
(936,1008,ls),
(937,1009,o),
(938,1011,o),
(938,1014,cs),
(938,1033,o),
(881,1095,o),
(859,1095,cs),
(856,1095,o),
(854,1094,o),
(852,1092,cs),
(774,1013,l),
(697,1072,o),
(610,1101,o),
(513,1101,cs),
(415,1101,o),
(328,1072,o),
(251,1013,c),
(172,1092,ls),
(171,1093,o),
(169,1094,o),
(166,1094,cs),
(147,1094,o),
(86,1031,o),
(86,1013,cs),
(86,1011,o),
(87,1009,o),
(88,1008,cs),
(167,928,l),
(109,851,o),
(80,764,o),
(80,667,cs),
(80,570,o),
(109,484,o),
(167,407,c),
(88,327,ls),
(87,326,o),
(86,324,o),
(86,321,cs),
(86,305,o),
(145,240,o),
(165,240,cs),
(168,240,o),
(170,241,o),
(172,243,cs),
(251,323,l),
(330,264,o),
(417,234,o),
(514,234,cs)
);
},
{
closed = 1;
nodes = (
(323,321,o),
(167,474,o),
(167,669,cs),
(167,860,o),
(318,1014,o),
(514,1014,cs),
(707,1014,o),
(860,861,o),
(860,668,cs),
(860,472,o),
(704,321,o),
(514,321,cs)
);
}
);
width = 1024;
}
);
unicode = 164;
}
{
glyphname = yen;
layers = (
{
layerId = master01;
shapes = (
{
closed = 1;
nodes = (
(334,-2,o),
(414,0,o),
(515,0,cs),
(616,0,o),
(695,-2,o),
(753,-7,c),
(764,-7,o),
(781,26,o),
(781,48,cs),
(781,62,o),
(778,69,o),
(773,69,cs),
(707,69,o),
(633,80,o),
(633,126,cs),
(633,145,o),
(636,165,o),
(642,186,cs),
(728,487,ls),
(748,557,o),
(777,612,o),
(815,653,cs),
(1196,1059,ls),
(1383,1258,o),
(1411,1287,o),
(1551,1287,cs),
(1563,1287,o),
(1580,1321,o),
(1580,1343,cs),
(1580,1356,o),
(1578,1363,o),
(1573,1363,c),
(1523,1360,o),
(1456,1358,o),
(1372,1358,cs),
(1287,1358,o),
(1223,1360,o),
(1179,1363,c),
(1166,1363,o),
(1150,1332,o),
(1150,1309,cs),
(1150,1294,o),
(1152,1287,o),
(1157,1287,cs),
(1224,1287,o),
(1257,1274,o),
(1257,1247,cs),
(1257,1227,o),
(1240,1199,o),
(1207,1163,cs),
(762,686,ls),
(753,676,o),
(745,671,o),
(738,671,cs),
(731,671,o),
(726,677,o),
(722,689,cs),
(571,1172,ls),
(565,1191,o),
(562,1207,o),
(562,1222,cs),
(562,1278,o),
(623,1287,o),
(705,1287,cs),
(716,1287,o),
(733,1320,o),
(733,1342,cs),
(733,1356,o),
(731,1363,o),
(726,1363,c),
(694,1360,o),
(621,1358,o),
(508,1358,cs),
(395,1358,o),
(323,1360,o),
(292,1363,c),
(281,1363,o),
(264,1330,o),
(264,1308,cs),
(264,1294,o),
(266,1287,o),
(271,1287,cs),
(361,1287,o),
(400,1261,o),
(428,1172,cs),
(579,689,ls),
(594,640,o),
(602,604,o),
(602,581,cs),
(602,558,o),
(593,515,o),
(575,452,cs),
(499,186,ls),
(469,80,o),
(418,69,o),
(298,69,cs),
(287,69,o),
(270,36,o),
(270,14,cs),
(270,0,o),
(272,-7,o),
(277,-7,c)
);
},
{
closed = 1;
nodes = (
(1124,472,ls),
(1134,472,o),
(1139,489,o),
(1139,522,cs),
(1139,555,o),
(1134,572,o),
(1124,572,cs),
(233,572,ls),
(223,572,o),
(218,555,o),
(218,522,cs),
(218,489,o),
(223,472,o),
(233,472,cs)
);
},
{
closed = 1;
nodes = (
(631,737,l),
(600,839,l),
(294,839,ls),
(284,839,o),
(279,822,o),
(279,788,cs),
(279,754,o),
(284,737,o),
(294,737,cs)
);
},
{
closed = 1;
nodes = (
(1185,737,ls),
(1195,737,o),
(1200,754,o),
(1200,788,cs),
(1200,822,o),
(1195,839,o),
(1185,839,cs),
(947,839,l),
(853,737,l)
);
}
);
width = 1228;
},
{
layerId = "2438E31C-45B5-47A7-9B3D-1A0FEFB47671";
shapes = (
{
closed = 1;
nodes = (
(282,-3,o),
(370,0,o),
(495,0,cs),
(620,0,o),
(707,-3,o),
(758,-8,c),
(775,-8,o),
(789,57,o),
(789,73,cs),
(789,81,o),
(787,86,o),
(782,86,cs),
(699,86,o),
(654,108,o),
(657,150,cs),
(658,166,o),
(661,183,o),
(666,201,cs),
(754,508,ls),
(771,569,o),
(793,614,o),
(819,641,cs),
(1198,1044,ls),
(1349,1205,o),
(1396,1270,o),
(1554,1270,cs),
(1577,1270,o),
(1586,1336,o),
(1586,1351,cs),
(1586,1360,o),
(1584,1364,o),
(1579,1364,c),
(1540,1360,o),
(1468,1358,o),
(1364,1358,cs),
(1260,1358,o),
(1189,1360,o),
(1151,1364,c),
(1135,1364,o),
(1119,1293,o),
(1119,1283,cs),
(1119,1274,o),
(1121,1270,o),
(1126,1270,cs),
(1189,1270,o),
(1221,1258,o),
(1221,1235,cs),
(1221,1217,o),
(1206,1190,o),
(1174,1157,cs),
(786,752,ls),
(773,739,o),
(764,731,o),
(755,731,cs),
(746,731,o),
(738,739,o),
(733,754,cs),
(602,1157,ls),
(595,1180,o),
(592,1199,o),
(592,1214,cs),
(592,1251,o),
(632,1270,o),
(713,1270,cs),
(728,1270,o),
(742,1332,o),
(742,1349,cs),
(742,1359,o),
(739,1364,o),
(733,1364,c),
(695,1360,o),
(611,1358,o),
(480,1358,cs),
(349,1358,o),
(265,1360,o),
(227,1364,c),
(206,1364,o),
(199,1296,o),
(199,1283,cs),
(199,1274,o),
(202,1270,o),
(207,1270,cs),
(304,1270,o),
(331,1242,o),
(365,1139,cs),
(516,678,ls),
(529,640,o),
(537,610,o),
(537,589,cs),
(537,568,o),
(529,529,o),
(512,473,cs),
(434,217,ls),
(402,112,o),
(373,86,o),
(256,86,cs),
(239,86,o),
(225,20,o),
(225,6,cs),
(225,-3,o),
(227,-8,o),
(231,-8,c)
);
},
{
closed = 1;
nodes = (
(1104,465,ls),
(1113,465,o),
(1123,484,o),
(1132,518,cs),
(1141,552,o),
(1141,569,o),
(1133,569,cs),
(186,569,ls),
(178,569,o),
(169,552,o),
(159,518,cs),
(149,484,o),
(149,465,o),
(160,465,cs)
);
},
{
closed = 1;
nodes = (
(612,752,l),
(577,856,l),
(264,856,ls),
(255,856,o),
(245,839,o),
(236,805,cs),
(227,771,o),
(227,752,o),
(236,752,cs)
);
},
{
closed = 1;
nodes = (
(1180,752,ls),
(1191,752,o),
(1200,771,o),
(1208,805,cs),
(1216,839,o),
(1216,856,o),
(1208,856,cs),
(960,856,l),
(864,752,l)
);
}
);
width = 1267;
},
{
layerId = "7904EAEE-2B64-409E-B923-0048172372BE";
shapes = (
{
closed = 1;
nodes = (
(351,-2,o),
(429,0,o),
(522,0,cs),
(615,0,o),
(691,-2,o),
(751,-7,c),
(760,-7,o),
(778,16,o),
(778,40,cs),
(778,56,o),
(775,63,o),
(770,63,cs),
(710,63,o),
(625,71,o),
(625,118,cs),
(625,138,o),
(628,159,o),
(634,181,cs),
(719,480,ls),
(740,553,o),
(771,612,o),
(814,657,cs),
(1195,1064,ls),
(1394,1276,o),
(1416,1293,o),
(1550,1293,cs),
(1558,1293,o),
(1578,1316,o),
(1578,1340,cs),
(1578,1355,o),
(1576,1363,o),
(1571,1363,c),
(1517,1360,o),
(1452,1358,o),
(1375,1358,cs),
(1296,1358,o),
(1234,1360,o),
(1188,1363,c),
(1176,1363,o),
(1160,1345,o),
(1160,1318,cs),
(1160,1301,o),
(1162,1293,o),
(1167,1293,cs),
(1236,1293,o),
(1269,1279,o),
(1269,1251,cs),
(1269,1230,o),
(1252,1201,o),
(1218,1165,cs),
(754,664,ls),
(746,655,o),
(739,651,o),
(732,651,cs),
(726,651,o),
(721,656,o),
(718,667,cs),
(561,1177,ls),
(555,1195,o),
(552,1210,o),
(552,1225,cs),
(552,1287,o),
(620,1293,o),
(702,1293,cs),
(712,1293,o),
(730,1316,o),
(730,1340,cs),
(730,1355,o),
(728,1363,o),
(724,1363,c),
(694,1360,o),
(624,1358,o),
(517,1358,cs),
(410,1358,o),
(342,1360,o),
(314,1363,c),
(306,1363,o),
(286,1341,o),
(286,1316,cs),
(286,1301,o),
(287,1293,o),
(292,1293,cs),
(380,1293,o),
(423,1267,o),
(449,1183,cs),
(600,693,ls),
(616,640,o),
(624,602,o),
(624,578,cs),
(624,555,o),
(614,510,o),
(596,445,cs),
(521,176,ls),
(491,69,o),
(433,63,o),
(312,63,cs),
(303,63,o),
(285,41,o),
(285,17,cs),
(285,1,o),
(287,-7,o),
(292,-7,c)
);
},
{
closed = 1;
nodes = (
(1126,474,ls),
(1138,474,o),
(1141,491,o),
(1141,523,cs),
(1141,556,o),
(1138,573,o),
(1126,573,cs),
(249,573,ls),
(237,573,o),
(236,556,o),
(236,523,cs),
(236,491,o),
(245,474,o),
(257,474,cs)
);
},
{
closed = 1;
nodes = (
(637,732,l),
(608,833,l),
(313,833,ls),
(301,833,o),
(300,816,o),
(300,782,cs),
(300,748,o),
(301,732,o),
(313,732,cs)
);
},
{
closed = 1;
nodes = (
(1182,732,ls),
(1194,732,o),
(1197,748,o),
(1197,782,cs),
(1197,816,o),
(1194,833,o),
(1182,833,cs),
(943,833,l),
(849,732,l)
);
}
);
width = 1215;
},
{
layerId = "E06D8587-1A71-4EC2-BD94-397D882F5FC1";
shapes = (
{
closed = 1;
nodes = (
(272,-2,o),
(341,0,o),
(425,0,cs),
(507,0,o),
(577,-2,o),
(623,-7,c),
(634,-7,o),
(647,36,o),
(647,56,cs),
(647,69,o),
(644,75,o),
(640,75,cs),
(584,75,o),
(533,89,o),
(533,134,cs),
(533,151,o),
(536,169,o),
(541,191,cs),
(610,494,ls),
(625,561,o),
(647,614,o),
(673,649,cs),
(976,1055,ls),
(1114,1240,o),
(1143,1281,o),
(1261,1281,cs),
(1274,1281,o),
(1285,1326,o),
(1285,1346,cs),
(1285,1358,o),
(1283,1363,o),
(1279,1363,c),
(1243,1360,o),
(1188,1358,o),
(1115,1358,cs),
(1041,1358,o),
(986,1360,o),
(953,1363,c),
(942,1363,o),
(929,1318,o),
(929,1300,cs),
(929,1288,o),
(931,1281,o),
(935,1281,cs),
(986,1281,o),
(1013,1269,o),
(1013,1243,cs),
(1013,1224,o),
(1000,1196,o),
(974,1161,cs),
(637,708,ls),
(629,697,o),
(622,691,o),
(615,691,cs),
(611,691,o),
(605,695,o),
(601,711,cs),
(487,1167,ls),
(482,1187,o),
(479,1205,o),
(479,1219,cs),
(479,1269,o),
(521,1281,o),
(586,1281,cs),
(596,1281,o),
(608,1323,o),
(608,1344,cs),
(608,1357,o),
(607,1363,o),
(603,1363,c),
(575,1360,o),
(512,1358,o),
(416,1358,cs),
(321,1358,o),
(258,1360,o),
(232,1363,c),
(219,1363,o),
(209,1317,o),
(209,1300,cs),
(209,1288,o),
(211,1281,o),
(215,1281,cs),
(297,1281,o),
(319,1244,o),
(340,1161,cs),
(461,685,ls),
(472,642,o),
(480,606,o),
(480,584,cs),
(480,561,o),
(472,520,o),
(458,459,cs),
(397,196,ls),
(375,101,o),
(350,75,o),
(243,75,cs),
(233,75,o),
(220,29,o),
(220,11,cs),
(220,1,o),
(222,-7,o),
(226,-7,c)
);
},
{
closed = 1;
nodes = (
(912,470,ls),
(919,470,o),
(925,483,o),
(928,520,cs),
(931,554,o),
(928,571,o),
(921,571,cs),
(190,571,ls),
(183,571,o),
(177,554,o),
(174,521,cs),
(171,487,o),
(173,470,o),
(181,470,cs)
);
},
{
closed = 1;
nodes = (
(518,742,l),
(492,845,l),
(243,845,ls),
(236,845,o),
(229,823,o),
(227,793,cs),
(225,766,o),
(227,742,o),
(235,742,cs)
);
},
{
closed = 1;
nodes = (
(966,742,ls),
(974,742,o),
(980,760,o),
(982,792,cs),
(984,826,o),
(983,845,o),
(975,845,cs),
(782,845,l),
(705,742,l)
);
}
);
width = 1003;
},
{
layerId = "8F7CDE40-C368-4484-AA71-76B7ABD5539F";
shapes = (
{
closed = 1;
nodes = (
(396,-2,o),
(487,0,o),
(605,0,cs),
(725,0,o),
(813,-2,o),
(883,-7,c),
(894,-7,o),
(915,16,o),
(915,40,cs),
(915,55,o),
(912,63,o),
(906,63,cs),
(830,63,o),
(733,71,o),
(733,118,cs),
(733,139,o),
(736,161,o),
(743,181,cs),
(846,480,ls),
(871,553,o),
(907,610,o),
(957,657,cs),
(1416,1063,ls),
(1652,1276,o),
(1679,1293,o),
(1841,1293,cs),
(1852,1293,o),
(1875,1316,o),
(1875,1340,cs),
(1875,1354,o),
(1873,1363,o),
(1867,1363,c),
(1803,1360,o),
(1724,1358,o),
(1629,1358,cs),
(1533,1358,o),
(1460,1360,o),
(1405,1363,c),
(1390,1363,o),
(1371,1346,o),
(1371,1318,cs),
(1371,1300,o),
(1373,1293,o),
(1379,1293,cs),
(1462,1293,o),
(1501,1279,o),
(1501,1251,cs),
(1501,1230,o),
(1480,1202,o),
(1440,1165,cs),
(887,664,ls),
(877,655,o),
(868,651,o),
(861,651,cs),
(851,651,o),
(847,659,o),
(843,667,cs),
(655,1177,ls),
(648,1195,o),
(645,1209,o),
(645,1225,cs),
(645,1287,o),
(725,1293,o),
(824,1293,cs),
(836,1293,o),
(858,1317,o),
(858,1340,cs),
(858,1355,o),
(855,1363,o),
(849,1363,c),
(813,1360,o),
(730,1358,o),
(600,1358,cs),
(469,1358,o),
(388,1360,o),
(352,1363,c),
(343,1363,o),
(319,1343,o),
(319,1316,cs),
(319,1300,o),
(321,1293,o),
(327,1293,cs),
(425,1293,o),
(481,1278,o),
(516,1183,cs),
(697,693,ls),
(716,638,o),
(724,602,o),
(724,578,cs),
(724,555,o),
(714,510,o),
(692,445,cs),
(601,176,ls),
(563,59,o),
(486,63,o),
(353,63,cs),
(341,63,o),
(320,43,o),
(320,17,cs),
(320,-1,o),
(322,-7,o),
(328,-7,c)
);
},
{
closed = 1;
nodes = (
(1336,474,ls),
(1349,474,o),
(1353,495,o),
(1350,524,cs),
(1347,556,o),
(1340,573,o),
(1327,573,cs),
(276,573,ls),
(263,573,o),
(259,556,o),
(262,523,cs),
(265,491,o),
(273,474,o),
(285,474,cs)
);
},
{
closed = 1;
nodes = (
(744,732,l),
(708,833,l),
(345,833,ls),
(332,833,o),
(329,821,o),
(331,783,cs),
(333,742,o),
(341,732,o),
(353,732,cs)
);
},
{
closed = 1;
nodes = (
(1404,732,ls),
(1416,732,o),
(1420,748,o),
(1418,784,cs),
(1416,818,o),
(1407,833,o),
(1395,833,cs),
(1112,833,l),
(1001,732,l)
);
}
);
width = 1453;
},
{
layerId = "997BDFA1-EC67-4686-8CFE-E56BDBE179FE";
shapes = (
{
closed = 1;
nodes = (
(334,-2,o),
(414,0,o),
(515,0,cs),
(616,0,o),
(695,-2,o),
(753,-7,c),
(764,-7,o),
(781,26,o),
(781,48,cs),
(781,62,o),
(778,69,o),
(773,69,cs),
(707,69,o),
(633,80,o),
(633,126,cs),
(633,145,o),
(636,165,o),
(642,186,cs),
(728,487,ls),
(748,557,o),
(777,612,o),
(815,653,cs),
(1196,1059,ls),
(1383,1258,o),
(1411,1287,o),
(1551,1287,cs),
(1563,1287,o),
(1580,1321,o),
(1580,1343,cs),
(1580,1356,o),
(1578,1363,o),
(1573,1363,c),
(1523,1360,o),
(1456,1358,o),
(1372,1358,cs),
(1287,1358,o),
(1223,1360,o),
(1179,1363,c),
(1166,1363,o),
(1150,1332,o),
(1150,1309,cs),
(1150,1294,o),
(1152,1287,o),
(1157,1287,cs),
(1224,1287,o),
(1257,1274,o),
(1257,1247,cs),
(1257,1227,o),
(1240,1199,o),
(1207,1163,cs),
(762,686,ls),
(753,676,o),
(745,671,o),
(738,671,cs),
(731,671,o),
(726,677,o),
(722,689,cs),
(571,1172,ls),
(565,1191,o),
(562,1207,o),
(562,1222,cs),
(562,1278,o),
(623,1287,o),
(705,1287,cs),
(716,1287,o),
(733,1320,o),
(733,1342,cs),
(733,1356,o),
(731,1363,o),
(726,1363,c),
(694,1360,o),
(621,1358,o),
(508,1358,cs),
(395,1358,o),
(323,1360,o),
(292,1363,c),
(281,1363,o),
(264,1330,o),
(264,1308,cs),
(264,1294,o),
(266,1287,o),
(271,1287,cs),
(361,1287,o),
(400,1261,o),
(428,1172,cs),
(579,689,ls),
(594,640,o),
(602,604,o),
(602,581,cs),
(602,558,o),
(593,515,o),
(575,452,cs),
(499,186,ls),
(469,80,o),
(418,69,o),
(298,69,cs),
(287,69,o),
(270,36,o),
(270,14,cs),
(270,0,o),
(272,-7,o),
(277,-7,c)
);
},
{
closed = 1;
nodes = (
(1124,472,ls),
(1134,472,o),
(1139,489,o),
(1139,522,cs),
(1139,555,o),
(1134,572,o),
(1124,572,cs),
(233,572,ls),
(223,572,o),
(218,555,o),
(218,522,cs),
(218,489,o),
(223,472,o),
(233,472,cs)
);
},
{
closed = 1;
nodes = (
(631,737,l),
(600,839,l),
(294,839,ls),
(284,839,o),
(279,822,o),
(279,788,cs),
(279,754,o),
(284,737,o),
(294,737,cs)
);
},
{
closed = 1;
nodes = (
(1185,737,ls),
(1195,737,o),
(1200,754,o),
(1200,788,cs),
(1200,822,o),
(1195,839,o),
(1185,839,cs),
(947,839,l),
(853,737,l)
);
}
);
width = 1228;
}
);
unicode = 165;
}
{
glyphname = brokenbar;
layers = (
{
layerId = master01;
shapes = (
{
closed = 1;
nodes = (
(432,-33,l),
(432,590,l),
(312,590,l),
(312,-33,l)
);
},
{
closed = 1;
nodes = (
(432,817,l),
(432,1399,l),
(312,1399,l),
(312,817,l)
);
}
);
width = 555;
},
{
layerId = "2438E31C-45B5-47A7-9B3D-1A0FEFB47671";
shapes = (
{
closed = 1;
nodes = (
(467,109,l),
(467,688,l),
(272,688,l),
(272,109,l)
);
},
{
closed = 1;
nodes = (
(467,795,l),
(467,1372,l),
(272,1372,l),
(272,795,l)
);
}
);
width = 579;
},
{
layerId = "7904EAEE-2B64-409E-B923-0048172372BE";
shapes = (
{
closed = 1;
nodes = (
(420,-80,l),
(420,557,l),
(325,557,l),
(325,-80,l)
);
},
{
closed = 1;
nodes = (
(420,824,l),
(420,1408,l),
(325,1408,l),
(325,824,l)
);
}
);
width = 547;
},
{
layerId = "E06D8587-1A71-4EC2-BD94-397D882F5FC1";
shapes = (
{
closed = 1;
nodes = (
(371,14,l),
(371,623,l),
(250,623,l),
(250,14,l)
);
},
{
closed = 1;
nodes = (
(371,810,l),
(371,1390,l),
(250,1390,l),
(250,810,l)
);
}
);
width = 469;
},
{
layerId = "8F7CDE40-C368-4484-AA71-76B7ABD5539F";
shapes = (
{
closed = 1;
nodes = (
(493,-80,l),
(493,557,l),
(374,557,l),
(374,-80,l)
);
},
{
closed = 1;
nodes = (
(493,824,l),
(493,1408,l),
(374,1408,l),
(374,824,l)
);
}
);
width = 641;
},
{
layerId = "997BDFA1-EC67-4686-8CFE-E56BDBE179FE";
shapes = (
{
closed = 1;
nodes = (
(432,-33,l),
(432,590,l),
(312,590,l),
(312,-33,l)
);
},
{
closed = 1;
nodes = (
(432,817,l),
(432,1399,l),
(312,1399,l),
(312,817,l)
);
}
);
width = 555;
}
);
unicode = 166;
}
{
glyphname = section;
layers = (
{
layerId = master01;
shapes = (
{
closed = 1;
nodes = (
(353,-274,o),
(534,-116,o),
(641,-15,cs),
(769,106,o),
(862,221,o),
(862,384,cs),
(862,463,o),
(834,590,o),
(751,767,cs),
(668,944,o),
(639,1078,o),
(639,1169,cs),
(639,1278,o),
(718,1346,o),
(817,1346,cs),
(866,1346,o),
(906,1326,o),
(937,1287,cs),
(968,1247,o),
(984,1227,o),
(997,1227,cs),
(1022,1227,o),
(1040,1254,o),
(1040,1307,cs),
(1040,1388,o),
(970,1442,o),
(895,1442,cs),
(778,1442,o),
(596,1304,o),
(515,1231,cs),
(395,1124,o),
(250,948,o),
(250,776,cs),
(250,685,o),
(287,556,o),
(358,388,cs),
(429,220,o),
(465,92,o),
(465,4,cs),
(465,-103,o),
(387,-170,o),
(286,-170,cs),
(237,-170,o),
(187,-154,o),
(136,-123,cs),
(85,-92,o),
(56,-76,o),
(49,-76,cs),
(26,-76,o),
(14,-89,o),
(14,-115,cs),
(14,-212,o),
(97,-274,o),
(192,-274,cs)
);
},
{
closed = 1;
nodes = (
(573,41,o),
(575,85,o),
(575,143,cs),
(575,201,o),
(541,310,o),
(474,471,cs),
(407,632,o),
(373,763,o),
(373,866,cs),
(373,969,o),
(429,1073,o),
(541,1178,c),
(549,1174,l),
(536,1148,o),
(530,1087,o),
(530,1031,cs),
(530,953,o),
(566,856,o),
(631,698,cs),
(692,550,o),
(731,408,o),
(731,332,cs),
(731,211,o),
(678,104,o),
(573,10,c),
(569,10,l)
);
}
);
width = 989;
},
{
layerId = "2438E31C-45B5-47A7-9B3D-1A0FEFB47671";
shapes = (
{
closed = 1;
nodes = (
(370,-274,o),
(562,-111,o),
(683,2,cs),
(803,114,o),
(897,229,o),
(897,389,cs),
(897,517,o),
(845,647,o),
(782,779,cs),
(724,900,o),
(668,1048,o),
(668,1163,cs),
(668,1279,o),
(711,1339,o),
(823,1339,cs),
(871,1339,o),
(902,1296,o),
(916,1253,cs),
(929,1214,o),
(947,1165,o),
(987,1165,cs),
(1034,1165,o),
(1075,1213,o),
(1075,1278,cs),
(1075,1374,o),
(985,1442,o),
(893,1442,cs),
(761,1442,o),
(542,1290,o),
(444,1192,cs),
(337,1085,o),
(211,941,o),
(211,760,cs),
(211,681,o),
(241,571,o),
(301,431,cs),
(374,260,o),
(440,100,o),
(440,2,cs),
(440,-110,o),
(388,-166,o),
(281,-166,cs),
(224,-166,o),
(182,-139,o),
(149,-96,cs),
(126,-66,o),
(83,-14,o),
(47,-14,cs),
(2,-14,o),
(-25,-45,o),
(-25,-86,cs),
(-25,-201,o),
(78,-274,o),
(190,-274,cs)
);
},
{
closed = 1;
nodes = (
(602,57,o),
(610,103,o),
(610,158,cs),
(610,241,o),
(518,466,o),
(472,577,cs),
(423,694,o),
(408,773,o),
(408,846,cs),
(408,961,o),
(442,1063,o),
(512,1152,c),
(514,1152,l),
(505,1116,o),
(500,1057,o),
(500,979,cs),
(500,896,o),
(560,761,o),
(598,679,cs),
(634,601,o),
(692,446,o),
(692,342,cs),
(692,204,o),
(658,95,o),
(588,18,c),
(586,18,l)
);
}
);
width = 1046;
},
{
layerId = "7904EAEE-2B64-409E-B923-0048172372BE";
shapes = (
{
closed = 1;
nodes = (
(347,-274,o),
(525,-118,o),
(627,-21,cs),
(758,103,o),
(850,218,o),
(850,382,cs),
(850,445,o),
(831,571,o),
(741,763,cs),
(649,959,o),
(629,1088,o),
(629,1171,cs),
(629,1278,o),
(720,1348,o),
(815,1348,cs),
(864,1348,o),
(907,1336,o),
(944,1298,cs),
(982,1259,o),
(996,1248,o),
(1003,1248,cs),
(1018,1248,o),
(1028,1268,o),
(1028,1317,cs),
(1028,1393,o),
(965,1442,o),
(896,1442,cs),
(784,1442,o),
(614,1309,o),
(539,1244,cs),
(414,1137,o),
(263,950,o),
(263,781,cs),
(263,686,o),
(302,551,o),
(377,374,cs),
(448,207,o),
(473,89,o),
(473,5,cs),
(473,-101,o),
(387,-171,o),
(288,-171,cs),
(241,-171,o),
(189,-163,o),
(132,-132,cs),
(71,-99,o),
(53,-97,o),
(48,-97,cs),
(34,-97,o),
(27,-104,o),
(27,-125,cs),
(27,-216,o),
(103,-274,o),
(193,-274,cs)
);
},
{
closed = 1;
nodes = (
(563,36,o),
(563,79,o),
(563,138,cs),
(563,188,o),
(549,258,o),
(475,436,cs),
(402,611,o),
(361,760,o),
(361,873,cs),
(361,972,o),
(425,1076,o),
(551,1187,c),
(561,1181,l),
(546,1159,o),
(540,1097,o),
(540,1048,cs),
(540,972,o),
(568,888,o),
(642,704,cs),
(711,533,o),
(744,395,o),
(744,329,cs),
(744,213,o),
(685,107,o),
(568,7,c),
(563,7,l)
);
}
);
width = 970;
},
{
layerId = "E06D8587-1A71-4EC2-BD94-397D882F5FC1";
shapes = (
{
closed = 1;
nodes = (
(301,-274,o),
(452,-112,o),
(539,-10,cs),
(636,104,o),
(715,221,o),
(715,386,cs),
(715,480,o),
(684,609,o),
(624,771,cs),
(566,929,o),
(534,1069,o),
(534,1167,cs),
(534,1278,o),
(585,1344,o),
(669,1344,cs),
(707,1344,o),
(737,1316,o),
(756,1276,cs),
(775,1236,o),
(787,1206,o),
(807,1206,cs),
(835,1206,o),
(857,1241,o),
(857,1297,cs),
(857,1383,o),
(794,1442,o),
(728,1442,cs),
(630,1442,o),
(470,1298,o),
(401,1218,cs),
(314,1117,o),
(200,947,o),
(200,771,cs),
(200,683,o),
(227,562,o),
(280,404,cs),
(337,234,o),
(377,94,o),
(377,3,cs),
(377,-105,o),
(322,-169,o),
(240,-169,cs),
(198,-169,o),
(161,-148,o),
(126,-114,cs),
(98,-87,o),
(68,-55,o),
(52,-55,cs),
(26,-55,o),
(11,-75,o),
(11,-105,cs),
(11,-208,o),
(85,-274,o),
(166,-274,cs)
);
},
{
closed = 1;
nodes = (
(481,46,o),
(485,96,o),
(485,148,cs),
(485,216,o),
(438,362,o),
(391,507,cs),
(345,649,o),
(323,768,o),
(323,859,cs),
(323,965,o),
(360,1070,o),
(436,1169,c),
(440,1167,l),
(432,1137,o),
(427,1081,o),
(427,1014,cs),
(427,934,o),
(464,824,o),
(507,692,cs),
(548,567,o),
(585,419,o),
(585,335,cs),
(585,208,o),
(548,101,o),
(476,13,c),
(474,13,l)
);
}
);
width = 816;
},
{
layerId = "8F7CDE40-C368-4484-AA71-76B7ABD5539F";
shapes = (
{
closed = 1;
nodes = (
(405,-274,o),
(616,-120,o),
(743,-20,cs),
(902,108,o),
(1009,221,o),
(1009,382,cs),
(1009,446,o),
(984,571,o),
(878,763,cs),
(770,959,o),
(744,1087,o),
(744,1171,cs),
(744,1278,o),
(851,1348,o),
(965,1348,cs),
(1025,1348,o),
(1075,1336,o),
(1118,1298,cs),
(1161,1258,o),
(1181,1248,o),
(1187,1248,cs),
(1209,1248,o),
(1223,1267,o),
(1223,1317,cs),
(1223,1393,o),
(1146,1442,o),
(1062,1442,cs),
(926,1442,o),
(722,1310,o),
(629,1244,cs),
(476,1131,o),
(300,949,o),
(300,781,cs),
(300,687,o),
(347,550,o),
(436,372,cs),
(521,206,o),
(553,90,o),
(553,5,cs),
(553,-101,o),
(452,-171,o),
(332,-171,cs),
(276,-171,o),
(213,-160,o),
(146,-132,cs),
(72,-97,o),
(44,-97,o),
(46,-97,cs),
(26,-97,o),
(17,-103,o),
(17,-125,cs),
(17,-216,o),
(109,-274,o),
(218,-274,cs)
);
},
{
closed = 1;
nodes = (
(665,36,o),
(665,74,o),
(665,138,cs),
(665,186,o),
(644,258,o),
(557,435,cs),
(469,615,o),
(423,758,o),
(423,873,cs),
(423,973,o),
(498,1076,o),
(646,1187,c),
(658,1181,l),
(640,1159,o),
(633,1093,o),
(633,1048,cs),
(633,972,o),
(668,888,o),
(755,704,cs),
(836,533,o),
(877,397,o),
(877,329,cs),
(877,214,o),
(808,107,o),
(670,7,c),
(664,7,l)
);
}
);
width = 1162;
},
{
layerId = "997BDFA1-EC67-4686-8CFE-E56BDBE179FE";
shapes = (
{
closed = 1;
nodes = (
(353,-274,o),
(534,-116,o),
(641,-15,cs),
(769,106,o),
(862,221,o),
(862,384,cs),
(862,463,o),
(834,590,o),
(751,767,cs),
(668,944,o),
(639,1078,o),
(639,1169,cs),
(639,1278,o),
(718,1346,o),
(817,1346,cs),
(866,1346,o),
(906,1326,o),
(937,1287,cs),
(968,1247,o),
(984,1227,o),
(997,1227,cs),
(1022,1227,o),
(1040,1254,o),
(1040,1307,cs),
(1040,1388,o),
(970,1442,o),
(895,1442,cs),
(778,1442,o),
(596,1304,o),
(515,1231,cs),
(395,1124,o),
(250,948,o),
(250,776,cs),
(250,685,o),
(287,556,o),
(358,388,cs),
(429,220,o),
(465,92,o),
(465,4,cs),
(465,-103,o),
(387,-170,o),
(286,-170,cs),
(237,-170,o),
(187,-154,o),
(136,-123,cs),
(85,-92,o),
(56,-76,o),
(49,-76,cs),
(26,-76,o),
(14,-89,o),
(14,-115,cs),
(14,-212,o),
(97,-274,o),
(192,-274,cs)
);
},
{
closed = 1;
nodes = (
(573,41,o),
(575,85,o),
(575,143,cs),
(575,201,o),
(541,310,o),
(474,471,cs),
(407,632,o),
(373,763,o),
(373,866,cs),
(373,969,o),
(429,1073,o),
(541,1178,c),
(549,1174,l),
(536,1148,o),
(530,1087,o),
(530,1031,cs),
(530,953,o),
(566,856,o),
(631,698,cs),
(692,550,o),
(731,408,o),
(731,332,cs),
(731,211,o),
(678,104,o),
(573,10,c),
(569,10,l)
);
}
);
width = 989;
}
);
unicode = 167;
}
{
glyphname = dieresis;
layers = (
{
layerId = master01;
shapes = (
{
closed = 1;
nodes = (
(569,1049,o),
(618,1098,o),
(618,1157,cs),
(618,1215,o),
(569,1264,o),
(510,1264,cs),
(451,1264,o),
(402,1215,o),
(402,1157,cs),
(402,1098,o),
(451,1049,o),
(510,1049,cs)
);
},
{
closed = 1;
nodes = (
(929,1049,o),
(978,1098,o),
(978,1157,cs),
(978,1215,o),
(929,1264,o),
(870,1264,cs),
(811,1264,o),
(762,1215,o),
(762,1157,cs),
(762,1098,o),
(811,1049,o),
(870,1049,cs)
);
}
);
width = 0;
},
{
layerId = "2438E31C-45B5-47A7-9B3D-1A0FEFB47671";
shapes = (
{
closed = 1;
nodes = (
(476,1050,o),
(539,1113,o),
(539,1189,cs),
(539,1265,o),
(476,1328,o),
(400,1328,cs),
(324,1328,o),
(261,1265,o),
(261,1189,cs),
(261,1113,o),
(324,1050,o),
(400,1050,cs)
);
},
{
closed = 1;
nodes = (
(877,1050,o),
(940,1113,o),
(940,1189,cs),
(940,1265,o),
(877,1328,o),
(801,1328,cs),
(725,1328,o),
(662,1265,o),
(662,1189,cs),
(662,1113,o),
(725,1050,o),
(801,1050,cs)
);
}
);
width = 522;
},
{
layerId = "7904EAEE-2B64-409E-B923-0048172372BE";
shapes = (
{
closed = 1;
nodes = (
(603,1050,o),
(648,1094,o),
(648,1148,cs),
(648,1200,o),
(603,1244,o),
(550,1244,cs),
(497,1244,o),
(452,1200,o),
(452,1148,cs),
(452,1094,o),
(497,1050,o),
(550,1050,cs)
);
},
{
closed = 1;
nodes = (
(943,1050,o),
(988,1094,o),
(988,1148,cs),
(988,1200,o),
(943,1244,o),
(890,1244,cs),
(837,1244,o),
(792,1200,o),
(792,1148,cs),
(792,1094,o),
(837,1050,o),
(890,1050,cs)
);
}
);
width = 881;
},
{
layerId = "E06D8587-1A71-4EC2-BD94-397D882F5FC1";
shapes = (
{
closed = 1;
nodes = (
(475,1049,o),
(524,1098,o),
(524,1157,cs),
(524,1215,o),
(475,1264,o),
(416,1264,cs),
(357,1264,o),
(308,1215,o),
(308,1157,cs),
(308,1098,o),
(357,1049,o),
(416,1049,cs)
);
},
{
closed = 1;
nodes = (
(781,1049,o),
(830,1098,o),
(830,1157,cs),
(830,1215,o),
(781,1264,o),
(722,1264,cs),
(663,1264,o),
(614,1215,o),
(614,1157,cs),
(614,1098,o),
(663,1049,o),
(722,1049,cs)
);
}
);
width = 654;
},
{
layerId = "8F7CDE40-C368-4484-AA71-76B7ABD5539F";
shapes = (
{
closed = 1;
nodes = (
(569,1049,o),
(618,1098,o),
(618,1157,cs),
(618,1215,o),
(569,1264,o),
(510,1264,cs),
(451,1264,o),
(402,1215,o),
(402,1157,cs),
(402,1098,o),
(451,1049,o),
(510,1049,cs)
);
},
{
closed = 1;
nodes = (
(929,1049,o),
(978,1098,o),
(978,1157,cs),
(978,1215,o),
(929,1264,o),
(870,1264,cs),
(811,1264,o),
(762,1215,o),
(762,1157,cs),
(762,1098,o),
(811,1049,o),
(870,1049,cs)
);
}
);
width = 600;
},
{
layerId = "997BDFA1-EC67-4686-8CFE-E56BDBE179FE";
shapes = (
{
closed = 1;
nodes = (
(569,1049,o),
(618,1098,o),
(618,1157,cs),
(618,1215,o),
(569,1264,o),
(510,1264,cs),
(451,1264,o),
(402,1215,o),
(402,1157,cs),
(402,1098,o),
(451,1049,o),
(510,1049,cs)
);
},
{
closed = 1;
nodes = (
(929,1049,o),
(978,1098,o),
(978,1157,cs),
(978,1215,o),
(929,1264,o),
(870,1264,cs),
(811,1264,o),
(762,1215,o),
(762,1157,cs),
(762,1098,o),
(811,1049,o),
(870,1049,cs)
);
}
);
width = 0;
}
);
unicode = 168;
}
{
glyphname = ordfeminine;
layers = (
{
layerId = master01;
shapes = (
{
closed = 1;
nodes = (
(283,506,o),
(371,574,o),
(479,709,c),
(487,706,l),
(463,641,ls),
(453,615,o),
(447,586,o),
(447,564,cs),
(447,525,o),
(463,506,o),
(495,506,cs),
(551,506,o),
(656,574,o),
(698,634,cs),
(700,637,o),
(700,638,o),
(700,640,cs),
(700,644,o),
(696,652,o),
(689,658,cs),
(678,667,o),
(671,671,o),
(666,666,cs),
(624,623,o),
(599,608,o),
(583,608,cs),
(571,608,o),
(564,616,o),
(564,631,cs),
(564,638,o),
(565,648,o),
(570,665,cs),
(703,1117,ls),
(704,1120,o),
(704,1124,o),
(704,1126,cs),
(704,1137,o),
(688,1143,o),
(656,1143,cs),
(626,1143,o),
(607,1138,o),
(603,1127,cs),
(587,1084,l),
(561,1105,o),
(531,1116,o),
(501,1116,cs),
(308,1116,o),
(112,823,o),
(112,631,cs),
(112,565,o),
(144,506,o),
(208,506,cs)
);
},
{
closed = 1;
nodes = (
(250,590,o),
(237,614,o),
(237,662,cs),
(237,799,o),
(356,1065,o),
(483,1065,cs),
(517,1065,o),
(546,1051,o),
(566,1016,c),
(533,908,ls),
(523,875,o),
(503,825,o),
(477,784,cs),
(437,721,o),
(333,590,o),
(274,590,cs)
);
}
);
width = 661;
},
{
layerId = "2438E31C-45B5-47A7-9B3D-1A0FEFB47671";
shapes = (
{
closed = 1;
nodes = (
(287,506,o),
(369,560,o),
(471,667,c),
(479,663,l),
(466,631,ls),
(460,615,o),
(453,596,o),
(453,561,cs),
(453,528,o),
(473,506,o),
(512,506,cs),
(561,506,o),
(677,576,o),
(723,636,cs),
(726,640,o),
(727,642,o),
(727,644,cs),
(727,649,o),
(721,655,o),
(711,664,cs),
(701,673,o),
(688,679,o),
(681,672,cs),
(655,644,o),
(633,631,o),
(614,631,cs),
(606,631,o),
(601,635,o),
(601,641,cs),
(601,646,o),
(602,650,o),
(605,661,cs),
(740,1103,ls),
(742,1110,o),
(742,1115,o),
(742,1117,cs),
(742,1135,o),
(721,1146,o),
(675,1146,cs),
(632,1146,o),
(607,1140,o),
(602,1129,cs),
(589,1099,l),
(569,1111,o),
(544,1116,o),
(519,1116,cs),
(319,1116,o),
(107,843,o),
(107,646,cs),
(107,568,o),
(151,506,o),
(226,506,cs)
);
},
{
closed = 1;
nodes = (
(287,609,o),
(277,636,o),
(277,694,cs),
(277,821,o),
(392,1054,o),
(500,1054,cs),
(528,1054,o),
(550,1045,o),
(565,1027,c),
(529,914,ls),
(517,877,o),
(499,830,o),
(473,782,cs),
(438,717,o),
(366,609,o),
(307,609,cs)
);
}
);
width = 688;
},
{
layerId = "7904EAEE-2B64-409E-B923-0048172372BE";
shapes = (
{
closed = 1;
nodes = (
(282,506,o),
(372,579,o),
(482,723,c),
(490,720,l),
(462,644,ls),
(451,615,o),
(445,583,o),
(445,562,cs),
(445,524,o),
(460,506,o),
(489,506,cs),
(548,506,o),
(650,573,o),
(690,633,cs),
(692,636,o),
(692,637,o),
(692,639,cs),
(692,642,o),
(688,651,o),
(682,656,cs),
(671,665,o),
(665,668,o),
(661,664,cs),
(613,616,o),
(588,600,o),
(573,600,cs),
(559,600,o),
(552,610,o),
(552,628,cs),
(552,636,o),
(553,649,o),
(558,666,cs),
(691,1122,ls),
(691,1123,o),
(691,1127,o),
(691,1129,cs),
(691,1138,o),
(677,1142,o),
(650,1142,cs),
(624,1142,o),
(607,1137,o),
(603,1126,cs),
(586,1079,l),
(558,1103,o),
(527,1116,o),
(495,1116,cs),
(304,1116,o),
(114,816,o),
(114,626,cs),
(114,564,o),
(142,506,o),
(202,506,cs)
);
},
{
closed = 1;
nodes = (
(238,584,o),
(224,607,o),
(224,651,cs),
(224,792,o),
(344,1069,o),
(477,1069,cs),
(513,1069,o),
(545,1053,o),
(566,1012,c),
(534,906,ls),
(524,874,o),
(504,823,o),
(478,785,cs),
(435,723,o),
(322,584,o),
(263,584,cs)
);
}
);
width = 652;
},
{
layerId = "E06D8587-1A71-4EC2-BD94-397D882F5FC1";
shapes = (
{
closed = 1;
nodes = (
(226,506,o),
(297,574,o),
(383,709,c),
(390,706,l),
(370,641,ls),
(362,615,o),
(358,586,o),
(358,564,cs),
(358,525,o),
(370,506,o),
(396,506,cs),
(441,506,o),
(525,574,o),
(558,634,cs),
(560,637,o),
(560,638,o),
(560,640,cs),
(560,644,o),
(557,652,o),
(551,658,cs),
(542,667,o),
(537,671,o),
(533,666,cs),
(499,623,o),
(479,608,o),
(466,608,cs),
(457,608,o),
(451,616,o),
(451,631,cs),
(451,638,o),
(452,648,o),
(456,665,cs),
(562,1117,ls),
(563,1120,o),
(563,1124,o),
(563,1126,cs),
(563,1137,o),
(550,1143,o),
(525,1143,cs),
(501,1143,o),
(486,1138,o),
(482,1127,cs),
(470,1084,l),
(449,1105,o),
(425,1116,o),
(401,1116,cs),
(246,1116,o),
(90,823,o),
(90,631,cs),
(90,565,o),
(115,506,o),
(167,506,cs)
);
},
{
closed = 1;
nodes = (
(200,590,o),
(190,614,o),
(190,662,cs),
(190,799,o),
(285,1065,o),
(386,1065,cs),
(414,1065,o),
(437,1051,o),
(453,1016,c),
(426,908,ls),
(418,875,o),
(402,825,o),
(382,784,cs),
(350,721,o),
(266,590,o),
(219,590,cs)
);
}
);
width = 529;
},
{
layerId = "8F7CDE40-C368-4484-AA71-76B7ABD5539F";
shapes = (
{
closed = 1;
nodes = (
(340,506,o),
(445,574,o),
(575,709,c),
(584,706,l),
(556,641,ls),
(544,615,o),
(536,586,o),
(536,564,cs),
(536,525,o),
(556,506,o),
(594,506,cs),
(661,506,o),
(787,574,o),
(838,634,cs),
(840,637,o),
(840,638,o),
(840,640,cs),
(840,644,o),
(835,652,o),
(827,658,cs),
(814,667,o),
(805,671,o),
(799,666,cs),
(749,623,o),
(719,608,o),
(700,608,cs),
(685,608,o),
(677,616,o),
(677,631,cs),
(677,638,o),
(678,648,o),
(684,665,cs),
(844,1117,ls),
(845,1120,o),
(845,1124,o),
(845,1126,cs),
(845,1137,o),
(826,1143,o),
(787,1143,cs),
(751,1143,o),
(728,1138,o),
(724,1127,cs),
(704,1084,l),
(673,1105,o),
(637,1116,o),
(601,1116,cs),
(370,1116,o),
(134,823,o),
(134,631,cs),
(134,565,o),
(173,506,o),
(249,506,cs)
);
},
{
closed = 1;
nodes = (
(300,590,o),
(284,614,o),
(284,662,cs),
(284,799,o),
(427,1065,o),
(580,1065,cs),
(620,1065,o),
(655,1051,o),
(679,1016,c),
(640,908,ls),
(628,875,o),
(604,825,o),
(572,784,cs),
(524,721,o),
(400,590,o),
(329,590,cs)
);
}
);
width = 793;
},
{
layerId = "997BDFA1-EC67-4686-8CFE-E56BDBE179FE";
shapes = (
{
closed = 1;
nodes = (
(283,506,o),
(371,574,o),
(479,709,c),
(487,706,l),
(463,641,ls),
(453,615,o),
(447,586,o),
(447,564,cs),
(447,525,o),
(463,506,o),
(495,506,cs),
(551,506,o),
(656,574,o),
(698,634,cs),
(700,637,o),
(700,638,o),
(700,640,cs),
(700,644,o),
(696,652,o),
(689,658,cs),
(678,667,o),
(671,671,o),
(666,666,cs),
(624,623,o),
(599,608,o),
(583,608,cs),
(571,608,o),
(564,616,o),
(564,631,cs),
(564,638,o),
(565,648,o),
(570,665,cs),
(703,1117,ls),
(704,1120,o),
(704,1124,o),
(704,1126,cs),
(704,1137,o),
(688,1143,o),
(656,1143,cs),
(626,1143,o),
(607,1138,o),
(603,1127,cs),
(587,1084,l),
(561,1105,o),
(531,1116,o),
(501,1116,cs),
(308,1116,o),
(112,823,o),
(112,631,cs),
(112,565,o),
(144,506,o),
(208,506,cs)
);
},
{
closed = 1;
nodes = (
(250,590,o),
(237,614,o),
(237,662,cs),
(237,799,o),
(356,1065,o),
(483,1065,cs),
(517,1065,o),
(546,1051,o),
(566,1016,c),
(533,908,ls),
(523,875,o),
(503,825,o),
(477,784,cs),
(437,721,o),
(333,590,o),
(274,590,cs)
);
}
);
width = 661;
}
);
unicode = 170;
}
{
glyphname = logicalnot;
layers = (
{
layerId = master01;
shapes = (
{
closed = 1;
nodes = (
(1366,0,l),
(1366,657,l),
(0,657,l),
(0,537,l),
(1243,537,l),
(1243,0,l)
);
}
);
width = 1366;
},
{
layerId = "2438E31C-45B5-47A7-9B3D-1A0FEFB47671";
shapes = (
{
closed = 1;
nodes = (
(1366,0,l),
(1366,657,l),
(0,657,l),
(0,483,l),
(1180,483,l),
(1180,0,l)
);
}
);
width = 1363;
},
{
layerId = "7904EAEE-2B64-409E-B923-0048172372BE";
shapes = (
{
closed = 1;
nodes = (
(1366,0,l),
(1366,657,l),
(0,657,l),
(0,555,l),
(1264,555,l),
(1264,0,l)
);
}
);
width = 1367;
},
{
layerId = "E06D8587-1A71-4EC2-BD94-397D882F5FC1";
shapes = (
{
closed = 1;
nodes = (
(1093,0,l),
(1093,657,l),
(0,657,l),
(0,519,l),
(973,519,l),
(973,0,l)
);
}
);
width = 1093;
},
{
layerId = "8F7CDE40-C368-4484-AA71-76B7ABD5539F";
shapes = (
{
closed = 1;
nodes = (
(1639,0,l),
(1639,657,l),
(0,657,l),
(0,555,l),
(1513,555,l),
(1513,0,l)
);
}
);
width = 1639;
},
{
layerId = "997BDFA1-EC67-4686-8CFE-E56BDBE179FE";
shapes = (
{
closed = 1;
nodes = (
(1366,0,l),
(1366,657,l),
(0,657,l),
(0,537,l),
(1243,537,l),
(1243,0,l)
);
}
);
width = 1366;
}
);
unicode = 172;
}
{
glyphname = registered;
layers = (
{
layerId = master01;
shapes = (
{
closed = 1;
nodes = (
(1222,27,o),
(1542,346,o),
(1542,748,cs),
(1542,1151,o),
(1222,1468,o),
(821,1468,cs),
(420,1468,o),
(100,1151,o),
(100,748,cs),
(100,347,o),
(419,27,o),
(821,27,cs)
);
},
{
closed = 1;
nodes = (
(445,96,o),
(170,400,o),
(170,755,cs),
(170,1109,o),
(460,1399,o),
(821,1399,cs),
(1185,1399,o),
(1472,1111,o),
(1472,749,cs),
(1472,386,o),
(1183,96,o),
(814,96,cs)
);
},
{
closed = 1;
nodes = (
(1210,350,o),
(1224,352,o),
(1240,352,cs),
(1246,352,o),
(1249,357,o),
(1249,363,cs),
(1249,370,o),
(1246,374,o),
(1240,374,cs),
(1203,374,o),
(1153,407,o),
(1093,472,cs),
(1022,548,o),
(935,669,o),
(911,716,cs),
(907,724,o),
(906,729,o),
(906,733,cs),
(906,741,o),
(908,745,o),
(913,747,cs),
(1016,788,o),
(1074,844,o),
(1074,955,cs),
(1074,1112,o),
(946,1180,o),
(778,1180,cs),
(745,1180,o),
(593,1177,o),
(568,1177,cs),
(530,1177,o),
(487,1178,o),
(441,1180,c),
(430,1180,o),
(429,1134,o),
(441,1134,cs),
(517,1134,o),
(555,1112,o),
(555,1068,cs),
(555,477,ls),
(555,430,o),
(519,406,o),
(447,406,cs),
(436,406,o),
(435,361,o),
(447,361,c),
(481,365,o),
(532,365,o),
(607,365,cs),
(683,365,o),
(736,364,o),
(767,361,c),
(778,361,o),
(778,406,o),
(767,406,cs),
(690,406,o),
(651,430,o),
(651,477,cs),
(651,709,ls),
(651,718,o),
(656,723,o),
(664,723,cs),
(729,723,ls),
(808,723,o),
(874,580,o),
(910,531,cs),
(995,416,o),
(1058,350,o),
(1200,350,cs)
);
},
{
closed = 1;
nodes = (
(694,760,o),
(651,760,o),
(651,788,cs),
(651,1124,ls),
(651,1137,o),
(659,1143,o),
(732,1143,cs),
(867,1143,o),
(970,1072,o),
(970,955,cs),
(970,825,o),
(892,760,o),
(738,760,cs)
);
}
);
width = 1642;
},
{
layerId = "2438E31C-45B5-47A7-9B3D-1A0FEFB47671";
shapes = (
{
closed = 1;
nodes = (
(1147,27,o),
(1502,320,o),
(1502,748,cs),
(1502,1094,o),
(1236,1468,o),
(781,1468,cs),
(376,1468,o),
(60,1138,o),
(60,748,cs),
(60,407,o),
(328,27,o),
(781,27,cs)
);
},
{
closed = 1;
nodes = (
(425,119,o),
(163,407,o),
(163,748,cs),
(163,1078,o),
(419,1376,o),
(781,1376,cs),
(1133,1376,o),
(1400,1087,o),
(1400,748,cs),
(1400,397,o),
(1110,119,o),
(781,119,cs)
);
},
{
closed = 1;
nodes = (
(1172,359,o),
(1191,360,o),
(1209,362,cs),
(1218,363,o),
(1224,368,o),
(1224,384,cs),
(1224,394,o),
(1219,399,o),
(1208,401,cs),
(1173,407,o),
(1137,431,o),
(1099,471,cs),
(1022,552,o),
(955,635,o),
(903,726,cs),
(899,733,o),
(897,738,o),
(897,743,cs),
(897,748,o),
(901,752,o),
(908,754,cs),
(1021,786,o),
(1077,855,o),
(1077,955,cs),
(1077,1103,o),
(951,1189,o),
(745,1189,cs),
(709,1189,o),
(581,1185,o),
(562,1185,cs),
(504,1185,o),
(447,1185,o),
(390,1189,c),
(377,1189,o),
(378,1134,o),
(390,1134,cs),
(459,1134,o),
(493,1111,o),
(493,1067,cs),
(493,496,ls),
(493,449,o),
(460,426,o),
(396,426,cs),
(383,426,o),
(383,370,o),
(396,370,c),
(448,373,o),
(505,374,o),
(566,374,cs),
(624,374,o),
(679,373,o),
(732,370,cs),
(743,369,o),
(744,426,o),
(732,426,cs),
(670,426,o),
(639,449,o),
(639,496,cs),
(639,714,ls),
(639,723,o),
(643,727,o),
(650,727,cs),
(690,727,ls),
(733,727,o),
(757,693,o),
(854,549,cs),
(936,427,o),
(1020,359,o),
(1153,359,cs)
);
},
{
closed = 1;
nodes = (
(645,774,o),
(639,777,o),
(639,802,cs),
(639,1116,ls),
(639,1140,o),
(648,1141,o),
(688,1141,cs),
(817,1141,o),
(925,1072,o),
(925,955,cs),
(925,846,o),
(861,774,o),
(705,774,cs)
);
}
);
width = 1562;
},
{
layerId = "7904EAEE-2B64-409E-B923-0048172372BE";
shapes = (
{
closed = 1;
nodes = (
(1246,27,o),
(1555,355,o),
(1555,748,cs),
(1555,1170,o),
(1217,1468,o),
(834,1468,cs),
(434,1468,o),
(113,1155,o),
(113,748,cs),
(113,327,o),
(449,27,o),
(834,27,cs)
);
},
{
closed = 1;
nodes = (
(451,88,o),
(172,398,o),
(172,757,cs),
(172,1119,o),
(473,1407,o),
(834,1407,cs),
(1202,1407,o),
(1495,1119,o),
(1495,749,cs),
(1495,382,o),
(1207,88,o),
(824,88,cs)
);
},
{
closed = 1;
nodes = (
(1221,353,o),
(1233,355,o),
(1249,355,cs),
(1253,355,o),
(1255,359,o),
(1255,363,cs),
(1255,369,o),
(1253,372,o),
(1249,371,cs),
(1211,362,o),
(1157,405,o),
(1089,479,cs),
(1021,553,o),
(924,685,o),
(911,719,cs),
(908,727,o),
(907,733,o),
(907,736,cs),
(907,744,o),
(909,748,o),
(913,750,cs),
(1010,798,o),
(1071,847,o),
(1071,961,cs),
(1071,1121,o),
(943,1183,o),
(787,1183,cs),
(768,1183,o),
(608,1180,o),
(568,1180,cs),
(537,1180,o),
(499,1180,o),
(456,1183,c),
(445,1184,o),
(444,1140,o),
(456,1140,cs),
(534,1140,o),
(573,1119,o),
(573,1075,cs),
(573,476,ls),
(573,429,o),
(536,406,o),
(462,406,cs),
(451,406,o),
(451,364,o),
(462,364,c),
(490,371,o),
(538,368,o),
(618,368,cs),
(701,368,o),
(754,366,o),
(777,364,cs),
(787,363,o),
(788,406,o),
(777,406,cs),
(694,406,o),
(652,429,o),
(652,476,cs),
(652,714,ls),
(652,722,o),
(658,727,o),
(667,727,cs),
(740,727,ls),
(831,727,o),
(912,549,o),
(927,531,cs),
(1018,422,o),
(1069,353,o),
(1214,353,cs)
);
},
{
closed = 1;
nodes = (
(708,761,o),
(652,760,o),
(652,789,cs),
(652,1132,ls),
(652,1142,o),
(661,1149,o),
(745,1149,cs),
(882,1149,o),
(983,1078,o),
(983,961,cs),
(983,824,o),
(901,761,o),
(747,761,cs)
);
}
);
width = 1669;
},
{
layerId = "E06D8587-1A71-4EC2-BD94-397D882F5FC1";
shapes = (
{
closed = 1;
nodes = (
(1029,52,o),
(1353,351,o),
(1353,748,cs),
(1353,1119,o),
(1066,1443,o),
(657,1443,cs),
(269,1443,o),
(-38,1133,o),
(-38,748,cs),
(-38,380,o),
(248,52,o),
(657,52,cs)
);
},
{
closed = 1;
nodes = (
(300,129,o),
(39,415,o),
(39,753,cs),
(39,1085,o),
(307,1366,o),
(657,1366,cs),
(1005,1366,o),
(1276,1089,o),
(1276,749,cs),
(1276,404,o),
(994,129,o),
(652,129,cs)
);
},
{
closed = 1;
nodes = (
(969,352,o),
(982,355,o),
(995,355,cs),
(1001,355,o),
(1004,360,o),
(1004,369,cs),
(1004,378,o),
(1000,382,o),
(996,382,cs),
(967,385,o),
(933,411,o),
(889,471,cs),
(831,550,o),
(769,656,o),
(740,719,cs),
(737,726,o),
(736,730,o),
(736,736,cs),
(736,741,o),
(737,747,o),
(742,749,cs),
(827,786,o),
(874,844,o),
(874,954,cs),
(874,1108,o),
(772,1182,o),
(625,1182,cs),
(596,1182,o),
(482,1179,o),
(466,1179,cs),
(425,1179,o),
(387,1180,o),
(350,1182,c),
(340,1182,o),
(340,1133,o),
(350,1133,cs),
(408,1133,o),
(437,1111,o),
(437,1067,cs),
(437,483,ls),
(437,436,o),
(409,412,o),
(355,412,cs),
(345,412,o),
(345,363,o),
(355,363,c),
(388,367,o),
(431,367,o),
(486,367,cs),
(545,367,o),
(585,366,o),
(616,363,c),
(624,363,o),
(624,412,o),
(616,412,cs),
(559,412,o),
(531,436,o),
(531,483,cs),
(531,710,ls),
(531,718,o),
(534,724,o),
(540,724,cs),
(584,724,ls),
(634,724,o),
(676,615,o),
(722,536,cs),
(789,422,o),
(844,352,o),
(958,352,cs)
);
},
{
closed = 1;
nodes = (
(547,764,o),
(531,767,o),
(531,792,cs),
(531,1121,ls),
(531,1134,o),
(531,1142,o),
(585,1142,cs),
(691,1142,o),
(775,1071,o),
(775,954,cs),
(775,832,o),
(717,764,o),
(593,764,cs)
);
}
);
width = 1314;
},
{
layerId = "8F7CDE40-C368-4484-AA71-76B7ABD5539F";
shapes = (
{
closed = 1;
nodes = (
(1415,2,o),
(1731,341,o),
(1731,748,cs),
(1731,1183,o),
(1378,1493,o),
(985,1493,cs),
(571,1493,o),
(238,1169,o),
(238,748,cs),
(238,314,o),
(590,2,o),
(985,2,cs)
);
},
{
closed = 1;
nodes = (
(590,63,o),
(301,385,o),
(301,757,cs),
(301,1133,o),
(613,1432,o),
(985,1432,cs),
(1365,1432,o),
(1668,1133,o),
(1668,749,cs),
(1668,368,o),
(1372,63,o),
(976,63,cs)
);
},
{
closed = 1;
nodes = (
(1451,348,o),
(1466,349,o),
(1485,349,cs),
(1491,349,o),
(1494,354,o),
(1494,357,cs),
(1494,362,o),
(1492,366,o),
(1484,366,cs),
(1439,363,o),
(1373,403,o),
(1297,473,cs),
(1213,546,o),
(1101,682,o),
(1082,713,cs),
(1077,722,o),
(1076,728,o),
(1076,730,cs),
(1076,741,o),
(1079,743,o),
(1084,745,cs),
(1205,790,o),
(1274,844,o),
(1274,956,cs),
(1274,1116,o),
(1120,1178,o),
(931,1178,cs),
(894,1178,o),
(704,1175,o),
(670,1175,cs),
(635,1175,o),
(587,1176,o),
(532,1178,c),
(520,1178,o),
(518,1135,o),
(532,1135,cs),
(626,1135,o),
(673,1113,o),
(673,1069,cs),
(673,471,ls),
(673,424,o),
(629,400,o),
(539,400,cs),
(527,400,o),
(525,359,o),
(539,359,c),
(574,363,o),
(633,363,o),
(728,363,cs),
(821,363,o),
(887,362,o),
(918,359,c),
(932,359,o),
(932,400,o),
(918,400,cs),
(821,400,o),
(771,424,o),
(771,471,cs),
(771,708,ls),
(771,718,o),
(778,722,o),
(788,722,cs),
(874,722,ls),
(982,722,o),
(1072,545,o),
(1098,526,cs),
(1201,410,o),
(1272,348,o),
(1442,348,cs)
);
},
{
closed = 1;
nodes = (
(841,756,o),
(771,753,o),
(771,784,cs),
(771,1127,ls),
(771,1140,o),
(787,1144,o),
(879,1144,cs),
(1043,1144,o),
(1165,1073,o),
(1165,956,cs),
(1165,818,o),
(1067,756,o),
(883,756,cs)
);
}
);
width = 1970;
},
{
layerId = "997BDFA1-EC67-4686-8CFE-E56BDBE179FE";
shapes = (
{
closed = 1;
nodes = (
(1222,27,o),
(1542,346,o),
(1542,748,cs),
(1542,1151,o),
(1222,1468,o),
(821,1468,cs),
(420,1468,o),
(100,1151,o),
(100,748,cs),
(100,347,o),
(419,27,o),
(821,27,cs)
);
},
{
closed = 1;
nodes = (
(445,96,o),
(170,400,o),
(170,755,cs),
(170,1109,o),
(460,1399,o),
(821,1399,cs),
(1185,1399,o),
(1472,1111,o),
(1472,749,cs),
(1472,386,o),
(1183,96,o),
(814,96,cs)
);
},
{
closed = 1;
nodes = (
(1210,350,o),
(1224,352,o),
(1240,352,cs),
(1246,352,o),
(1249,357,o),
(1249,363,cs),
(1249,370,o),
(1246,374,o),
(1240,374,cs),
(1203,374,o),
(1153,407,o),
(1093,472,cs),
(1022,548,o),
(935,669,o),
(911,716,cs),
(907,724,o),
(906,729,o),
(906,733,cs),
(906,741,o),
(908,745,o),
(913,747,cs),
(1016,788,o),
(1074,844,o),
(1074,955,cs),
(1074,1112,o),
(946,1180,o),
(778,1180,cs),
(745,1180,o),
(593,1177,o),
(568,1177,cs),
(530,1177,o),
(487,1178,o),
(441,1180,c),
(430,1180,o),
(429,1134,o),
(441,1134,cs),
(517,1134,o),
(555,1112,o),
(555,1068,cs),
(555,477,ls),
(555,430,o),
(519,406,o),
(447,406,cs),
(436,406,o),
(435,361,o),
(447,361,c),
(481,365,o),
(532,365,o),
(607,365,cs),
(683,365,o),
(736,364,o),
(767,361,c),
(778,361,o),
(778,406,o),
(767,406,cs),
(690,406,o),
(651,430,o),
(651,477,cs),
(651,709,ls),
(651,718,o),
(656,723,o),
(664,723,cs),
(729,723,ls),
(808,723,o),
(874,580,o),
(910,531,cs),
(995,416,o),
(1058,350,o),
(1200,350,cs)
);
},
{
closed = 1;
nodes = (
(694,760,o),
(651,760,o),
(651,788,cs),
(651,1124,ls),
(651,1137,o),
(659,1143,o),
(732,1143,cs),
(867,1143,o),
(970,1072,o),
(970,955,cs),
(970,825,o),
(892,760,o),
(738,760,cs)
);
}
);
width = 1642;
}
);
unicode = 174;
}
